SplineFontDB: 3.2
FontName: RallyDisplay-Black
FullName: Rally Display Black
FamilyName: Rally Display
Weight: Black
Copyright: Copyright (c) 2023-2024, Zamero Type Foundry
UComments: "2023-12-31: Created with FontForge (http://fontforge.org)+AAoACgAK-Magical cartoon rabbit. :)"
Version: 001.000
ItalicAngle: 0
UnderlinePosition: -100
UnderlineWidth: 50
Ascent: 800
Descent: 200
InvalidEm: 0
LayerCount: 2
Layer: 0 0 "Back" 1
Layer: 1 0 "Fore" 0
XUID: [1021 474 1118879153 10182]
StyleMap: 0x0000
FSType: 0
OS2Version: 0
OS2_WeightWidthSlopeOnly: 0
OS2_UseTypoMetrics: 1
CreationTime: 1704051534
ModificationTime: 1732898010
PfmFamily: 81
TTFWeight: 900
TTFWidth: 5
LineGap: 90
VLineGap: 90
OS2TypoAscent: 0
OS2TypoAOffset: 1
OS2TypoDescent: 0
OS2TypoDOffset: 1
OS2TypoLinegap: 90
OS2WinAscent: 0
OS2WinAOffset: 1
OS2WinDescent: 0
OS2WinDOffset: 1
HheadAscent: 0
HheadAOffset: 1
HheadDescent: 0
HheadDOffset: 1
OS2Vendor: 'ZAM '
Lookup: 1 0 0 "'ss17' Style Set 17 lookup 29" { "'ss17' Style Set 17 lookup 29-1" ("ss17") } ['ss17' ('DFLT' <'dflt' > 'grek' <'dflt' > 'latn' <'AZE ' 'CAT ' 'CRT ' 'KAZ ' 'MOL ' 'NLD ' 'ROM ' 'TAT ' 'TRK ' 'dflt' > ) ]
Lookup: 1 0 0 "'ss18' Style Set 18 lookup 30" { "'ss18' Style Set 18 lookup 30-1" ("ss18") } ['ss18' ('DFLT' <'dflt' > 'grek' <'dflt' > 'latn' <'AZE ' 'CAT ' 'CRT ' 'KAZ ' 'MOL ' 'NLD ' 'ROM ' 'TAT ' 'TRK ' 'dflt' > ) ]
Lookup: 1 0 0 "'subs' Subscript lookup 0" { "'subs' Subscript lookup 0 subtable" ("inferior") } ['subs' ('DFLT' <'dflt' > ) ]
Lookup: 1 0 0 "'onum' Oldstyle Figures lookup 27" { "'onum' Oldstyle Figures lookup 27-1" ("osf") } ['onum' ('DFLT' <'dflt' > 'grek' <'dflt' > 'latn' <'AZE ' 'CAT ' 'CRT ' 'KAZ ' 'MOL ' 'NLD ' 'ROM ' 'TAT ' 'TRK ' 'dflt' > ) ]
Lookup: 1 0 0 "'ss16' Style Set 16 lookup 26" { "'ss16' Style Set 16 lookup 26-1" ("ss16") } ['ss16' ('DFLT' <'dflt' > 'grek' <'dflt' > 'latn' <'AZE ' 'CAT ' 'CRT ' 'KAZ ' 'MOL ' 'NLD ' 'ROM ' 'TAT ' 'TRK ' 'dflt' > ) ]

StartChar: dotlessi
Encoding: 239 305 1
Width: 330
Flags: W
HStem: 0 21G<93.8301 300.159> 336.084 160.927<13.6201 98.1514>
VStem: 93.8301 206.329<0 336.084>
LayerCount: 2
Back
SplineSet
294.729492188 496.93359375 m 5
 300.159179688 0 l 5
 103.830078125 0 l 5
 110 496.93359375 l 5
 294.729492188 496.93359375 l 5
EndSplineSet
Fore
SplineSet
294.729492188 497.010742188 m 1
 300.159179688 0 l 1
 93.830078125 0 l 1
 98.1513671877 336.083984375 l 1
 10 334.080078125 l 1
 13.6201171875 497.010742188 l 1
 294.729492188 497.010742188 l 1
EndSplineSet
EndChar

StartChar: period
Encoding: 14 46 2
Width: 270
Flags: W
HStem: -10 230<63.2868 206.713>
VStem: 20 230<33.2868 176.713>
LayerCount: 2
Fore
SplineSet
20 105 m 0
 20 175.278231534 64.7217684659 220 135 220 c 0
 205.278231534 220 250 175.278231534 250 105 c 0
 250 34.7217684659 205.278231534 -10 135 -10 c 0
 64.7217684659 -10 20 34.7217684659 20 105 c 0
EndSplineSet
EndChar

StartChar: o
Encoding: 79 111 3
Width: 565
Flags: W
HStem: -10.0664 174.925<230.93 333.53> 332.009 174.925<230.93 333.53>
VStem: 20 189.375<186.483 308.574> 355.625 189.375<186.483 308.574>
LayerCount: 2
Fore
SplineSet
209.375 249.858398438 m 0
 209.375 197.913856908 237.62773893 164.858398438 282.025390625 164.858398438 c 0
 327.003120742 164.858398438 355.625 197.913856908 355.625 249.858398438 c 0
 355.625 300.061705126 327.003120742 332.008789062 282.025390625 332.008789062 c 0
 237.62773893 332.008789062 209.375 300.061705126 209.375 249.858398438 c 0
20 249.93359375 m 0
 20 406.989257812 121.888778271 506.93359375 282 506.93359375 c 0
 442.722554052 506.93359375 545 406.989257812 545 249.93359375 c 0
 545 91.0439453125 442.722554052 -10.06640625 282 -10.06640625 c 0
 121.888778271 -10.06640625 20 91.0439453125 20 249.93359375 c 0
EndSplineSet
EndChar

StartChar: slash
Encoding: 15 47 4
Width: 507
Flags: W
LayerCount: 2
Back
SplineSet
1 -123.994140625 m 1
 198.637695312 379 l 1
 317 815.001953125 l 1
 506 763.001953125 l 1
 328.983398438 331 l 1
 190 -175.994140625 l 1
 1 -123.994140625 l 1
EndSplineSet
Fore
SplineSet
1 -118.994140625 m 1
 317 820.001953125 l 1
 506 758.001953125 l 1
 190 -180.994140625 l 1
 1 -118.994140625 l 1
EndSplineSet
Substitution2: "'frac' Diagonal Fractions in Latin lookup 25 subtable" fraction
EndChar

StartChar: d
Encoding: 68 100 5
Width: 682
Flags: W
HStem: -10.0664 170<241.12 339.344> 0 160.927<586.849 668.38> 336.934 170<241.12 346.772> 735.002 20G<386.875 584.26>
VStem: 20 197<183.839 311.488> 382.271 87.7295<123.97 418.267> 387 197.17<278.934 755.002>
LayerCount: 2
Back
SplineSet
387.270507812 755.001953125 m 5
 381.840820312 0 l 5
 578.169921875 0 l 5
 573.848632812 604.075195312 l 5
 672 602.071289062 l 5
 668.379882812 755.001953125 l 5
 387.270507812 755.001953125 l 5
EndSplineSet
Fore
SplineSet
372 246.93359375 m 0xb8
 372 301.933789063 342.05584366 336.93359375 295 336.93359375 c 0
 247.33285245 336.93359375 217 301.933789063 217 246.93359375 c 0
 217 193.76644048 247.33285245 159.93359375 295 159.93359375 c 0
 342.05584366 159.93359375 372 193.76644048 372 246.93359375 c 0xb8
470 278.93359375 m 0xbc
 470 123.970091943 393.034244218 -10.06640625 248 -10.06640625 c 0
 108.666015625 -10.06640625 20 89.8779296875 20 246.93359375 c 0
 20 405.823242188 108.666015625 506.93359375 248 506.93359375 c 0
 383.667091134 506.93359375 470 418.267481782 470 278.93359375 c 0xbc
382.270507812 0 m 1x7c
 387 755.001953125 l 1
 584.169921875 755.001953125 l 1x7a
 586.848632812 160.926757812 l 1
 672 162.930664062 l 1
 668.379882812 0 l 1
 382.270507812 0 l 1x7c
EndSplineSet
EndChar

StartChar: p
Encoding: 80 112 6
Width: 682
Flags: W
HStem: -10.0664 170<335.228 440.88> 336.084 160.927<13.6201 98.1514> 336.934 170<341.905 440.88>
VStem: 93.8301 206.329<-174 227.934> 212 82.7295<82.4886 377.535> 465 197<185.379 313.028>
LayerCount: 2
Fore
SplineSet
310 249.93359375 m 0xa4
 310 194.933398437 339.94415634 159.93359375 387 159.93359375 c 0
 434.667147549 159.93359375 465 194.933398437 465 249.93359375 c 0
 465 303.100747019 434.667147549 336.93359375 387 336.93359375 c 0
 339.94415634 336.93359375 310 303.100747019 310 249.93359375 c 0xa4
212 227.93359375 m 0xac
 212 377.535036671 288.965755782 506.93359375 434 506.93359375 c 0
 573.333984375 506.93359375 662 406.989257812 662 249.93359375 c 0
 662 91.0439453125 573.333984375 -10.06640625 434 -10.06640625 c 0
 298.332908866 -10.06640625 212 82.4885702775 212 227.93359375 c 0xac
294.729492188 497.010742188 m 1xcc
 300.159179688 -174 l 1
 93.830078125 -174 l 1xd4
 98.1513671877 336.083984375 l 1
 10 334.080078125 l 1
 13.6201171875 497.010742188 l 1
 294.729492188 497.010742188 l 1xcc
EndSplineSet
EndChar

StartChar: t
Encoding: 84 116 7
Width: 443
Flags: W
HStem: 336 161<12 225.667> 480 20G<190 422.545>
VStem: 98.8301 189.299<202.235 486.573>
LayerCount: 2
Fore
SplineSet
12 497 m 1xa0
 190 493 l 1
 423 500 l 1x60
 419 324 l 1
 187 341 l 1
 7 336 l 1
 12 497 l 1xa0
288.12890625 282 m 0
 288.12890625 207.476407618 304.136048487 179.562405783 397.159179688 166.930664062 c 1
 363.5390625 -16 l 1
 146.52192927 33.078125 98.830078125 72 98.830078125 262 c 0
 98.830078125 363 113.151367188 652.046875 113.151367188 652.046875 c 1
 293.729492188 645 l 1
 293.729492188 645 288.12890625 404 288.12890625 282 c 0
EndSplineSet
EndChar

StartChar: l
Encoding: 76 108 8
Width: 407
Flags: W
HStem: 0 161.397<304.129 393.539> 594.075 160.927<13.6201 103.151>
VStem: 98.8301 205.299<161.397 594.075>
LayerCount: 2
Back
SplineSet
105.334960938 140.244140625 m 5
 109.862304688 751.69921875 l 5
 349.01953125 797.84375 l 5
 404.7265625 645.374023438 l 5
 295.80859375 623.6875 l 5
 300.63671875 14.7734375 l 5
 48.3994140625 -44.3125 l 5
 -7.3076171875 108.157226562 l 5
 105.334960938 140.244140625 l 5
EndSplineSet
Fore
SplineSet
304.12890625 161.397460938 m 1
 397.159179688 162.930664062 l 1
 393.5390625 0 l 1
 98.830078125 0 l 1
 103.151367188 594.075195312 l 1
 10 592.071289062 l 1
 13.6201171875 755.001953125 l 1
 299.729492188 755.001953125 l 1
 304.12890625 161.397460938 l 1
EndSplineSet
EndChar

StartChar: e
Encoding: 69 101 9
Width: 541
Flags: W
HStem: -23.9004 155.801<290.653 421.819> 193 103<160 342> 359.934 147<232.773 325.962>
VStem: 20 502.619<196.02 377.117>
LayerCount: 2
Back
SplineSet
145 251.93359375 m 0
 145 118.399011671 234.924400059 91.0845098901 427.2890625 79.900390625 c 1
 411.819335938 -23.900390625 l 1
 195.319904327 -22.2919921875 30 49 30 259 c 0
 30 399.989257812 114.333684792 506.93359375 271 506.93359375 c 0
 466.952995619 506.93359375 517.619140625 377.117081999 517.619140625 261.659179688 c 0
 517.619140625 223.858398438 512 196 512 196 c 1
 130 193 l 1
 115 279 l 1
 404 283 l 1
 404 283 404.043226139 284.065301324 404.043226139 285.999999724 c 0
 404.043226139 306 397.916066056 408.93359375 277 408.93359375 c 0
 172.754005142 408.93359375 145 332.861387567 145 251.93359375 c 0
EndSplineSet
Fore
SplineSet
209 251.93359375 m 0
 209 158.762140079 283.633792748 145.704470409 443.2890625 131.900390625 c 1
 421.819335938 -23.900390625 l 1
 193.979492188 -22.2919921875 20 49 20 259 c 0
 20 399.989257812 107.833007812 506.93359375 271 506.93359375 c 0
 470.92578125 506.93359375 522.619140625 377.117081999 522.619140625 261.659179688 c 0
 522.619140625 223.858398438 517 196 517 196 c 1
 160 193 l 1
 145 296 l 1
 342 300 l 1
 342 300 341.920624403 303.988293667 340.729521837 309.999999828 c 0
 337.501714835 326.369848641 325.299263502 359.93359375 279.5 359.93359375 c 0
 223.823161837 359.93359375 209 307.603668478 209 251.93359375 c 0
EndSplineSet
Substitution2: "'ss17' Style Set 17 lookup 29-1" e.ss17
Substitution2: "'ss15' Style Set 15 lookup 23-1" e.ss15
Substitution2: "'ss04' Style Set 4 lookup 12-1" e.ss04
EndChar

StartChar: s
Encoding: 83 115 10
Width: 388
Flags: W
HStem: 495.9 20G<302.303 305.741>
LayerCount: 2
Fore
SplineSet
302.302734375 515.900390625 m 1
 326.232421875 376.700195312 l 1
 326.232421875 376.700195312 238.431640625 372.062336485 238.431640625 339.5 c 0
 238.431640625 327.994963171 244.828755358 320.148659972 280.732421875 300.799804688 c 0
 343.427999763 266.738578922 368.2890625 232.329015775 368.2890625 172 c 0
 368.2890625 -19.900390625 58.0390625 -23.900390625 58.0390625 -23.900390625 c 1
 36.5693359375 116.900390625 l 1
 36.5693359375 116.900390625 150.9375 121.600640303 150.9375 164 c 0
 150.9375 180.963197079 140.777338781 189.764757602 115.536132812 203.700195312 c 0
 45.4652080934 242.554674025 20 275.847017189 20 335 c 0
 20 511.299804688 302.302734375 515.900390625 302.302734375 515.900390625 c 1
EndSplineSet
EndChar

StartChar: b
Encoding: 66 98 11
Width: 682
Flags: W
HStem: -10.0664 170<342.656 440.88> 0 21G<98.8301 305.159> 336.934 170<335.228 440.88> 594.075 160.927<13.6201 103.151>
VStem: 103.151 196.578<278.934 594.075> 212 93.1592<123.97 418.267> 465 197<183.839 311.488>
LayerCount: 2
Fore
SplineSet
310 246.93359375 m 0xb2
 310 193.76644048 339.94415634 159.93359375 387 159.93359375 c 0
 434.667147549 159.93359375 465 193.76644048 465 246.93359375 c 0
 465 301.933789063 434.667147549 336.93359375 387 336.93359375 c 0
 339.94415634 336.93359375 310 301.933789063 310 246.93359375 c 0xb2
212 278.93359375 m 0xb6
 212 418.267481782 298.332908866 506.93359375 434 506.93359375 c 0
 573.333984375 506.93359375 662 405.823242188 662 246.93359375 c 0
 662 89.8779296875 573.333984375 -10.06640625 434 -10.06640625 c 0
 288.965755782 -10.06640625 212 123.970091943 212 278.93359375 c 0xb6
299.729492188 755.001953125 m 1x7a
 305.159179688 0 l 1x76
 98.830078125 0 l 1
 103.151367188 594.075195312 l 1
 10 592.071289062 l 1
 13.6201171875 755.001953125 l 1
 299.729492188 755.001953125 l 1x7a
EndSplineSet
EndChar

StartChar: grave
Encoding: 64 96 12
Width: 240
Flags: W
HStem: 510.22 230.284
VStem: 1 238.518
LayerCount: 2
Fore
SplineSet
102.676757812 740.50390625 m 1
 239.517578125 585.965820312 l 1
 170.080078125 510.219726562 l 1
 1 631.18359375 l 1
 102.676757812 740.50390625 l 1
EndSplineSet
EndChar

StartChar: q
Encoding: 81 113 13
Width: 682
Flags: W
HStem: -173.994 160.927<581.849 668.38> -10.0664 170<241.12 339.344> 336.934 170<241.12 346.772> 476.934 20G<381.859 579.275>
VStem: 20 197<183.839 311.488> 382 197.17<278.934 496.934> 382 88<123.97 418.267>
LayerCount: 2
Fore
SplineSet
372 246.93359375 m 0xe8
 372 301.933789063 342.05584366 336.93359375 295 336.93359375 c 0
 247.33285245 336.93359375 217 301.933789063 217 246.93359375 c 0
 217 193.76644048 247.33285245 159.93359375 295 159.93359375 c 0
 342.05584366 159.93359375 372 193.76644048 372 246.93359375 c 0xe8
470 278.93359375 m 0xea
 470 123.970091943 393.034244218 -10.06640625 248 -10.06640625 c 0
 108.666015625 -10.06640625 20 89.8779296875 20 246.93359375 c 0
 20 405.823242188 108.666015625 506.93359375 248 506.93359375 c 0
 383.667091134 506.93359375 470 418.267481782 470 278.93359375 c 0xea
377.270507812 -173.994140625 m 1
 382 496.93359375 l 1
 579.169921875 496.93359375 l 1xdc
 581.848632812 -13.0673828125 l 1
 672 -11.0634765625 l 1
 668.379882812 -173.994140625 l 1
 377.270507812 -173.994140625 l 1
EndSplineSet
EndChar

StartChar: a
Encoding: 65 97 14
Width: 682
Flags: W
HStem: -10.0664 170<241.12 339.344> 0 160.927<586.849 668.38> 336.934 170<241.12 346.772> 477.002 20G<386.81 584.329>
VStem: 20 197<183.839 311.488> 387 197.17<278.934 497.002> 387 83<123.97 418.267>
LayerCount: 2
Back
SplineSet
434 246.93359375 m 0xac
 434 342.267265625 377.222768499 402.93359375 288 402.93359375 c 0
 200.610229493 402.93359375 145 342.267265625 145 246.93359375 c 0
 145 153.432738 200.610229493 93.93359375 288 93.93359375 c 0
 377.222768499 93.93359375 434 153.432738 434 246.93359375 c 0xac
505 263.93359375 m 0xa9
 505 117.013180272 422.833855314 -10.06640625 268 -10.06640625 c 0
 122.554875959 -10.06640625 30 89.8779296875 30 246.93359375 c 0
 30 405.823242188 122.554875959 506.93359375 268 506.93359375 c 0
 412.833786481 506.93359375 505 412.434184942 505 263.93359375 c 0xa9
442.270507812 0 m 1x5c
 447 497.001953125 l 1
 554.169921875 497.001953125 l 1x5a
 556.848632812 90.9267578125 l 1
 662 92.9306640625 l 1
 658.379882812 0 l 1
 442.270507812 0 l 1x5c
EndSplineSet
Fore
SplineSet
372 246.93359375 m 0xa8
 372 301.933789063 342.05584366 336.93359375 295 336.93359375 c 0
 247.33285245 336.93359375 217 301.933789063 217 246.93359375 c 0
 217 193.76644048 247.33285245 159.93359375 295 159.93359375 c 0
 342.05584366 159.93359375 372 193.76644048 372 246.93359375 c 0xa8
470 278.93359375 m 0xaa
 470 123.970091943 393.034244218 -10.06640625 248 -10.06640625 c 0
 108.666015625 -10.06640625 20 89.8779296875 20 246.93359375 c 0
 20 405.823242188 108.666015625 506.93359375 248 506.93359375 c 0
 383.667091134 506.93359375 470 418.267481782 470 278.93359375 c 0xaa
382.270507812 0 m 1x5c
 387 497.001953125 l 1
 584.169921875 497.001953125 l 1
 586.848632812 160.926757812 l 1
 672 162.930664062 l 1
 668.379882812 0 l 1
 382.270507812 0 l 1x5c
EndSplineSet
Substitution2: "'ss03' Style Set 3 lookup 11-1" a.ss03
EndChar

StartChar: h
Encoding: 72 104 15
Width: 653
Flags: W
HStem: 0 21G<93.8301 300.159> 337.934 169<319.485 490.535> 594.075 160.927<13.6201 98.1514>
VStem: 93.8301 206.329<0 594.075> 426 202<-1.22201 321.657>
LayerCount: 2
Fore
SplineSet
188 253.93359375 m 1
 210.000338808 411.989257812 279.388472577 506.93359375 423 506.93359375 c 0
 558.0703125 506.93359375 628 429.158131451 628 278.93359375 c 0
 628 134.376986611 610.159179688 -15 610.159179688 -15 c 1
 405.830078125 0 l 1
 405.830078125 0 426 138.277935542 426 251.93359375 c 0
 426 306.521484375 409.316123188 337.93359375 362 337.93359375 c 0
 308.292194538 337.93359375 286.040971636 303.906853829 271 216.93359375 c 1
 188 253.93359375 l 1
294.729492188 755.001953125 m 1
 300.159179688 0 l 1
 93.830078125 0 l 1
 98.1513671877 594.075195312 l 1
 10 592.071289062 l 1
 13.6201171875 755.001953125 l 1
 294.729492188 755.001953125 l 1
EndSplineSet
EndChar

StartChar: n
Encoding: 78 110 16
Width: 653
Flags: W
HStem: 0 21G<93.8301 300.159> 336.075 160.927<13.6201 98.1514> 337.934 169<319.485 484.425>
VStem: 93.8301 206.329<0 253.934> 426 202<-1.22201 321.657>
LayerCount: 2
Fore
SplineSet
188 253.93359375 m 1xb8
 210.000338808 411.989257812 279.388472577 506.93359375 423 506.93359375 c 0
 558.0703125 506.93359375 628 429.158131451 628 278.93359375 c 0
 628 134.376986611 610.159179688 -15 610.159179688 -15 c 1
 405.830078125 0 l 1
 405.830078125 0 426 138.277935542 426 251.93359375 c 0
 426 306.521484375 409.316123188 337.93359375 362 337.93359375 c 0
 308.292194538 337.93359375 286.040971636 303.906853829 271 216.93359375 c 1
 188 253.93359375 l 1xb8
294.729492188 497.001953125 m 1xd8
 300.159179688 0 l 1
 93.830078125 0 l 1
 98.1513671877 336.075195312 l 1
 10 334.071289062 l 1
 13.6201171875 497.001953125 l 1
 294.729492188 497.001953125 l 1xd8
EndSplineSet
EndChar

StartChar: I
Encoding: 41 73 17
Width: 468
Flags: W
HStem: 0 179<13.958 115.584 344.71 455.287> 543.08 187.931<18.748 118.779 341.635 445.857>
VStem: 115.584 229.126<179 544>
LayerCount: 2
Back
SplineSet
339.857421875 731.010742188 m 5
 345.287109375 0 l 5
 128.958007812 0 l 5
 133.279296875 560.083984375 l 5
 15.1279296875 558.080078125 l 5
 18.748046875 731.010742188 l 5
 339.857421875 731.010742188 l 5
EndSplineSet
Fore
SplineSet
445.857421875 731.010742188 m 1
 452.127929688 541 l 1
 341.634765625 544 l 1
 344.709960938 179 l 1
 458.26953125 183 l 1
 455.287109375 0 l 1
 13.9580078125 0 l 1
 10 181 l 1
 115.583984375 179 l 1
 118.779296875 545.083984375 l 1
 15.1279296875 543.080078125 l 1
 18.748046875 731.010742188 l 1
 445.857421875 731.010742188 l 1
EndSplineSet
EndChar

StartChar: c
Encoding: 67 99 18
Width: 471
Flags: W
HStem: -10.0664 170<255.056 409.536> 336.934 170<256.234 388.87>
VStem: 20 206<186.884 307.509>
LayerCount: 2
Back
SplineSet
20 249.93359375 m 0
 20 406.989257812 127.722105271 506.93359375 297 506.93359375 c 0
 415.535915516 506.93359375 465.916992188 450.782226562 465.916992188 450.782226562 c 1
 409.647460938 308.369140625 l 1
 409.647460938 308.369140625 373.776884975 346.93359375 318 346.93359375 c 4
 252.610710758 346.93359375 211 309.211914062 211 249.93359375 c 0
 211 180.822265625 247.426625003 154.52486356 323.040039062 139.244140625 c 0
 407.435563152 122.917258333 455.553710938 87 455.553710938 1.279296875 c 0
 455.553710938 -81.1748046875 404 -147 404 -147 c 1
 280 -97 l 1
 280 -97 295.76171875 -74 295.76171875 -54 c 0
 295.76171875 -29.5654296875 282.579369985 -17.3599949932 223.834960938 -5.6943359375 c 0
 112.853515625 16.3447265625 20 91.0439453125 20 249.93359375 c 0
EndSplineSet
Fore
SplineSet
20 249.93359375 m 0
 20 406.989257812 127.722105271 506.93359375 297 506.93359375 c 0
 415.535915516 506.93359375 465.916992188 450.782226562 465.916992188 450.782226562 c 1
 409.647460938 298.369140625 l 1
 409.647460938 298.369140625 373.776884975 336.93359375 318 336.93359375 c 0
 261.777433549 336.93359375 226 303.100747019 226 249.93359375 c 0
 226 194.933398437 258.141357421 159.93359375 321 159.93359375 c 0
 395.442711847 159.93359375 433.1484375 198.364257812 433.1484375 198.364257812 c 1
 475.146484375 32.31640625 l 1
 475.146484375 32.31640625 429.284695862 -10.06640625 287 -10.06640625 c 0
 123.833220605 -10.06640625 20 91.0439453125 20 249.93359375 c 0
EndSplineSet
EndChar

StartChar: equal
Encoding: 29 61 19
Width: 450
Flags: W
HStem: 162 143.5<223 413> 173 146.5<29 223> 346.5 155.5<169 421> 357.5 140.5<29 277>
LayerCount: 2
Fore
SplineSet
29 319.5 m 1x40
 417 305.5 l 1
 413 162 l 1x80
 25 173 l 1
 29 319.5 l 1x40
29 498 m 1x10
 425 502 l 1
 421 346.5 l 1x20
 25 357.5 l 1
 29 498 l 1x10
EndSplineSet
EndChar

StartChar: k
Encoding: 75 107 20
Width: 618
Flags: W
HStem: 0 21G<93.8301 300.159> 494 20G<428.248 468.672> 594.075 160.927<13.6201 98.1514>
VStem: 93.8301 206.329<0 594.075>
LayerCount: 2
Fore
SplineSet
446 514 m 1
 586 390.5 l 1
 445 258 l 1
 608 112 l 1
 456 -17 l 1
 217 256 l 1
 446 514 l 1
294.729492188 755.001953125 m 1
 300.159179688 0 l 1
 93.830078125 0 l 1
 98.1513671877 594.075195312 l 1
 10 592.071289062 l 1
 13.6201171875 755.001953125 l 1
 294.729492188 755.001953125 l 1
EndSplineSet
Substitution2: "'ss06' Style Set 6 lookup 14-1" k.ss06
EndChar

StartChar: m
Encoding: 77 109 21
Width: 958
Flags: W
HStem: 0 21G<93.8301 300.159> 336.075 160.927<13.6201 98.1514> 337.934 169<329.467 480.912 644.467 795.912>
VStem: 93.8301 206.329<0 253.934> 416 202<0.309438 376.609> 731 202<-0.582391 328.254>
LayerCount: 2
Fore
SplineSet
503 253.93359375 m 1xbc
 524.064453125 411.989257812 610.5 506.93359375 748 506.93359375 c 0
 869.892578125 506.93359375 933 439.391601562 933 308.93359375 c 0
 933 149.623046875 915.159179688 -15 915.159179688 -15 c 1
 710.830078125 0 l 1
 710.830078125 0 731 149.255467262 731 271.93359375 c 0
 731 313.826171875 716.922603284 337.93359375 677 337.93359375 c 0
 633.927570004 337.93359375 598.062180925 303.906853829 586 216.93359375 c 1
 503 253.93359375 l 1xbc
188 253.93359375 m 1
 209.064453125 411.989257812 295.5 506.93359375 433 506.93359375 c 0
 554.892578125 506.93359375 618 439.391601562 618 308.93359375 c 0
 618 154.541015625 605.159179688 -5 605.159179688 -5 c 1
 405.830078125 0 l 1
 405.830078125 0 416 149.255467262 416 271.93359375 c 0
 416 313.826171875 401.922603284 337.93359375 362 337.93359375 c 0
 318.927570004 337.93359375 283.062180925 303.906853829 271 216.93359375 c 1
 188 253.93359375 l 1
294.729492188 497.001953125 m 1xdc
 300.159179688 0 l 1
 93.830078125 0 l 1
 98.1513671877 336.075195312 l 1
 10 334.071289062 l 1
 13.6201171875 497.001953125 l 1
 294.729492188 497.001953125 l 1xdc
EndSplineSet
EndChar

StartChar: hyphen
Encoding: 13 45 23
Width: 380
Flags: W
HStem: 165 192<139.455 366> 176 177<14 236.545>
LayerCount: 2
Fore
SplineSet
14 353 m 1x40
 370 357 l 1
 366 165 l 1x80
 10 176 l 1
 14 353 l 1x40
EndSplineSet
EndChar

StartChar: three
Encoding: 19 51 24
Width: 581
Flags: W
HStem: -10.0664 189<94.9941 302.668> 522.008 209<30 263.848>
VStem: 320.917 239<195.736 281.871>
LayerCount: 2
Fore
SplineSet
401 421 m 1
 401 421 413.688711773 419.130605832 431.939965524 413 c 0
 483.505283266 395.905904532 559.916992188 347.302425216 559.916992188 216.9921875 c 0
 559.916992188 68.2338010229 445.97265625 -10.06640625 266.916992188 -10.06640625 c 0
 85.2246769868 -10.06640625 8 34.0849609375 8 34.0849609375 c 1
 50 219 l 1
 50 219 124.769862386 178.93359375 228.916992188 178.93359375 c 0
 293.744542739 178.93359375 320.916992188 201.412276471 320.916992188 239.4921875 c 0
 320.916992188 274.1421875 292.359683388 297.9921875 235.916992188 297.9921875 c 0
 183.263922932 297.9921875 155.2578125 288.43359375 155.2578125 288.43359375 c 1
 129 402 l 1
 263.84765625 528.0078125 l 1
 20 522.0078125 l 1
 30 731.0078125 l 1
 529.016601562 731.0078125 l 1
 539.016601562 563.0078125 l 1
 401 421 l 1
EndSplineSet
Substitution2: "'onum' Oldstyle Figures lookup 27-1" three.osf
Substitution2: "'ss01' Style Set 1 lookup 9-1" three.ss01
Substitution2: "'frac' Diagonal Fractions in Latin lookup 26 subtable" three.numr
Substitution2: "'dnom' Denominators lookup 0 subtable" three.dnom
Substitution2: "'numr' Numerators lookup 0 subtable" three.numr
Substitution2: "'sinf' Scientific Inferiors lookup 0 subtable" three.inferior
Substitution2: "'sups' Superscript lookup 0 subtable" three.superior
EndChar

StartChar: eight
Encoding: 24 56 25
Width: 608
Flags: W
HStem: -10.0078 181.239<243.738 349.159> 561.156 177.836<263.622 352.809>
VStem: 20 210.811<185.587 283.706> 46.6787 208.621<480.461 553.565> 362.193 226.735<183.139 265.107> 363.723 196.435<461.438 550.895>
LayerCount: 2
Fore
SplineSet
299.500976562 171.231445312 m 0xe8
 338.377508311 171.231445312 362.193359375 190.930523018 362.193359375 223.086914062 c 0xe8
 362.193359375 258.089290982 338.604353198 276.469992642 264.751953125 304.103515625 c 0
 119.197784446 358.858167108 46.6787109375 424.477461525 46.6787109375 536 c 0
 46.6787109375 660.085723141 148.472772262 738.9921875 308.55078125 738.9921875 c 0
 462.738371775 738.9921875 560.157226562 669.31262037 560.157226562 543.611328125 c 0
 560.157226562 407.243350013 409.053710938 357 409.053710938 357 c 1
 285.579101562 416.384765625 l 1
 285.579101562 416.384765625 363.72265625 455.414275432 363.72265625 507.682617188 c 0
 363.72265625 540.935668122 342.662248101 561.15625 308.02734375 561.15625 c 0
 275.508883483 561.15625 255.299804688 543.275932119 255.299804688 514.504882812 c 0xd4
 255.299804688 487.281609541 273.379007681 473.726473574 333.245117188 456.96484375 c 0
 520.2578125 404.0546875 588.928710938 335.89826254 588.928710938 216.379882812 c 0
 588.928710938 75.260500131 482.219824711 -10.0078125 305.616210938 -10.0078125 c 0
 134.082920797 -10.0078125 20 72.9892081907 20 197.782226562 c 0
 20 338.804667741 163.459960938 384.984375 163.459960938 384.984375 c 1
 292.620117188 318.284179688 l 1
 292.620117188 318.284179688 230.810546875 289.736731459 230.810546875 228.194335938 c 0
 230.810546875 193.700174054 257.90514504 171.231445312 299.500976562 171.231445312 c 0xe8
EndSplineSet
Substitution2: "'onum' Oldstyle Figures lookup 27-1" eight.osf
Substitution2: "'frac' Diagonal Fractions in Latin lookup 26 subtable" eight.numr
Substitution2: "'dnom' Denominators lookup 0 subtable" eight.dnom
Substitution2: "'numr' Numerators lookup 0 subtable" eight.numr
Substitution2: "'sinf' Scientific Inferiors lookup 0 subtable" eight.inferior
Substitution2: "'sups' Superscript lookup 0 subtable" eight.superior
EndChar

StartChar: g
Encoding: 71 103 26
Width: 609
Flags: W
HStem: -196.994 154.931<163.891 272.596> 29.9336 160<172.288 345.486> 346.934 160<172.288 346.001> 477.934 20G<374.101 567.271>
VStem: 20 197<212.977 325.4> 370 204<47.6722 406.787> 379.422 78.5781<50.3198 457.689>
LayerCount: 2
Back
SplineSet
382.270507812 -173.994140625 m 5
 387 496.93359375 l 5
 574.169921875 496.93359375 l 5xf8
 576.848632812 -23.0673828125 l 5
 672 -21.0634765625 l 5
 668.379882812 -173.994140625 l 5
 382.270507812 -173.994140625 l 5
EndSplineSet
Fore
SplineSet
370 266.93359375 m 0xec
 370 315.822656251 340.444728807 346.93359375 294 346.93359375 c 0
 246.943969727 346.93359375 217 315.822656251 217 266.93359375 c 0
 217 219.877607522 246.943969727 189.93359375 294 189.93359375 c 0
 340.444728807 189.93359375 370 219.877607522 370 266.93359375 c 0xec
458 284.93359375 m 0xea
 458 148.201092155 403.006546919 29.93359375 243 29.93359375 c 0
 106.721585458 29.93359375 20 122.100160354 20 266.93359375 c 0
 20 413.600961538 106.721585458 506.93359375 243 506.93359375 c 0
 374.389299972 506.93359375 458 420.600800518 458 284.93359375 c 0xea
574 83 m 0xdc
 574 -58 529.124616281 -180.994140625 163.890625 -196.994140625 c 1
 132.770507812 -42.0634765625 l 1
 327.939267981 -24.2794615001 379.421875 3.7070628949 379.421875 96.9326171875 c 0xda
 379.421875 281 374.100585938 494.93359375 374.100585938 494.93359375 c 1
 567.270507812 497.93359375 l 1
 567.270507812 497.93359375 574 247 574 83 c 0xdc
EndSplineSet
Substitution2: "'ss05' Style Set 5 lookup 13-1" g.ss05
EndChar

StartChar: u
Encoding: 85 117 27
Width: 653
Flags: W
HStem: -9.93164 169<169.073 314.603> 0 160.927<557.849 639.38> 477.002 20G<42.8408 247.17 357.81 555.329>
VStem: 25 202<175.748 498.225> 358 197.17<213.068 497.002>
LayerCount: 2
Fore
SplineSet
353.270507812 0 m 1x78
 358 497.001953125 l 1
 555.169921875 497.001953125 l 1
 557.848632812 160.926757812 l 1
 643 162.930664062 l 1
 639.379882812 0 l 1
 353.270507812 0 l 1x78
450 213.068359375 m 1
 431.399159664 122 376.304113051 -9.931640625 217 -9.931640625 c 0
 94.9296875 -9.931640625 25 67.8438216743 25 218.068359375 c 0
 25 362.624966514 42.8408203125 512.001953125 42.8408203125 512.001953125 c 1
 247.169921875 497.001953125 l 1
 247.169921875 497.001953125 227 361.468350592 227 250.068359375 c 0
 227 192.306754179 243.683876812 159.068359375 291 159.068359375 c 0xb8
 337.361435439 159.068359375 361.153846154 188.739441522 367 250.068359375 c 1
 450 213.068359375 l 1
EndSplineSet
EndChar

StartChar: exclam
Encoding: 1 33 28
Width: 272
Flags: W
HStem: -10 230<64.2868 207.713> 264.635 466.365<52.0218 218.982>
VStem: 21 230<33.2868 176.713>
LayerCount: 2
Fore
SplineSet
19 731 m 1
 253 731 l 1
 219 253 l 1
 219 253 194.589041096 264.634765625 138 264.634765625 c 0
 81.7692307693 264.634765625 52 251 52 251 c 1
 19 731 l 1
21 105 m 0
 21 175.278231534 65.7217684659 220 136 220 c 0
 206.278231534 220 251 175.278231534 251 105 c 0
 251 34.7217684659 206.278231534 -10 136 -10 c 0
 65.7217684659 -10 21 34.7217684659 21 105 c 0
EndSplineSet
Substitution2: "'ss16' Style Set 16 lookup 26-1" exclam.ss16
EndChar

StartChar: r
Encoding: 82 114 29
Width: 498
Flags: W
HStem: 0 21G<93.8301 300.159> 336.075 160.927<13.6201 98.1514> 496.934 20G<397.73 434.963>
VStem: 93.8301 206.329<0 258.607>
LayerCount: 2
Fore
SplineSet
427 516.93359375 m 1xb0
 499.068359375 335.926757812 l 1
 272.962890625 258.607421875 l 1
 220.669921875 375.947265625 l 1
 427 516.93359375 l 1xb0
294.729492188 497.001953125 m 1xd0
 300.159179688 0 l 1
 93.830078125 0 l 1
 98.1513671877 336.075195312 l 1
 10 334.071289062 l 1
 13.6201171875 497.001953125 l 1
 294.729492188 497.001953125 l 1xd0
EndSplineSet
Substitution2: "'ss07' Style Set 7 lookup 15-1" r.ss07
EndChar

StartChar: f
Encoding: 70 102 30
Width: 433
Flags: W
HStem: 0 21G<93.335 298.637> 336 161<12 224> 480 20G<190 412.545>
VStem: 74.8691 203.533<496.497 604.991> 95.9941 198.644<0 476.558>
LayerCount: 2
Fore
SplineSet
12 497 m 1xc0
 190 493 l 1
 413 500 l 1xa0
 409 324 l 1
 187 341 l 1
 7 336 l 1
 12 497 l 1xc0
95.984375 412.096679688 m 2
 95.9908695046 413.106851635 95.9940772295 414.107757517 95.9940772295 415.099589509 c 0x88
 95.9940772295 495.588724833 74.869140625 516.320441961 74.869140625 580 c 0
 74.869140625 711.412976765 178.933523082 767.86158329 362.01953125 797.84375 c 1
 387.7265625 638.374023438 l 1
 308.182785602 624.482212017 278.40234375 600.703544363 278.40234375 556 c 0x90
 278.40234375 514.735543854 293.871883933 476.557950382 294.637695312 399.96484375 c 2x88
 298.63671875 0 l 1
 93.3349609375 0 l 1
 95.984375 412.096679688 l 2
EndSplineSet
EndChar

StartChar: one
Encoding: 17 49 32
Width: 374
Flags: W
HStem: 0 21G<113.83 345.159> 545.084 185.927<13.6201 118.151>
VStem: 113.83 231.329<0 545.084>
LayerCount: 2
Fore
SplineSet
339.729492188 731.010742188 m 1
 345.159179688 0 l 1
 113.830078125 0 l 1
 118.151367188 545.083984375 l 1
 10 543.080078125 l 1
 13.6201171875 731.010742188 l 1
 339.729492188 731.010742188 l 1
EndSplineSet
Substitution2: "'onum' Oldstyle Figures lookup 27-1" one.osf
Substitution2: "'frac' Diagonal Fractions in Latin lookup 26 subtable" one.numr
Substitution2: "'dnom' Denominators lookup 0 subtable" one.dnom
Substitution2: "'numr' Numerators lookup 0 subtable" one.numr
Substitution2: "'sinf' Scientific Inferiors lookup 0 subtable" one.inferior
Substitution2: "'sups' Superscript lookup 0 subtable" one.superior
EndChar

StartChar: zero
Encoding: 16 48 33
Width: 675
Flags: W
HStem: -10.0664 210.351<284.356 389.862> 528.583 210.351<284.356 389.862>
VStem: 20 220.487<252.281 473.945> 434.513 220.487<252.281 473.945>
LayerCount: 2
Fore
SplineSet
240.487304688 361.704101562 m 0
 240.487304688 263.05840938 277.90203688 200.284179688 336.697265625 200.284179688 c 0
 396.473615462 200.284179688 434.512695312 263.05840938 434.512695312 361.704101562 c 0
 434.512695312 463.686244881 396.473615462 528.583007812 336.697265625 528.583007812 c 0
 277.90203688 528.583007812 240.487304688 463.686244881 240.487304688 361.704101562 c 0
20 361.93359375 m 0
 20 592.322641811 143.277643938 738.93359375 337 738.93359375 c 0
 531.333734557 738.93359375 655 592.322641811 655 361.93359375 c 0
 655 134.599173678 531.333734557 -10.06640625 337 -10.06640625 c 0
 143.277643938 -10.06640625 20 134.599173678 20 361.93359375 c 0
EndSplineSet
Substitution2: "'onum' Oldstyle Figures lookup 27-1" zero.osf
Substitution2: "'frac' Diagonal Fractions in Latin lookup 26 subtable" zero.numr
Substitution2: "'dnom' Denominators lookup 0 subtable" zero.dnom
Substitution2: "'numr' Numerators lookup 0 subtable" zero.numr
Substitution2: "'sinf' Scientific Inferiors lookup 0 subtable" zero.inferior
Substitution2: "'sups' Superscript lookup 0 subtable" zero.superior
EndChar

StartChar: uni0237
Encoding: 424 567 35
Width: 330
Flags: W
HStem: 336.084 160.927<13.6201 98.1514>
VStem: 93.8301 206.329<30 336.084>
LayerCount: 2
Fore
SplineSet
294.729492188 497.010742188 m 1
 300.159179688 10 l 1
 188 -204 l 1
 1 -118 l 1
 93.830078125 30 l 1
 98.1513671877 336.083984375 l 1
 10 334.080078125 l 1
 13.6201171875 497.010742188 l 1
 294.729492188 497.010742188 l 1
EndSplineSet
EndChar

StartChar: y
Encoding: 89 121 36
Width: 593
Flags: W
HStem: 491 20G<10 273.353 399.757 515.637>
LayerCount: 2
Fore
SplineSet
357.905273438 139.1328125 m 1
 347 40 l 1
 212.174804688 40 l 1
 120.151367188 342 l 1
 17.0458984375 334 l 1
 10 497 l 1
 268.546875 511 l 1
 357.905273438 139.1328125 l 1
274.698242188 84.158203125 m 2
 405.904296875 511 l 1
 592.450195312 477 l 1
 442.073730469 61.1440429688 l 2
 375.667710752 -122.8918199 299 -225 299 -225 c 1
 129 -143.994140625 l 1
 129 -143.994140625 246.244172585 -9.0446116633 274.698242188 84.158203125 c 2
EndSplineSet
Substitution2: "'ss08' Style Set 8 lookup 16-1" y.ss08
EndChar

StartChar: x
Encoding: 88 120 37
Width: 572
Flags: W
HStem: 494 20G<134.808 248.32 386.909 431.026>
LayerCount: 2
Fore
SplineSet
400.5 514 m 1
 574.5 400 l 1
 441.5 255 l 1
 582.5 108 l 1
 408.5 -17 l 1
 224.5 255 l 1
 400.5 514 l 1
129.142578125 332.138671875 m 1
 30.1806640625 310.97265625 l 1
 1.2314453125 467.3359375 l 1
 235 514 l 1
 407.5 255 l 1
 223.5 -17 l 1
 49.5 108 l 1
 190.5 255 l 1
 129.142578125 332.138671875 l 1
EndSplineSet
EndChar

StartChar: S
Encoding: 51 83 38
Width: 487
Flags: W
HStem: 718.393 20G<380.69 384.241>
VStem: 208.121 259.215<212.777 285.239>
LayerCount: 2
Fore
SplineSet
380.690429688 738.392578125 m 1
 411.541015625 564.592773438 l 1
 411.541015625 564.592773438 277.268554687 554.39055928 277.268554688 506.93359375 c 0
 277.268554688 485.729766229 293.496084557 470.786500569 365.284179688 430.650390625 c 0
 440.757940564 389.119780746 467.3359375 335.053870154 467.3359375 251.044921875 c 0
 467.3359375 -14.0094951877 74.4423828125 -19.8779296875 74.4423828125 -19.8779296875 c 1
 47.220703125 171.682617188 l 1
 47.220703125 171.682617188 208.12109375 179.122498987 208.12109375 246 c 0
 208.12109375 268.772545018 195.849978239 284.271141045 151.401367188 307.655273438 c 0
 39.1328052562 366.474168092 20 416.337553755 20 495.081054688 c 0
 20 731.98828125 380.690429688 738.392578125 380.690429688 738.392578125 c 1
EndSplineSet
EndChar

StartChar: v
Encoding: 86 118 39
Width: 593
Flags: W
HStem: 0 21G<225.624 426.854> 491 20G<10 273.745 400.808 515.637>
LayerCount: 2
Fore
SplineSet
419.607421875 0 m 1
 232.174804688 0 l 1
 120.151367188 342 l 1
 17.0458984375 334 l 1
 10 497 l 1
 268.546875 511 l 1
 337.905273438 244.1328125 l 1
 405.904296875 511 l 1
 592.450195312 477 l 1
 419.607421875 0 l 1
EndSplineSet
EndChar

StartChar: w
Encoding: 87 119 40
Width: 862
Flags: W
HStem: 0 21G<208.676 428.788 516.242 725.682> 491 20G<10 273.407 404.302 519.637 679.187 788.755>
LayerCount: 2
Fore
SplineSet
421.607421875 0 m 1
 214.174804688 0 l 1
 120.151367188 342 l 1
 17.0458984375 334 l 1
 10 497 l 1
 268.546875 511 l 1
 332.905273438 246.1328125 l 1
 409.904296875 521 l 1
 596.450195312 487 l 1
 421.607421875 0 l 1
719.607421875 0 m 1
 523.174804688 0 l 1
 401.151367188 352 l 1
 545 453 l 1
 610.905273438 242.1328125 l 1
 684.904296875 501 l 1
 861.450195312 467 l 1
 719.607421875 0 l 1
EndSplineSet
EndChar

StartChar: six
Encoding: 22 54 41
Width: 619
Flags: W
HStem: -10 181.858<266.805 364.523> 316.009 159.718<264.474 447.74>
VStem: 20 228.375<188.57 416.541> 384.625 214.691<191.063 296.99>
LayerCount: 2
Back
SplineSet
498.310546875 748.9921875 m 1
 512 637.533203125 l 1
 175.065365254 610.146952891 170.458007812 416.932617188 170.458007812 416.932617188 c 1
 170.458007812 416.932617188 215.209080523 483.7265625 336.600585938 483.7265625 c 0
 472.674581172 483.7265625 572.31640625 388.819152798 572.31640625 245.249023438 c 0
 572.31640625 100.798835154 490.925518401 -10 316.310546875 -10 c 0
 170.896357089 -10 45 80.6409024463 45 300.348632812 c 4
 45 516.020480109 153.586977651 728.185507446 498.310546875 748.9921875 c 1
176.375 242.858398438 m 0
 176.375 154.857510653 229.905346038 98.8583984375 314.025390625 98.8583984375 c 0
 398.725511696 98.8583984375 452.625 154.857510653 452.625 242.858398438 c 0
 452.625 329.728081597 398.725511696 385.008789062 314.025390625 385.008789062 c 0
 229.905346038 385.008789062 176.375 329.728081597 176.375 242.858398438 c 0
EndSplineSet
Fore
SplineSet
498.310546875 748.9921875 m 1
 522 556.533203125 l 1
 280.662404952 534.143993801 261.458007812 453.932617188 261.458007812 453.932617188 c 1
 261.458007812 453.932617188 293.280116049 475.7265625 379.600585938 475.7265625 c 0
 515.879482208 475.7265625 599.31640625 384.002929688 599.31640625 245.249023438 c 0
 599.31640625 100.798835154 520.52726296 -10 316.310546875 -10 c 0
 138.863937848 -10 20 83.8535794858 20 311.348632812 c 0
 20 521.732562127 134.575531105 728.695652924 498.310546875 748.9921875 c 1
248.375 244.858398438 m 0
 248.375 200.246837269 274.683307614 171.858398438 316.025390625 171.858398438 c 0
 357.947552207 171.858398438 384.625 200.246837269 384.625 244.858398438 c 0
 384.625 288.339192709 357.947552207 316.008789062 316.025390625 316.008789062 c 0
 274.683307614 316.008789062 248.375 288.339192709 248.375 244.858398438 c 0
EndSplineSet
Substitution2: "'onum' Oldstyle Figures lookup 27-1" six.osf
Substitution2: "'frac' Diagonal Fractions in Latin lookup 26 subtable" six.numr
Substitution2: "'dnom' Denominators lookup 0 subtable" six.dnom
Substitution2: "'numr' Numerators lookup 0 subtable" six.numr
Substitution2: "'sinf' Scientific Inferiors lookup 0 subtable" six.inferior
Substitution2: "'sups' Superscript lookup 0 subtable" six.superior
EndChar

StartChar: z
Encoding: 90 122 42
Width: 461
Flags: W
HStem: 0 174<267.169 431.017> 328 169<30 183.848>
LayerCount: 2
Fore
SplineSet
20 328 m 1
 30 497 l 1
 399.016601562 497 l 1
 431.016601562 359 l 1
 267.168945312 174 l 1
 441.016601562 180 l 1
 431.016601562 0 l 1
 41 0 l 1
 12 138 l 1
 183.84765625 334 l 1
 20 328 l 1
EndSplineSet
EndChar

StartChar: O
Encoding: 47 79 43
Width: 785
Flags: W
HStem: -10.0664 221.351<314.841 463.189> 517.583 221.351<316.189 461.722>
VStem: 20 234.487<277.075 453.558> 530.513 234.487<278.574 447.153>
LayerCount: 2
Back
SplineSet
295.487304688 361.704101562 m 0
 295.487304688 247.780273438 320.957605563 175.284179688 376.697265625 175.284179688 c 0
 439.529183996 175.284179688 469.512695312 247.780273438 469.512695312 361.704101562 c 0
 469.512695312 478.963867188 439.529183996 553.583007812 376.697265625 553.583007812 c 0
 320.957605563 553.583007812 295.487304688 478.963867188 295.487304688 361.704101562 c 0
90 361.93359375 m 0
 90 592.322265625 195.499874605 738.93359375 377 738.93359375 c 0
 565.222610829 738.93359375 675 592.322265625 675 361.93359375 c 0
 675 134.599609375 565.222610829 -10.06640625 377 -10.06640625 c 0
 195.499874605 -10.06640625 90 134.599609375 90 361.93359375 c 0
EndSplineSet
Fore
SplineSet
254.487304688 361.704101562 m 0
 254.487304688 269.22502072 308.774284973 211.284179688 386.697265625 211.284179688 c 0
 471.695068481 211.284179688 530.512695312 269.22502072 530.512695312 361.704101562 c 0
 530.512695312 457.521790883 471.695068481 517.583007812 386.697265625 517.583007812 c 0
 308.774284973 517.583007812 254.487304688 457.521790883 254.487304688 361.704101562 c 0
20 361.93359375 m 0
 20 592.322641811 162.722067273 738.93359375 387 738.93359375 c 0
 618.000476926 738.93359375 765 592.322641811 765 361.93359375 c 0
 765 134.599173678 618.000476926 -10.06640625 387 -10.06640625 c 0
 162.722067273 -10.06640625 20 134.599173678 20 361.93359375 c 0
EndSplineSet
EndChar

StartChar: L
Encoding: 44 76 44
Width: 620
Flags: W
HStem: 0 186.293<349.065 606.539> 545.084 185.927<13.6201 123.151>
VStem: 118.43 230.635<186.293 545.084>
LayerCount: 2
Fore
SplineSet
349.06462409 186.292850645 m 1
 610.159179688 187.930664062 l 1
 606.5390625 0 l 1
 118.4296875 0 l 1
 123.151367188 545.083984375 l 1
 10 543.080078125 l 1
 13.6201171875 731.010742188 l 1
 344.729492188 731.009882812 l 1
 349.06462409 186.292850645 l 1
EndSplineSet
EndChar

StartChar: K
Encoding: 43 75 45
Width: 757
Flags: W
HStem: 0 21G<118.83 350.159> 545.084 185.927<13.6201 123.151>
VStem: 118.83 231.329<0 545.084>
LayerCount: 2
Fore
SplineSet
344.729492188 731.010742188 m 1
 350.159179688 0 l 1
 118.830078125 0 l 1
 123.151367188 545.083984375 l 1
 10 543.080078125 l 1
 13.6201171875 731.010742188 l 1
 344.729492188 731.010742188 l 1
533 745.0078125 m 1
 732 611.0078125 l 1
 511 364 l 1
 747 118 l 1
 548 -27 l 1
 254 364 l 1
 533 745.0078125 l 1
EndSplineSet
EndChar

StartChar: J
Encoding: 42 74 46
Width: 370
Flags: W
HStem: 545.084 185.927<13.6201 123.151>
VStem: 118.83 231.329<85 545.084>
LayerCount: 2
Fore
SplineSet
344.729492188 731.010742188 m 1
 350.159179688 45 l 1
 208 -197 l 1
 0 -90 l 1
 118.830078125 85 l 1
 123.151367188 545.083984375 l 1
 10 543.080078125 l 1
 13.6201171875 731.010742188 l 1
 344.729492188 731.010742188 l 1
EndSplineSet
Substitution2: "'ss12' Style Set 12 lookup 20-1" J.ss12
EndChar

StartChar: H
Encoding: 40 72 47
Width: 780
Flags: W
HStem: 0 21G<118.83 350.159 518.83 750.159> 235 187<377.455 604> 246 172<252 474.545> 545.084 185.927<13.6201 123.151 418.62 523.151>
VStem: 118.83 231.329<0 246 418 545.084> 248 102.159<246 418> 518.83 231.329<0 235 422 545.084>
LayerCount: 2
Back
SplineSet
252 393 m 1xb6
 608 397 l 1
 604 285 l 1xd6
 248 296 l 1
 252 393 l 1xb6
704.729492188 731.010742188 m 1
 710.159179688 0 l 1
 573.830078125 0 l 1
 578.151367188 620.083984375 l 1
 440 618.080078125 l 5
 443.620117188 731.010742188 l 5
 704.729492188 731.010742188 l 1
294.729492188 731.010742188 m 1
 300.159179688 0 l 1
 163.830078125 0 l 1x9a
 168.151367188 620.083984375 l 1
 30 618.080078125 l 5
 33.6201171875 731.010742188 l 5
 294.729492188 731.010742188 l 1
EndSplineSet
Fore
SplineSet
252 418 m 1xb6
 608 422 l 1
 604 235 l 1xd6
 248 246 l 1
 252 418 l 1xb6
744.729492188 731.010742188 m 1
 750.159179688 0 l 1
 518.830078125 0 l 1
 523.151367188 545.083984375 l 1
 415 543.080078125 l 1
 418.620117188 731.010742188 l 1
 744.729492188 731.010742188 l 1
344.729492188 731.010742188 m 1
 350.159179688 0 l 1
 118.830078125 0 l 1x9a
 123.151367188 545.083984375 l 1
 10 543.080078125 l 1
 13.6201171875 731.010742188 l 1
 344.729492188 731.010742188 l 1
EndSplineSet
EndChar

StartChar: backslash
Encoding: 60 92 48
Width: 507
Flags: W
LayerCount: 2
Back
SplineSet
506 -123.994140625 m 1
 317 -175.994140625 l 1
 178.016601562 331 l 1
 1 763.001953125 l 1
 190 815.001953125 l 1
 308.362304688 379 l 1
 506 -123.994140625 l 1
EndSplineSet
Fore
SplineSet
506 -118.994140625 m 1
 317 -180.994140625 l 1
 1 758.001953125 l 1
 190 820.001953125 l 1
 506 -118.994140625 l 1
EndSplineSet
EndChar

StartChar: F
Encoding: 38 70 49
Width: 620
Flags: W
HStem: 0 21G<113.83 345.159> 240 172<327.455 554> 251 157<202 424.545> 543.08 187.931<13.6201 118.151 341.104 598.729>
VStem: 198 147.159<251 408>
LayerCount: 2
Fore
SplineSet
202 408 m 1xb8
 558 412 l 1
 554 240 l 1xd8
 198 251 l 1
 202 408 l 1xb8
598.729492188 731.010742188 m 1
 604.61328125 539 l 1
 341.103515625 543 l 1
 345.159179688 0 l 1
 113.830078125 0 l 1
 118.151367188 545.083984375 l 1
 10 543.080078125 l 1
 13.6201171875 731.010742188 l 1
 598.729492188 731.010742188 l 1
EndSplineSet
EndChar

StartChar: E
Encoding: 37 69 50
Width: 620
Flags: W
HStem: 0 186.481<344.017 606.539> 278 172<327.455 554> 289 157<202 424.545> 543.08 187.931<13.6201 118.151 341.104 598.729>
VStem: 198 146.017<289 446>
LayerCount: 2
Fore
SplineSet
202 446 m 1xb8
 558 450 l 1
 554 278 l 1xd8
 198 289 l 1
 202 446 l 1xb8
598.729492188 731.010742188 m 1
 604.61328125 539 l 1
 341.103515625 543 l 1
 344.017416519 186.480670331 l 1
 354.06462409 186.292850645 l 1
 610.159179688 187.930664062 l 1
 606.5390625 0 l 1
 113.4296875 0 l 1
 118.151367188 545.083984375 l 1
 10 543.080078125 l 1
 13.6201171875 731.010742188 l 1
 598.729492188 731.010742188 l 1
EndSplineSet
Substitution2: "'ss15' Style Set 15 lookup 23-1" E.ss15
EndChar

StartChar: N
Encoding: 46 78 51
Width: 795
Flags: W
HStem: -10 21G<541.613 765.539> 0 21G<120.21 341.539> 711.011 20G<551.774 760.258>
VStem: 120.21 221.329<0 331.793> 548.151 211.958<389.889 731.011>
LayerCount: 2
Fore
SplineSet
760.109375 731.010742188 m 1x78
 765.5390625 0 l 1x78
 554.209960938 -10 l 1xb8
 338.92578125 331.79296875 l 1
 341.5390625 0 l 1
 120.209960938 0 l 1
 124.53125 549.083984375 l 1
 14.3798828125 543.080078125 l 1
 10 731.010742188 l 1
 351.109375 741.010742188 l 1
 548.151367188 389.888671875 l 1
 552 731.010742188 l 1
 760.109375 731.010742188 l 1x78
EndSplineSet
EndChar

StartChar: bar
Encoding: 92 124 52
Width: 256
Flags: W
VStem: 30 196.329<-170 788.992>
LayerCount: 2
Back
SplineSet
220.899414062 788.9921875 m 1
 193.418945312 334 l 1
 226.329101562 -170 l 1
 30 -170 l 1
 63.3330078125 338 l 1
 36.169921875 788.9921875 l 1
 220.899414062 788.9921875 l 1
EndSplineSet
Fore
SplineSet
220.899414062 788.9921875 m 1
 226.329101562 -170 l 1
 30 -170 l 1
 36.169921875 788.9921875 l 1
 220.899414062 788.9921875 l 1
EndSplineSet
EndChar

StartChar: U
Encoding: 53 85 53
Width: 767
Flags: W
HStem: -10 202<368.435 487.955> 545.084 185.927<13.6201 130.151 407.62 509.151>
VStem: 118.517 223.643<217.565 637.873> 515.83 221.812<219.863 543.338>
LayerCount: 2
Fore
SplineSet
737.641601562 270.946289062 m 0
 737.641601562 85.0810974474 620.267578125 -10 423.830078125 -10 c 0
 224.850320624 -10 118.516601562 84.5172625506 118.516601562 290.099609375 c 0
 118.516601562 389.636117311 130.151367188 545.083984375 130.151367188 545.083984375 c 1
 10 543.080078125 l 1
 13.6201171875 731.010742188 l 1
 348.229492188 731.010742188 l 1
 348.229492188 731.010742188 342.159179688 407.19348401 342.159179688 294 c 0
 342.159179688 233.246901292 364.312436107 192 427.5 192 c 0
 489.087346158 192 515.830078125 229.084378757 515.830078125 294 c 0
 515.830078125 391.058396337 509.151367188 545.083984375 509.151367188 545.083984375 c 1
 404 543.080078125 l 1
 407.620117188 731.010742188 l 1
 724.729492188 731.010742188 l 1
 724.729492188 731.010742188 737.641601562 450.456085293 737.641601562 270.946289062 c 0
EndSplineSet
EndChar

StartChar: A
Encoding: 33 65 54
Width: 690
Flags: W
HStem: 118 172<287.455 514> 129 157<162 384.545> 514.069 206.931<35.8193 172.508> 711 20G<31.4395 465.11>
LayerCount: 2
Fore
SplineSet
162 286 m 1x40
 518 290 l 1
 514 118 l 1x80
 158 129 l 1
 162 286 l 1x40
172.5078125 519.112304688 m 1
 35.8193359375 514.069335938 l 1
 31.439453125 721 l 1x20
 458.548828125 731 l 1x10
 693.450195312 14.9111328125 l 1
 467.176757812 -15 l 1
 346.818359375 466.8671875 l 1
 219.819335938 -15 l 1
 -4.7265625 19 l 1
 172.5078125 519.112304688 l 1
EndSplineSet
Substitution2: "'fina' Terminal Forms lookup 25-1" A.fina
Substitution2: "'init' Initial Forms lookup 24-1" A.init
Substitution2: "'ss14' Style Set 14 lookup 22-1" A.ss14
EndChar

StartChar: B
Encoding: 34 66 55
Width: 749
Flags: W
HStem: -10.0664 179<342.746 481.05> 294.492 143.441<343.853 457.085> 550.992 188<345.927 455.335> 550.992 38.2578<182.282 340.67>
VStem: 118 224.714<172.246 284.934 443.877 589.25> 471.417 218.5<454.448 534.868> 502.917 227<189.81 272.934>
LayerCount: 2
Fore
SplineSet
285.196289062 443.876953125 m 1xda
 285.196289062 443.876953125 313.80872527 437.93359375 385.416992188 437.93359375 c 0
 445.906738281 437.93359375 471.416992188 462.031316208 471.416992188 493.93359375 c 0
 471.416992188 531.164713003 441.650884271 550.9921875 378.416992188 550.9921875 c 0
 182.281733805 550.9921875 39.26953125 476.427734375 39.26953125 476.427734375 c 1
 -2 664.840820312 l 1
 -2 664.840820312 113.998046875 738.9921875 386.916992188 738.9921875 c 0
 572.083771064 738.9921875 689.916992188 654.581054688 689.916992188 521.93359375 c 0xec
 689.916992188 409.500053058 596.275390625 379.96875 596.275390625 379.96875 c 1
 596.275390625 379.96875 729.916992188 350.306637784 729.916992188 196.9921875 c 0
 729.916992188 70.4560546875 612.083771064 -10.06640625 426.916992188 -10.06640625 c 0
 210.137695312 -10.06640625 118 24.0849609375 118 24.0849609375 c 1
 123.940429688 589.25 l 1
 340.669921875 589.25 l 1
 342.713867188 172.24609375 l 1
 342.713867188 172.24609375 356.275443778 168.93359375 400.916992188 168.93359375 c 0
 469.432416398 168.93359375 502.916992188 191.757634204 502.916992188 231.9921875 c 0
 502.916992188 266.3671875 476.489444862 294.4921875 399.5 294.4921875 c 0
 316.319294635 294.4921875 285.2578125 284.93359375 285.2578125 284.93359375 c 1
 285.196289062 443.876953125 l 1xda
EndSplineSet
EndChar

StartChar: C
Encoding: 35 67 56
Width: 651
Flags: W
HStem: -10.0664 219<341.143 543.757> 520.992 218<345.393 527.429>
VStem: 20 252<278.083 446.43>
LayerCount: 2
Fore
SplineSet
20 361.93359375 m 0
 20 592.358449127 166.61095194 738.9921875 397 738.9921875 c 0
 571.675165443 738.9921875 645.916992188 662.840820312 645.916992188 662.840820312 c 1
 584.647460938 462.427734375 l 1
 584.647460938 462.427734375 526.075837018 520.9921875 435 520.9921875 c 0
 335.388279006 520.9921875 272 459.136957346 272 361.93359375 c 0
 272 268.433261718 324.779492187 208.93359375 428 208.93359375 c 0
 548.24403759 208.93359375 609.1484375 267.364257812 609.1484375 267.364257812 c 1
 661.146484375 52.31640625 l 1
 661.146484375 52.31640625 594.321700857 -10.06640625 387 -10.06640625 c 0
 162.722067273 -10.06640625 20 134.599173678 20 361.93359375 c 0
EndSplineSet
EndChar

StartChar: D
Encoding: 36 68 57
Width: 783
Flags: W
HStem: -10.0664 212<347.02 468.676> 524.992 214<347.665 462.397> 524.992 74.2578<170.25 340.67>
VStem: 123.94 216.729<203.847 599.25> 533.917 230<269.722 454.032>
LayerCount: 2
Fore
SplineSet
763.916992188 361.93359375 m 0xd8
 763.916992188 134.599609375 621.195104604 -10.06640625 396.916992188 -10.06640625 c 0
 185.814453125 -10.06640625 117.770507812 37.31640625 117.770507812 37.31640625 c 1
 123.940429688 599.25 l 1
 340.669921875 599.25 l 1xb8
 344.002929688 203.846679688 l 1
 344.002929688 203.846679688 362.20432421 201.93359375 385.916992188 201.93359375 c 0
 483.8442321 201.93359375 533.916992188 264.155022322 533.916992188 361.93359375 c 0
 533.916992188 461.581307081 481.392370975 524.9921875 373.916992188 524.9921875 c 0
 170.25 524.9921875 39.26953125 456.427734375 39.26953125 456.427734375 c 1
 -2 664.840820312 l 1
 -2 664.840820312 113.998046875 738.9921875 386.916992188 738.9921875 c 0
 617.306438394 738.9921875 763.916992188 592.358398438 763.916992188 361.93359375 c 0xd8
EndSplineSet
EndChar

StartChar: P
Encoding: 48 80 58
Width: 731
Flags: W
HStem: 0 21G<117.771 344.003> 174.934 185<345.408 458.89> 527.992 211<341.913 457.266> 527.992 71.2578<197.355 340.67>
VStem: 117.771 226.232<0 219.434 390.877 599.25> 487.917 224<386.876 500.041>
LayerCount: 2
Fore
SplineSet
344.002929688 0 m 1xdc
 117.770507812 0 l 1
 123.940429688 599.25 l 1
 340.669921875 599.25 l 1
 344.002929688 0 l 1xdc
284.196289062 390.876953125 m 1
 284.196289062 390.876953125 314.221799063 359.93359375 391.916992188 359.93359375 c 0
 454.838277565 359.93359375 487.916992188 392.054064163 487.916992188 443.93359375 c 0
 487.916992188 500.218186425 452.700489075 527.9921875 374.916992188 527.9921875 c 0
 197.354932173 527.9921875 39.26953125 456.427734375 39.26953125 456.427734375 c 1
 -2 664.840820312 l 1
 -2 664.840820312 115.489342566 738.9921875 391.916992188 738.9921875 c 0xec
 589.334650918 738.9921875 711.916992188 629.76088854 711.916992188 438.93359375 c 0
 711.916992188 278.821289062 604.894549005 174.93359375 431.916992188 174.93359375 c 0
 321.649600308 174.93359375 255.2578125 219.43359375 255.2578125 219.43359375 c 1
 284.196289062 390.876953125 l 1
EndSplineSet
EndChar

StartChar: M
Encoding: 45 77 59
Width: 882
VWidth: 1111
Flags: W
LayerCount: 2
Back
SplineSet
198.817382812 545.212890625 m 1
 93 539.080078125 l 1
 88.6201171875 731.010742188 l 1
 430.729492188 741.010742188 l 1
 483 547 l 1
 552 740 l 1
 766 731 l 1
 825 5 l 1
 613 -9 l 1
 584 361 l 5
 486 160 l 5
 390 352 l 5
 356 -6 l 1
 155 9 l 1
 198.817382812 545.212890625 l 1
EndSplineSet
Fore
SplineSet
123.817432294 530.212921297 m 1
 13 524.080078125 l 1
 8.6201171875 731.010742188 l 1
 375.729492188 741.010742188 l 1
 477 517 l 1
 595 740 l 1
 829 731 l 1
 888 5 l 1
 651 -9 l 1
 622 376 l 1
 470 135 l 1
 330 367 l 1
 296 -6 l 1
 80 9 l 1
 123.817432294 530.212921297 l 1
EndSplineSet
Substitution2: "'fina' Terminal Forms lookup 25-1" M.fina
Substitution2: "'init' Initial Forms lookup 24-1" M.init
EndChar

StartChar: G
Encoding: 39 71 60
Width: 794
Flags: W
HStem: -10.0664 222<335.999 490.61> 520.992 218<344.255 537.921>
VStem: 20 252<278.057 447.113>
LayerCount: 2
Fore
SplineSet
498.987304688 399.25 m 1
 780.096679688 399.25 l 1
 783.716796875 221.319335938 l 1
 705.565429688 223.323242188 l 1
 709.88671875 -87.7607421875 l 1
 493.557617188 -87.7607421875 l 1
 498.987304688 399.25 l 1
20 361.93359375 m 0
 20 592.358449127 166.61095194 738.9921875 397 738.9921875 c 0
 585.709977925 738.9921875 665.916992188 662.840820312 665.916992188 662.840820312 c 1
 604.647460938 462.427734375 l 1
 604.647460938 462.427734375 536.290902555 520.9921875 430 520.9921875 c 0
 333.443853269 520.9921875 272 460.303607233 272 364.93359375 c 0
 272 271.433261718 323.087841797 211.93359375 423 211.93359375 c 0
 529.968290998 211.93359375 584.1484375 283.364257812 584.1484375 283.364257812 c 1
 651.146484375 152.31640625 l 1
 651.146484375 152.31640625 581.884143298 -10.06640625 367 -10.06640625 c 0
 154.944297939 -10.06640625 20 134.599173678 20 361.93359375 c 0
EndSplineSet
Substitution2: "'ss11' Style Set 11 lookup 19-1" G.ss11
EndChar

StartChar: T
Encoding: 52 84 61
Width: 590
Flags: W
HStem: 0 21G<174.33 405.659> 543 25<178.651 401.604> 543.08 187.931<13.6201 178.651 401.604 568.729>
VStem: 174.33 231.329<0 568>
LayerCount: 2
Fore
SplineSet
401.603515625 568 m 1xd0
 405.659179688 0 l 1
 174.330078125 0 l 1
 178.651367188 570.083984375 l 1
 401.603515625 568 l 1xd0
292.103515625 543 m 1
 10 543.080078125 l 1
 13.6201171875 731.010742188 l 1
 568.729492188 731.010742188 l 1xb0
 574.61328125 539 l 1
 292.103515625 543 l 1
EndSplineSet
EndChar

StartChar: V
Encoding: 54 86 62
Width: 774
Flags: W
HStem: 0 21G<298.111 530.878>
LayerCount: 2
Fore
SplineSet
523.607421875 0 m 1
 304.174804688 0 l 1
 140.151367188 541 l 1
 17.0458984375 533 l 1
 10 732 l 1
 313.546875 746 l 1
 428.905273438 299.1328125 l 1
 550.904296875 746 l 1
 782.450195312 712 l 1
 523.607421875 0 l 1
EndSplineSet
Substitution2: "'fina' Terminal Forms lookup 25-1" V.fina
Substitution2: "'init' Initial Forms lookup 24-1" V.init
EndChar

StartChar: W
Encoding: 55 87 63
Width: 1134
Flags: W
HStem: 0 21G<279.813 521.665 687.192 929.842> 716 20G<906.352 1047.11>
LayerCount: 2
Fore
SplineSet
514.607421875 0 m 1
 285.174804688 0 l 1
 140.151367188 541 l 1
 17.0458984375 533 l 1
 10 732 l 1
 313.546875 746 l 1
 419.905273438 279.1328125 l 1
 538.904296875 759 l 1
 770.450195312 725 l 1
 514.607421875 0 l 1
923.607421875 0 m 1
 694.174804688 0 l 1
 543 433 l 1
 691.395507812 623 l 1
 806.905273438 279.1328125 l 1
 910.904296875 736 l 1
 1142.45019531 702 l 1
 923.607421875 0 l 1
EndSplineSet
Substitution2: "'fina' Terminal Forms lookup 25-1" W.fina
Substitution2: "'init' Initial Forms lookup 24-1" W.init
EndChar

StartChar: Q
Encoding: 49 81 64
Width: 785
Flags: W
HStem: -10.0664 221.351<314.841 463.189> 517.583 221.351<316.189 461.722>
VStem: 20 234.487<277.075 453.558> 530.513 234.487<278.574 447.153>
LayerCount: 2
Fore
SplineSet
107.5 189 m 1
 821.5 31 l 1
 770 -179 l 1
 64 24 l 1
 107.5 189 l 1
EndSplineSet
Refer: 43 79 N 1 0 0 1 0 0 2
Substitution2: "'ss10' Style Set 10 lookup 18-1" Q.ss10
EndChar

StartChar: underscore
Encoding: 63 95 65
Width: 580
Flags: W
HStem: -168 172<212.182 566> -157 157<14 363.818>
LayerCount: 2
Fore
SplineSet
14 0 m 1x40
 570 4 l 1
 566 -168 l 1x80
 10 -157 l 1
 14 0 l 1x40
EndSplineSet
EndChar

StartChar: R
Encoding: 50 82 66
Width: 734
Flags: W
HStem: 0 21G<117.771 344.003> 532.992 206<347.298 450.884> 532.992 66.2578<226 340.67>
VStem: 117.771 226.232<0 259.434 396.877 599.25> 479.917 224<402.548 507.168>
LayerCount: 2
Back
SplineSet
289.002929688 0 m 5xb8
 157.770507812 0 l 5
 163.940429688 669.25 l 1
 285.669921875 669.25 l 1
 289.002929688 0 l 5xb8
274.196289062 355.876953125 m 1
 274.196289062 355.876953125 298.311785784 334.93359375 373.916992188 334.93359375 c 0
 487.119605202 334.93359375 551.916992188 395.921142577 551.916992188 475.93359375 c 0
 551.916992188 563.722489841 489.063645233 617.9921875 353 617.9921875 c 0
 219.214256452 617.9921875 49.26953125 556.427734375 49.26953125 556.427734375 c 1
 18 674.840820312 l 1
 18 674.840820312 122.067681352 738.9921875 366.916992188 738.9921875 c 0xd8
 557.583984375 738.9921875 678.916992188 638.247073955 678.916992188 479.93359375 c 0
 678.916992188 277.943443494 474.740234375 245.040039062 474.740234375 245.040039062 c 1
 701.770507812 69 l 1
 625.770507812 -37 l 1
 235.2578125 285.43359375 l 1
 274.196289062 355.876953125 l 1
EndSplineSet
Fore
SplineSet
344.002929688 0 m 1xb8
 117.770507812 0 l 1
 123.940429688 599.25 l 1
 340.669921875 599.25 l 1
 344.002929688 0 l 1xb8
284.196289062 396.876953125 m 1
 284.196289062 396.876953125 309.03727696 375.93359375 386.916992188 375.93359375 c 0
 446.062177638 375.93359375 479.916992188 409.455118814 479.916992188 453.43359375 c 0
 479.916992188 502.598948238 446.133599772 532.9921875 373 532.9921875 c 0
 226 532.9921875 39.26953125 456.427734375 39.26953125 456.427734375 c 1
 -2 664.840820312 l 1
 -2 664.840820312 113.998046875 738.9921875 386.916992188 738.9921875 c 0xd8
 580.639545147 738.9921875 703.916992188 637.274850721 703.916992188 477.43359375 c 0
 703.916992188 359.121947443 632.914422442 303.938985257 587.467639704 279.999999924 c 0
 568.348477665 269.929084318 554.740234375 266.040039062 554.740234375 266.040039062 c 1
 726.770507812 155 l 1
 595.770507812 -37 l 1
 235.2578125 259.43359375 l 1
 284.196289062 396.876953125 l 1
EndSplineSet
EndChar

StartChar: five
Encoding: 21 53 67
Width: 581
Flags: W
HStem: -10.0664 189<103.48 302.79> 317.992 161.008<202.563 410.617> 540 191.008<249 519.017>
VStem: 325.917 234<199.342 297.178>
LayerCount: 2
Back
SplineSet
529.016601562 549.0078125 m 5
 239 550 l 29
 224 471 l 21
 224 471 248.642857143 479 316 479 c 4
 492.46964774 479 559.916992188 386.635747331 559.916992188 246.9921875 c 4
 559.916992188 68.1744133844 445.97265625 -10.06640625 266.916992188 -10.06640625 c 4
 85.2246769868 -10.06640625 8 44.0849609375 8 44.0849609375 c 5
 50 207 l 5
 50 207 126.85984585 163.93359375 233.916992188 163.93359375 c 4
 305.791015625 163.93359375 340.916992188 195.456256431 340.916992188 244.9921875 c 4
 340.916992188 289.603298611 303.700683594 317.9921875 230.916992188 317.9921875 c 4
 164.966339317 317.9921875 125.2578125 288.43359375 125.2578125 288.43359375 c 5
 19 392 l 5
 80 731.0078125 l 5
 365 731.0078125 l 5
 362 798.0078125 l 5
 515.016601562 800.0078125 l 5
 529.016601562 549.0078125 l 5
EndSplineSet
Fore
SplineSet
519.016601562 539.0078125 m 1
 249 540 l 1
 234 461 l 1
 234 461 258.642857144 479 326 479 c 0
 495.23482387 479 559.916992188 386.635747331 559.916992188 246.9921875 c 0
 559.916992188 68.1744133844 445.97265625 -10.06640625 266.916992188 -10.06640625 c 0
 85.2246769868 -10.06640625 8 44.0849609375 8 44.0849609375 c 1
 50 222 l 1
 50 222 126.85984585 178.93359375 233.916992188 178.93359375 c 0
 295.715217946 178.93359375 325.916992188 206.567382812 325.916992188 249.9921875 c 0
 325.916992188 291.547743056 294.283129883 317.9921875 232.416992188 317.9921875 c 0
 172.708168287 317.9921875 136.7578125 288.43359375 136.7578125 288.43359375 c 1
 19 382 l 1
 80 731.0078125 l 1
 519.016601562 731.0078125 l 1
 519.016601562 539.0078125 l 1
EndSplineSet
Substitution2: "'onum' Oldstyle Figures lookup 27-1" five.osf
Substitution2: "'ss02' Style Set 2 lookup 10-1" five.ss02
Substitution2: "'frac' Diagonal Fractions in Latin lookup 26 subtable" five.numr
Substitution2: "'dnom' Denominators lookup 0 subtable" five.dnom
Substitution2: "'numr' Numerators lookup 0 subtable" five.numr
Substitution2: "'sinf' Scientific Inferiors lookup 0 subtable" five.inferior
Substitution2: "'sups' Superscript lookup 0 subtable" five.superior
EndChar

StartChar: Z
Encoding: 58 90 68
Width: 601
Flags: W
HStem: 0 209<317.169 571.017> 517.008 214<30 273.848>
LayerCount: 2
Fore
SplineSet
20 517.0078125 m 1
 30 731.0078125 l 1
 559.016601562 731.0078125 l 1
 589.016601562 558.0078125 l 1
 317.168945312 209 l 1
 581.016601562 215 l 1
 571.016601562 0 l 1
 42 0 l 1
 12 173 l 1
 273.84765625 523.0078125 l 1
 20 517.0078125 l 1
EndSplineSet
EndChar

StartChar: Y
Encoding: 57 89 69
Width: 749
Flags: W
HStem: 0 21G<287.33 524.659> 520.5 21G<25.354 147.151>
VStem: 287.33 237.329<0 255.155>
LayerCount: 2
Fore
SplineSet
291.123046875 255.155273438 m 1
 147.151367188 536 l 1
 27.0458984375 520.5 l 1
 10 722 l 1
 308.546875 746 l 1
 415.905273438 474.1328125 l 1
 525.904296875 746 l 1
 757.450195312 677 l 1
 521.234375 261.650390625 l 1
 524.659179688 0 l 1
 287.330078125 0 l 1
 291.123046875 255.155273438 l 1
EndSplineSet
Substitution2: "'ss13' Style Set 13 lookup 21-1" Y.ss13
EndChar

StartChar: X
Encoding: 56 88 70
Width: 776
Flags: W
LayerCount: 2
Fore
SplineSet
297 745.0078125 m 1
 536 364 l 1
 277 -27 l 1
 68 108 l 1
 284 364 l 1
 174 511.0078125 l 1
 44 476.93359375 l 1
 -2 671 l 1
 297 745.0078125 l 1
562 745.0078125 m 1
 766 621.0078125 l 1
 565 364 l 1
 781 108 l 1
 572 -27 l 1
 313 364 l 1
 562 745.0078125 l 1
EndSplineSet
EndChar

StartChar: comma
Encoding: 12 44 71
Width: 280
Flags: W
VStem: -31 307
LayerCount: 2
Fore
SplineSet
81 211.5 m 25
 276 103.5 l 25
 96 -140.5 l 25
 -31 -71.5 l 25
 81 211.5 l 25
EndSplineSet
EndChar

StartChar: nine
Encoding: 25 57 73
Width: 619
Flags: W
HStem: 253.266 159.718<171.576 354.842> 557.134 181.858<254.793 352.512>
VStem: 20 214.691<430.041 539.148> 370.941 228.375<316.25 537.89>
LayerCount: 2
Fore
SplineSet
121.005859375 -20 m 1
 97.31640625 172.458984375 l 1
 338.654057911 194.84765625 357.858398438 275.059570312 357.858398438 275.059570312 c 1
 357.858398438 275.059570312 326.036223097 253.265625 239.715820312 253.265625 c 0
 103.436230336 253.265625 20 342.999397256 20 478.743164062 c 0
 20 626.022945704 98.7890625 738.9921875 303.005859375 738.9921875 c 0
 480.452148438 738.9921875 599.31640625 646.598632812 599.31640625 422.643554688 c 0
 599.31640625 209.85546875 484.740234375 0.5283203125 121.005859375 -20 c 1
370.94140625 484.133789062 m 0
 370.94140625 528.745350231 344.633098636 557.133789062 303.291015625 557.133789062 c 0
 261.368854043 557.133789062 234.69140625 528.745350231 234.69140625 484.133789062 c 0
 234.69140625 440.652994791 261.368854043 412.983398438 303.291015625 412.983398438 c 0
 344.633098636 412.983398438 370.94140625 440.652994791 370.94140625 484.133789062 c 0
EndSplineSet
Substitution2: "'onum' Oldstyle Figures lookup 27-1" nine.osf
Substitution2: "'frac' Diagonal Fractions in Latin lookup 26 subtable" nine.numr
Substitution2: "'dnom' Denominators lookup 0 subtable" nine.dnom
Substitution2: "'numr' Numerators lookup 0 subtable" nine.numr
Substitution2: "'sinf' Scientific Inferiors lookup 0 subtable" nine.inferior
Substitution2: "'sups' Superscript lookup 0 subtable" nine.superior
EndChar

StartChar: at
Encoding: 32 64 74
Width: 925
Flags: W
HStem: -159.727 110.877<344.101 666.114> 48.4209 152.636<397.384 488.295> 48.4209 121.558<700.468 773.639> 342.86 150.646<397.384 488.295> 599.433 108.294<333.525 608.559>
VStem: 20 118<143.401 404.07> 207.529 172.595<216.367 327.771> 526.985 94.3086<127.216 383.729> 794.404 110.883<190.904 425.051>
LayerCount: 2
Back
SplineSet
365.124023438 363.1875 m 4
 365.124023438 312.997070312 392.912109375 281.056640625 436.578125 281.056640625 c 4
 480.749023438 281.056640625 508.856445312 312.997070312 508.856445312 363.1875 c 4
 508.856445312 411.876953125 480.749023438 442.860351562 436.578125 442.860351562 c 4
 392.912109375 442.860351562 365.124023438 411.876953125 365.124023438 363.1875 c 4
207.529296875 362.254882812 m 4
 207.529296875 497.463867188 289.260742188 583.505859375 417.694335938 583.505859375 c 4
 542.1171875 583.505859375 621.293945312 489.212890625 621.293945312 341.037109375 c 4
 621.293945312 217.215820312 542.1171875 138.420898438 417.694335938 138.420898438 c 4
 289.260742188 138.420898438 207.529296875 225.466796875 207.529296875 362.254882812 c 4
482.713867188 -69.7265625 m 4
 196.205078125 -69.7265625 20 94.120869497 20 358.08984375 c 4
 20 614.04161915 179.602962903 797.7265625 458.420898438 797.7265625 c 4
 719.309753403 797.7265625 905.287109375 654.481445312 905.287109375 383.712890625 c 4
 905.287109375 234.838867187 845.620117188 138.420898438 718.064453125 138.420898438 c 4
 609.642578125 138.420898438 536.985351562 205.224609375 536.985351562 370.025390625 c 4xbec0
 536.985351562 473.729492188 566.369140625 581.030273438 566.369140625 581.030273438 c 5
 721.677734375 569.944335938 l 5
 721.677734375 569.944335938 689.767578125 428.384765625 689.767578125 333.604492188 c 4
 689.767578125 282.138671875 704.185546875 254.978515625 740.811523438 254.978515625 c 4xbf40
 782.825195312 254.978515625 804.404296875 305.185546875 804.404296875 383.712890625 c 4
 804.404296875 614.064453125 662.40625 699.432617188 459.420898438 699.432617188 c 4
 248.553710938 699.432617188 128 560.595703125 128 361.93359375 c 4
 128 157.513671875 252.708984375 31.150390625 483.713867188 31.150390625 c 4
 665.813476562 31.150390625 793 94 793 94 c 5
 818.250976562 5.7744140625 l 5
 818.250976562 5.7744140625 708.095703125 -69.7265625 482.713867188 -69.7265625 c 4
EndSplineSet
Fore
SplineSet
380.124023438 273.1875 m 0xdf80
 380.124023438 229.108102154 404.023167337 201.056640625 441.578125 201.056640625 c 0
 479.637799734 201.056640625 503.856445312 229.108102154 503.856445312 273.1875 c 0
 503.856445312 315.765780728 479.637799734 342.860351562 441.578125 342.860351562 c 0
 404.023167337 342.860351562 380.124023438 315.765780728 380.124023438 273.1875 c 0xdf80
207.529296875 272.254882812 m 0
 207.529296875 407.463867188 289.260742188 493.505859375 417.694335938 493.505859375 c 0
 542.1171875 493.505859375 621.293945312 399.212890625 621.293945312 251.037109375 c 0
 621.293945312 127.215820312 542.1171875 48.4208984375 417.694335938 48.4208984375 c 0
 289.260742188 48.4208984375 207.529296875 135.466796875 207.529296875 272.254882812 c 0
482.713867188 -159.7265625 m 0
 196.205078125 -159.7265625 20 4.12109375 20 268.08984375 c 0
 20 524.041992188 179.602539062 707.7265625 458.420898438 707.7265625 c 0
 719.309570312 707.7265625 905.287109375 564.481445312 905.287109375 293.712890625 c 0
 905.287109375 144.838867188 845.620117188 48.4208984375 718.064453125 48.4208984375 c 0
 603.655035992 48.4208984375 526.985351562 115.224609375 526.985351562 280.025390625 c 0
 526.985351562 383.729492188 555.369140625 491.030273438 555.369140625 491.030273438 c 1
 712.677734375 481.944335938 l 1
 712.677734375 481.944335938 685.767578125 342.388044974 685.767578125 249.604492188 c 0
 685.767578125 198.138671875 704.185546875 169.978515625 740.811523438 169.978515625 c 0xbf80
 776.218521377 169.978515625 794.404296875 218.2355226 794.404296875 293.712890625 c 0
 794.404296875 516.768375525 656.522333484 599.432617188 459.420898438 599.432617188 c 0
 254.916230275 599.432617188 138 464.709401371 138 271.93359375 c 0
 138 73.6935479976 259.203105187 -48.849609375 483.713867188 -48.849609375 c 0
 662.869606953 -48.849609375 788 14 788 14 c 1
 818.250976562 -84.2255859375 l 1
 818.250976562 -84.2255859375 708.095703125 -159.7265625 482.713867188 -159.7265625 c 0
EndSplineSet
EndChar

StartChar: percent
Encoding: 5 37 75
Width: 899
Flags: W
HStem: -10 138.558<646.219 722.102> 232.225 138.654<646.219 722.102> 358.113 138.558<176.219 252.102> 600.338 138.654<176.219 252.102>
VStem: 19.5205 149.304<502.88 592.568> 259.784 149.336<505.343 592.568> 489.521 149.304<134.767 224.455> 729.784 149.336<137.23 224.455>
LayerCount: 2
Fore
SplineSet
638.82421875 181.256835938 m 0xdf
 638.82421875 149.051833052 656.398320786 128.557617188 684.015625 128.557617188 c 0
 711.985334438 128.557617188 729.784179688 149.051833052 729.784179688 181.256835938 c 0
 729.784179688 212.403958628 711.985334438 232.224609375 684.015625 232.224609375 c 0
 656.398320786 232.224609375 638.82421875 212.403958628 638.82421875 181.256835938 c 0xdf
489.520507812 181.399414062 m 0
 489.520507812 297.192737064 565.151113526 370.87890625 684 370.87890625 c 0
 803.240276768 370.87890625 879.120117188 297.192737064 879.120117188 181.399414062 c 0
 879.120117188 64.432905775 803.240276768 -10 684 -10 c 0
 565.151113526 -10 489.520507812 64.432905775 489.520507812 181.399414062 c 0
168.82421875 549.370117188 m 0
 168.82421875 517.165114302 186.398320786 496.670898438 214.015625 496.670898438 c 0xbf
 241.985334438 496.670898438 259.784179688 517.165114302 259.784179688 549.370117188 c 0
 259.784179688 580.517239879 241.985334438 600.337890625 214.015625 600.337890625 c 0
 186.398320786 600.337890625 168.82421875 580.517239879 168.82421875 549.370117188 c 0
19.5205078125 549.512695312 m 0
 19.5205078125 665.306018314 95.1511135263 738.9921875 214 738.9921875 c 0
 333.240276768 738.9921875 409.120117188 665.306018314 409.120117188 549.512695312 c 0
 409.120117188 432.546187025 333.240276768 358.11328125 214 358.11328125 c 0
 95.1511135263 358.11328125 19.5205078125 432.546187025 19.5205078125 549.512695312 c 0
EndSplineSet
Refer: 168 8260 N 1 0 0 1 309 0 2
EndChar

StartChar: ampersand
Encoding: 6 38 76
Width: 718
Flags: W
HStem: -9.99805 184.998<261.19 402.723>
VStem: 20 228<186.874 269.084> 38 221<463.986 542.434> 580.5 33<259 428> 587.5 19<259 428>
LayerCount: 2
Fore
SplineSet
698.5 432 m 1x88
 695.5 250 l 1
 580.5 259 l 1x90
 587.5 428 l 1
 698.5 432 l 1x88
360 745 m 1
 380 568 l 1
 312.041095891 563.192122923 259 549.194682571 259 504.472167969 c 0xa0
 259 469.224145598 287.451336192 449.138826213 357 444 c 1
 350 289 l 1
 284.615384616 284.633802817 248 273.281690141 248 227 c 0
 248 195.459016394 270.5 175 323 175 c 0
 379.983146068 175 403.5 192 403.5 192 c 1
 410.5 562 l 1
 606.5 552 l 1xc8
 613.5 46 l 1
 613.5 46 507.902821949 -9.998046875 320 -9.998046875 c 0
 145.084745763 -9.998046875 20 48.9660983365 20 201 c 0xd0
 20 336.196243274 158 374 158 374 c 1
 158 374 38 415.049946433 38 537 c 0xa0
 38 642 122.68501529 729 360 745 c 1
EndSplineSet
Substitution2: "'ss18' Style Set 18 lookup 30-1" ampersand.ss18
Substitution2: "'ss09' Style Set 9 lookup 17-1" ampersand.ss09
EndChar

StartChar: two
Encoding: 18 50 77
Width: 595
Flags: W
HStem: 0 201<352.152 565> 536 203<136.888 288.947>
VStem: 314.364 240.6<388.552 508.034>
LayerCount: 2
Fore
SplineSet
352.15234375 201 m 1
 575 207 l 1
 565 0 l 1
 29.9833984375 0 l 1
 19.9833984375 165 l 1
 19.9833984375 165 314.364257812 294.781631019 314.364257812 444 c 0
 314.364257812 505.918198529 280.693304747 536 223.955078125 536 c 0
 137.888709207 536 86.4638671875 477 86.4638671875 477 c 1
 16.5634765625 663 l 1
 16.5634765625 663 111.962992259 739 272.03125 739 c 0
 454.892314605 739 554.963867188 646.292324216 554.963867188 498.93359375 c 0
 554.963867188 294.482152291 352.15234375 201 352.15234375 201 c 1
EndSplineSet
Substitution2: "'onum' Oldstyle Figures lookup 27-1" two.osf
Substitution2: "'frac' Diagonal Fractions in Latin lookup 26 subtable" two.numr
Substitution2: "'dnom' Denominators lookup 0 subtable" two.dnom
Substitution2: "'numr' Numerators lookup 0 subtable" two.numr
Substitution2: "'sinf' Scientific Inferiors lookup 0 subtable" two.inferior
Substitution2: "'sups' Superscript lookup 0 subtable" two.superior
EndChar

StartChar: three.ss01
Encoding: 736 -1 78
Width: 579
Flags: W
HStem: -10.0664 189<98.0262 308.677> 292.992 159.941<145.272 293.836> 506.428 21G<57.8888 62.2695> 550.992 188<109.638 291.929>
VStem: 302.917 238<464.959 603.146> 325.917 234<133.467 278.347>
LayerCount: 2
Fore
SplineSet
50 219 m 1xf4
 50 219 126.85984585 178.93359375 233.916992188 178.93359375 c 0
 295.715217946 178.93359375 325.916992188 202.678509193 325.916992188 239.9921875 c 0xf4
 325.916992188 272.381076389 298.475548377 292.9921875 236.916992188 292.9921875 c 0
 164.724609375 292.9921875 145.2578125 286.43359375 145.2578125 286.43359375 c 1
 145.196289062 456.876953125 l 1
 145.196289062 456.876953125 163.407226562 452.93359375 222.916992188 452.93359375 c 0
 279.750873766 452.93359375 302.916992188 471.324288505 302.916992188 498.93359375 c 0
 302.916992188 531.260089752 278.026367188 550.9921875 221.916992188 550.9921875 c 0
 125.625976562 550.9921875 62.26953125 506.427734375 62.26953125 506.427734375 c 1
 21 694.840820312 l 1
 21 694.840820312 92.2587890625 738.9921875 259.916992188 738.9921875 c 0
 434.083984375 738.9921875 540.916992188 663.358398438 540.916992188 542.93359375 c 0xf8
 540.916992188 418.620117188 426.275390625 384.96875 426.275390625 384.96875 c 1
 426.275390625 384.96875 559.916992188 354.49609375 559.916992188 196.9921875 c 0
 559.916992188 70.4560546875 445.97265625 -10.06640625 266.916992188 -10.06640625 c 0
 85.2246769868 -10.06640625 8 34.0849609375 8 34.0849609375 c 1
 50 219 l 1xf4
EndSplineSet
Substitution2: "'dnom' Denominators lookup 0 subtable" three.ss01.dnom
Substitution2: "'numr' Numerators lookup 0 subtable" three.ss01.numr
Substitution2: "'subs' Subscript lookup 0 subtable" three.ss01.subscript
Substitution2: "'sinf' Scientific Inferiors lookup 0 subtable" three.ss01.inferior
Substitution2: "'sups' Superscript lookup 0 subtable" three.ss01.superior
EndChar

StartChar: four
Encoding: 20 52 79
Width: 709
Flags: W
HStem: 0 21G<362 585.329> 144.68 198.28<267.72 679.76> 152.12 185.96<267.72 642.527>
LayerCount: 2
Fore
SplineSet
579.899414062 576.93359375 m 1x80
 585.329101562 0 l 1
 362 0 l 1
 368.169921875 576.93359375 l 1
 579.899414062 576.93359375 l 1x80
298.559570312 752.280273438 m 1
 475.759765625 649.400390625 l 1
 267.719726562 338.080078125 l 1xa0
 685.639648438 342.959960938 l 1
 679.759765625 144.6796875 l 1xc0
 50.759765625 152.120117188 l 1xa0
 13.5595703125 293.360351562 l 1
 298.559570312 752.280273438 l 1
EndSplineSet
Substitution2: "'onum' Oldstyle Figures lookup 27-1" four.osf
Substitution2: "'frac' Diagonal Fractions in Latin lookup 26 subtable" four.numr
Substitution2: "'dnom' Denominators lookup 0 subtable" four.dnom
Substitution2: "'numr' Numerators lookup 0 subtable" four.numr
Substitution2: "'sinf' Scientific Inferiors lookup 0 subtable" four.inferior
Substitution2: "'sups' Superscript lookup 0 subtable" four.superior
EndChar

StartChar: seven
Encoding: 23 55 80
Width: 573
Flags: W
HStem: 529.713 201.295<214.5 328.348>
LayerCount: 2
Fore
SplineSet
7 429.0078125 m 1
 37 731.0078125 l 1
 532.016601562 731.0078125 l 1
 582.016601562 588.0078125 l 1
 353.5 -16 l 1
 125.5 48 l 1
 328.34765625 531.0078125 l 1
 214.5 529.712890625 l 1
 198.5 411 l 1
 7 429.0078125 l 1
EndSplineSet
Substitution2: "'onum' Oldstyle Figures lookup 27-1" seven.osf
Substitution2: "'frac' Diagonal Fractions in Latin lookup 26 subtable" seven.numr
Substitution2: "'dnom' Denominators lookup 0 subtable" seven.dnom
Substitution2: "'numr' Numerators lookup 0 subtable" seven.numr
Substitution2: "'sinf' Scientific Inferiors lookup 0 subtable" seven.inferior
Substitution2: "'sups' Superscript lookup 0 subtable" seven.superior
EndChar

StartChar: dollar
Encoding: 4 36 81
Width: 408
Flags: W
HStem: 0 21G<143 290> 719 20G<108 255>
LayerCount: 2
Fore
SplineSet
290 0 m 25
 143 0 l 25
 160 215 l 25
 271 215 l 25
 290 0 l 25
108 739 m 25
 255 739 l 25
 238 524 l 25
 127 524 l 25
 108 739 l 25
312.302734375 645.848632812 m 1
 336.232421875 503.830078125 l 1
 336.232421875 503.830078125 244.431640625 494.62109375 244.431640625 466.092773438 c 0
 244.431640625 450.689727638 264.193593192 445.063994639 307.732421875 422.459960938 c 0
 365.392119133 392.897067394 388.2890625 355.12392933 388.2890625 295.793945312 c 0
 388.2890625 107.013671875 68.0390625 87.0791015625 68.0390625 87.0791015625 c 1
 46.5693359375 236.671875 l 1
 46.5693359375 236.671875 172.4375 241.786132812 172.4375 287.923828125 c 0
 172.4375 306.712890625 152.392092539 315.301913942 112.036132812 331.897460938 c 0
 42.6534272714 360.268644088 20 400.168945312 20 456.14453125 c 0
 20 629.578125 312.302734375 645.848632812 312.302734375 645.848632812 c 1
EndSplineSet
EndChar

StartChar: quotesingle
Encoding: 7 39 82
Width: 266
Flags: W
HStem: 465 300<57 203>
VStem: 14 238
LayerCount: 2
Fore
SplineSet
14 765 m 1
 252 765 l 1
 203 465 l 1
 57 465 l 1
 14 765 l 1
EndSplineSet
EndChar

StartChar: quotedbl
Encoding: 2 34 83
Width: 482
VWidth: 1111
Flags: W
HStem: 453 315
LayerCount: 2
Fore
SplineSet
9 755 m 1
 211 768 l 1
 201 462 l 1
 66 453 l 1
 9 755 l 1
261 767 m 1
 467 751 l 1
 401 454 l 1
 259 460 l 1
 261 767 l 1
EndSplineSet
EndChar

StartChar: plus
Encoding: 11 43 84
Width: 450
Flags: W
HStem: 160.5 132.5<222 307.647> 288 164<21 256.667>
VStem: 149.5 155<296.971 547.25>
LayerCount: 2
Fore
SplineSet
312.5 569.5 m 1xa0
 304.5 391.5 l 1
 311.5 158.5 l 1
 132.5 160.5 l 1
 149.5 392.5 l 1
 141.5 572.5 l 1
 312.5 569.5 l 1xa0
21 452 m 1x60
 223 448 l 1
 432 455 l 1
 430 276 l 1
 222 293 l 1xa0
 18 288 l 1
 21 452 l 1x60
EndSplineSet
EndChar

StartChar: minus
Encoding: 719 8722 85
Width: 450
Flags: W
HStem: 281.5 176.5<169 421> 292.5 161.5<29 277>
LayerCount: 2
Fore
SplineSet
29 454 m 1x40
 425 458 l 1
 421 281.5 l 1x80
 25 292.5 l 1
 29 454 l 1x40
EndSplineSet
EndChar

StartChar: question
Encoding: 31 63 86
Width: 437
Flags: W
HStem: -10 230<74.2868 217.713> 264.635 189.839<65.021 186.792> 579 166.384<49.2075 138.402>
VStem: 31 230<33.2868 176.713> 198 219<468.339 542.595>
LayerCount: 2
Fore
SplineSet
20 579 m 1xe8
 50.490234375 745.383789062 l 1
 301.833984375 712.414266652 417 638.8046875 417 497.010742188 c 0
 417 395.624233704 343.069818714 350.201042461 285.438476562 331.552734375 c 0
 262.10300881 324.002181222 236.827148438 320 236.827148438 320 c 1
 226 253 l 1
 226 253 202.493150685 264.634765625 148 264.634765625 c 0
 93.7307692307 264.634765625 65 251 65 251 c 1
 53.4052734375 459 l 1
 53.4052734375 459 74.6642780101 454.473632812 117 454.473632812 c 0
 164.175824176 454.473632812 198 468.269559044 198 505 c 0
 198 547.351957775 157.574603303 563.158342634 20 579 c 1xe8
31 105 m 0xf0
 31 175.278231534 75.7217684659 220 146 220 c 0
 216.278231534 220 261 175.278231534 261 105 c 0
 261 34.7217684659 216.278231534 -10 146 -10 c 0
 75.7217684659 -10 31 34.7217684659 31 105 c 0xf0
EndSplineSet
EndChar

StartChar: parenleft
Encoding: 8 40 87
Width: 371
Flags: W
VStem: 20 221.137<116.161 478.583>
LayerCount: 2
Fore
SplineSet
241.13671875 300.836914062 m 0
 241.13671875 21.0000000001 370 -128.994140625 370 -128.994140625 c 1
 200 -198.994140625 l 1
 200 -198.994140625 20 -37 20 301.005859375 c 0
 20 613 200 791.001953125 200 791.001953125 c 1
 370 721.001953125 l 1
 370 721.001953125 241.13671875 577 241.13671875 300.836914062 c 0
EndSplineSet
EndChar

StartChar: parenright
Encoding: 9 41 88
Width: 371
Flags: W
VStem: 129.863 221.137<113.424 475.847>
LayerCount: 2
Fore
SplineSet
129.86328125 291.170898438 m 0
 129.86328125 571.0078125 1 721.001953125 1 721.001953125 c 1
 171 791.001953125 l 1
 171 791.001953125 351 629.0078125 351 291.001953125 c 0
 351 -20.9921875 171 -198.994140625 171 -198.994140625 c 1
 1 -128.994140625 l 1
 1 -128.994140625 129.86328125 15.0078125 129.86328125 291.170898438 c 0
EndSplineSet
EndChar

StartChar: bracketleft
Encoding: 59 91 89
Width: 394
Flags: W
HStem: -190 164<243.747 381.824> 616 175.011<240.672 372.395>
VStem: 30 213.747<-26 619>
LayerCount: 2
Fore
SplineSet
372.39453125 791.010742188 m 1
 378.665039062 616 l 1
 240.671875 619 l 1
 243.747070312 -26 l 1
 384.806640625 -22 l 1
 381.82421875 -190 l 1
 30 -190 l 1
 32.69140625 791.010742188 l 1
 372.39453125 791.010742188 l 1
EndSplineSet
EndChar

StartChar: bracketright
Encoding: 61 93 90
Width: 394
Flags: W
HStem: -190 168<12.9824 151.06> 616 175.011<22.4121 154.135>
VStem: 151.06 213.747<-26 619>
LayerCount: 2
Fore
SplineSet
22.412109375 791.010742188 m 1
 362.115234375 791.010742188 l 1
 364.806640625 -190 l 1
 12.982421875 -190 l 1
 10 -22 l 1
 151.059570312 -26 l 1
 154.134765625 619 l 1
 16.1416015625 616 l 1
 22.412109375 791.010742188 l 1
EndSplineSet
EndChar

StartChar: less
Encoding: 28 60 91
Width: 450
Flags: W
LayerCount: 2
Fore
SplineSet
299.37109375 341.5 m 1
 435.349609375 271 l 1
 365.349609375 117 l 1
 14.650390625 332 l 1
 365.349609375 566 l 1
 435.349609375 412 l 1
 299.37109375 341.5 l 1
EndSplineSet
EndChar

StartChar: greater
Encoding: 30 62 92
Width: 450
Flags: W
LayerCount: 2
Fore
SplineSet
150.62890625 341.5 m 1
 14.650390625 412 l 1
 84.650390625 566 l 1
 435.349609375 351 l 1
 84.650390625 117 l 1
 14.650390625 271 l 1
 150.62890625 341.5 l 1
EndSplineSet
EndChar

StartChar: asciicircum
Encoding: 62 94 93
Width: 392
Flags: W
LayerCount: 2
Fore
SplineSet
194 748 m 1
 397 512 l 1
 259 406 l 1
 195 525 l 1
 129 412 l 1
 -5 496 l 1
 194 748 l 1
EndSplineSet
EndChar

StartChar: asterisk
Encoding: 10 42 94
Width: 411
Flags: W
LayerCount: 2
Fore
SplineSet
130.357421875 765 m 1
 279.357421875 765 l 1
 270.916992188 641.037109375 l 1
 368.330078125 683.889648438 l 1
 410.1640625 557.8046875 l 1
 306.74609375 525.080078125 l 1
 387.087890625 430.75 l 1
 260.510742188 353.079101562 l 1
 206.842773438 461.931640625 l 1
 152.2734375 353.079101562 l 1
 26.6962890625 430.75 l 1
 107.038085938 525.080078125 l 1
 1 566.254882812 l 1
 48.8681640625 683.889648438 l 1
 142.868164062 641.037109375 l 1
 130.357421875 765 l 1
EndSplineSet
EndChar

StartChar: sterling
Encoding: 97 163 95
Width: 576
Flags: W
HStem: 0 186.293<274.064 556.539> 250 177<166.727 441> 261 162<14 284.273>
LayerCount: 2
Fore
SplineSet
14 423 m 1xa0
 445 427 l 1
 441 250 l 1xc0
 10 261 l 1
 14 423 l 1xa0
274.064453125 186.29296875 m 1
 560.159179688 187.930664062 l 1
 556.5390625 0 l 1
 23.4296875 0 l 1
 44.4187518606 452.125433501 135.496678414 623.005046291 421.930664062 747.6640625 c 1
 518.798828125 581.354492188 l 1
 363.88267649 515.230810546 291.402258098 398.229573963 274.064453125 186.29296875 c 1
EndSplineSet
EndChar

StartChar: braceleft
Encoding: 91 123 96
Width: 474
Flags: W
HStem: -199.681 162.12<225.235 445.138> 225.602 150.4<10.0328 138.283> 638.927 162.12<225.235 445.136>
VStem: 73.3398 220.227<-92.4478 55.5634 519.871 627.69> 142.296 200.451<121.811 220.973 379.513 472.148>
LayerCount: 2
Fore
SplineSet
296.986328125 801.046875 m 0xf0
 401.322686383 801.046875 462.4609375 773.2265625 462.4609375 773.2265625 c 1
 443.530273438 621.016601562 l 1
 443.530273438 621.016601562 411.31669498 638.926757812 365.157226562 638.926757812 c 0
 317.95390143 638.926757812 293.56640625 622.704188208 293.56640625 582 c 0xf0
 293.56640625 510.312443896 345.350585938 499.098485321 345.350585938 389.743164062 c 0
 345.350585938 320.680364452 279.905273438 296.681640625 279.905273438 296.681640625 c 1
 279.905273438 296.681640625 342.747070312 266.810162193 342.747070312 204.143554688 c 0xe8
 342.747070312 127.753321897 293.56640625 101.811778948 293.56640625 21 c 0
 293.56640625 -21.3371495863 318.239331666 -37.560546875 365.157226562 -37.560546875 c 0
 418.240980192 -37.560546875 443.530273438 -19.650390625 443.530273438 -19.650390625 c 1
 462.4609375 -171.860351562 l 1
 462.4609375 -171.860351562 401.322686383 -199.680664062 296.986328125 -199.680664062 c 0
 153.484375 -199.680664062 73.33984375 -145.895507812 73.33984375 -39 c 0xf0
 73.33984375 61.7178910109 142.295898438 108.361501732 142.295898438 183.765625 c 0
 142.295898438 213.299804688 123.784557308 225.6015625 93.7431640625 225.6015625 c 0
 51.3464752527 225.6015625 10 223.721679688 10 223.721679688 c 1
 10 380 l 1
 10 380 55.0248106136 376.001953125 98.982421875 376.001953125 c 0
 124.420788466 376.001953125 142.295898438 384.53125 142.295898438 408.12109375 c 0xe8
 142.295898438 473.645423736 73.33984375 502.206113338 73.33984375 622 c 0
 73.33984375 733.947265625 153.484375 801.046875 296.986328125 801.046875 c 0xf0
EndSplineSet
EndChar

StartChar: braceright
Encoding: 93 125 97
Width: 474
Flags: W
HStem: -199.681 162.12<28.8641 248.765> 225.364 150.4<335.717 463.967> 638.927 162.12<28.8616 248.765>
VStem: 128.649 203.055<129.218 221.853 380.393 474.014> 180.434 220.227<-26.324 81.4957 545.803 693.814>
LayerCount: 2
Fore
SplineSet
177.013671875 -199.680664062 m 0xe8
 72.677313617 -199.680664062 11.5390625 -171.860351562 11.5390625 -171.860351562 c 1
 30.4697265625 -19.650390625 l 1
 30.4697265625 -19.650390625 62.6833050194 -37.560546875 108.842773438 -37.560546875 c 0
 156.04609857 -37.560546875 180.43359375 -21.3379772708 180.43359375 19.3662109375 c 0xe8
 180.43359375 91.0537670415 128.649414062 102.267725617 128.649414062 211.623046875 c 0xf0
 128.649414062 280.685846486 194.094726562 304.684570312 194.094726562 304.684570312 c 1
 194.094726562 304.684570312 131.252929688 334.556048745 131.252929688 397.22265625 c 0
 131.252929688 473.612889041 180.43359375 499.55443199 180.43359375 580.366210938 c 0
 180.43359375 622.703360524 155.760668334 638.926757812 108.842773438 638.926757812 c 0
 55.7590198084 638.926757812 30.4697265625 621.016601562 30.4697265625 621.016601562 c 1
 11.5390625 773.2265625 l 1
 11.5390625 773.2265625 72.677313617 801.046875 177.013671875 801.046875 c 0
 320.515625 801.046875 400.66015625 747.26171875 400.66015625 640.366210938 c 0xe8
 400.66015625 539.648319926 331.704101562 493.004709204 331.704101562 417.600585938 c 0
 331.704101562 388.06640625 350.215442692 375.764648438 380.256835938 375.764648438 c 0
 422.653524747 375.764648438 464 377.64453125 464 377.64453125 c 1
 464 221.366210938 l 1
 464 221.366210938 418.975189387 225.364257812 375.017578125 225.364257812 c 0
 349.579211534 225.364257812 331.704101562 216.834960938 331.704101562 193.245117188 c 0xf0
 331.704101562 127.720787202 400.66015625 99.1600976 400.66015625 -20.6337890625 c 0
 400.66015625 -132.581054688 320.515625 -199.680664062 177.013671875 -199.680664062 c 0xe8
EndSplineSet
EndChar

StartChar: cent
Encoding: 96 162 98
Width: 391
Flags: W
HStem: 0 21G<173 320> 158.934 55.0664<190 301> 524 52.9336<188 299> 719 20G<169 316>
VStem: 20 179<322.67 415.746>
LayerCount: 2
Fore
SplineSet
320 0 m 1
 173 0 l 1
 190 214 l 1
 301 214 l 1
 320 0 l 1
169 739 m 1
 316 739 l 1
 299 524 l 1
 188 524 l 1
 169 739 l 1
20 369.93359375 m 0
 20 496.433681147 104.38879727 576.93359375 237 576.93359375 c 0
 341.501103034 576.93359375 385.916992188 534.782226562 385.916992188 534.782226562 c 1
 339.647460938 408.369140625 l 1
 339.647460938 408.369140625 311.604832546 430.93359375 268 430.93359375 c 0
 225.833075162 430.93359375 199 407.21171271 199 369.93359375 c 0
 199 330.211230469 224.521015398 304.93359375 280 304.93359375 c 0
 337.281818518 304.93359375 369.1484375 330.364257812 369.1484375 330.364257812 c 1
 401.146484375 191.31640625 l 1
 401.146484375 191.31640625 343.572391561 158.93359375 247 158.93359375 c 0
 108.277681937 158.93359375 20 240.988532903 20 369.93359375 c 0
EndSplineSet
EndChar

StartChar: asciitilde
Encoding: 94 126 99
Width: 534
Flags: W
HStem: 211.96 300.04
LayerCount: 2
Fore
SplineSet
339.821289062 406.168945312 m 1
 430.48046875 494.280273438 l 1
 533.66015625 384 l 1
 352.280273438 211.959960938 l 1
 192.33984375 317.791015625 l 1
 104.180664062 229.6796875 l 1
 1 339.959960938 l 1
 182.380859375 512 l 1
 339.821289062 406.168945312 l 1
EndSplineSet
EndChar

StartChar: numbersign
Encoding: 3 35 100
Width: 704
Flags: W
HStem: 173 142<248.364 648> 184 127<24 419.636> 425 142<288 680> 436 127<68 456>
LayerCount: 2
Fore
SplineSet
24 311 m 1x40
 652 315 l 1
 648 173 l 1x80
 20 184 l 1
 24 311 l 1x40
68 563 m 1x10
 684 567 l 1
 680 425 l 1x20
 64 436 l 1
 68 563 l 1x10
339 11.5 m 1
 482 742.5078125 l 1
 618 719.5078125 l 1
 485 -11.5 l 1
 339 11.5 l 1
79 11.5 m 1
 222 742.5078125 l 1
 358 719.5078125 l 1
 225 -11.5 l 1
 79 11.5 l 1
EndSplineSet
EndChar

StartChar: five.ss02
Encoding: 737 -1 101
Width: 581
Flags: W
HStem: -10.0664 189<103.48 302.79> 317.992 161.008<202.563 410.617> 540 191.008<249 369>
VStem: 325.917 234<199.342 297.178> 376 143.017<731.008 798.008>
LayerCount: 2
Fore
SplineSet
519.016601562 539.0078125 m 1xe8
 249 540 l 25
 234 461 l 17
 234 461 258.642857144 479 326 479 c 0
 495.23482387 479 559.916992188 386.635747331 559.916992188 246.9921875 c 0
 559.916992188 68.1744133844 445.97265625 -10.06640625 266.916992188 -10.06640625 c 0
 85.2246769868 -10.06640625 8 44.0849609375 8 44.0849609375 c 1
 50 222 l 1
 50 222 126.85984585 178.93359375 233.916992188 178.93359375 c 0
 295.715217946 178.93359375 325.916992188 206.567382812 325.916992188 249.9921875 c 0xf0
 325.916992188 291.547743056 294.283129883 317.9921875 232.416992188 317.9921875 c 0
 172.708168287 317.9921875 136.7578125 288.43359375 136.7578125 288.43359375 c 1
 19 382 l 1
 80 731.0078125 l 1
 369 731.0078125 l 1
 376 798.0078125 l 1
 519.016601562 800.0078125 l 1
 519.016601562 539.0078125 l 1xe8
EndSplineSet
Substitution2: "'dnom' Denominators lookup 0 subtable" five.ss02.dnom
Substitution2: "'numr' Numerators lookup 0 subtable" five.ss02.numr
Substitution2: "'numr' Numerators lookup 0 subtable" five.ss02.numr
Substitution2: "'subs' Subscript lookup 0 subtable" five.ss02.subscript
Substitution2: "'sinf' Scientific Inferiors lookup 0 subtable" five.ss02.inferior
Substitution2: "'sups' Superscript lookup 0 subtable" five.ss02.superior
EndChar

StartChar: yen
Encoding: 99 165 102
Width: 749
Flags: W
HStem: 0 21G<287.33 524.659> 104.712 114<520.294 662> 112.712 105<162 450.563> 245.712 114<439.625 666> 253 98.7119<166 629.09> 253.712 105<166 407> 520.5 21G<25.354 147.151>
VStem: 287.33 237.329<0 255.155>
LayerCount: 2
Fore
SplineSet
162 217.711914062 m 1xa3
 403 216.711914062 l 1
 664 218.711914062 l 1
 662 104.711914062 l 1xc3
 393 118 l 1
 160 112.711914062 l 1
 162 217.711914062 l 1xa3
166 358.711914062 m 1x87
 407 351.711914062 l 1x8b
 668 359.711914062 l 1
 666 245.711914062 l 1x93
 397 253 l 1x8b
 164 253.711914062 l 1
 166 358.711914062 l 1x87
EndSplineSet
Refer: 69 89 N 1 0 0 1 0 0 2
EndChar

StartChar: brokenbar
Encoding: 100 166 103
Width: 256
Flags: W
VStem: 32.3164 191.975<-170 239.44 355.92 788.992>
LayerCount: 2
Back
SplineSet
193.022460938 355.919921875 m 5
 63.7568359375 355.919921875 l 5
 36.169921875 788.9921875 l 5
 220.899414062 788.9921875 l 5
 193.022460938 355.919921875 l 5
194.291015625 239.440429688 m 5
 226.329101562 -170 l 5
 30 -170 l 5
 62.31640625 239.440429688 l 5
 194.291015625 239.440429688 l 5
EndSplineSet
Fore
SplineSet
223.022460938 355.919921875 m 1
 33.7568359375 355.919921875 l 1
 36.169921875 788.9921875 l 1
 220.899414062 788.9921875 l 1
 223.022460938 355.919921875 l 1
224.291015625 239.440429688 m 1
 226.329101562 -170 l 1
 30 -170 l 1
 32.31640625 239.440429688 l 1
 224.291015625 239.440429688 l 1
EndSplineSet
EndChar

StartChar: section
Encoding: 101 167 104
Width: 609
Flags: W
LayerCount: 2
Fore
SplineSet
69.890625 438.674804688 m 1
 119.677734375 358.076217315 202.94182757 329.322431183 326.131835938 288.893554688 c 0
 451.97265625 247.594726562 504.102539062 185.8046875 504.102539062 102.5 c 0
 504.102539062 -108.239257812 170.088867188 -114.163085938 170.088867188 -114.163085938 c 1
 151.552734375 51.9765625 l 1
 151.552734375 51.9765625 270.00390625 52.2079624105 270.00390625 99.279296875 c 0
 270.00390625 116.731083418 260.19504223 133.889811976 198.58984375 160.873046875 c 0
 93.647460938 206.000566784 20 263.909593457 20 337.936523438 c 0
 20 393.939898947 69.890625 438.674804688 69.890625 438.674804688 c 1
539.46484375 232.325195312 m 1
 489.677734375 312.923782685 406.277861999 341.289296501 283.223632812 382.106445312 c 0
 157.215258678 423.903485466 105.252929688 485.1953125 105.252929688 568.5 c 0
 105.252929688 779.239257812 439.266601562 785.163085938 439.266601562 785.163085938 c 1
 457.802734375 619.0234375 l 1
 457.802734375 619.0234375 339.3515625 618.79203759 339.3515625 571.720703125 c 0
 339.3515625 554.268916582 349.243212594 537.321786366 410.765625 510.126953125 c 0
 515.708007812 464.499433216 589.35546875 407.090406543 589.35546875 333.063476562 c 0
 589.35546875 277.060101053 539.46484375 232.325195312 539.46484375 232.325195312 c 1
EndSplineSet
EndChar

StartChar: currency
Encoding: 98 164 105
Width: 465
Flags: W
VStem: 25.2803 155.989<312.967 402.115> 283.991 155.988<312.967 402.115>
LayerCount: 2
Fore
SplineSet
256.239257812 210.936523438 m 1
 379.889648438 248.825195312 l 1
 464.259765625 117.265625 l 1
 310.580078125 63.6455078125 l 1
 256.239257812 210.936523438 l 1
209.020507812 210.936523438 m 1
 154.6796875 63.6455078125 l 1
 1 117.265625 l 1
 85.3701171875 248.825195312 l 1
 209.020507812 210.936523438 l 1
256.239257812 500.24609375 m 1
 310.580078125 647.536132812 l 1
 464.259765625 593.916015625 l 1
 379.889648438 462.356445312 l 1
 256.239257812 500.24609375 l 1
209.020507812 500.24609375 m 1
 85.3701171875 462.356445312 l 1
 1 593.916015625 l 1
 154.6796875 647.536132812 l 1
 209.020507812 500.24609375 l 1
181.26953125 355.671875 m 0
 181.26953125 321.417539872 203.395197637 302.498046875 232.629882812 302.498046875 c 0
 261.867110816 302.498046875 283.991210938 321.417539872 283.991210938 355.671875 c 0
 283.991210938 391.089421841 261.867110816 411.688476562 232.629882812 411.688476562 c 0
 203.395197637 411.688476562 181.26953125 391.089421841 181.26953125 355.671875 c 0
25.2802734375 355.590820312 m 0
 25.2802734375 485.24609375 114.739257812 560.655273438 232.629882812 560.655273438 c 0
 350.520507812 560.655273438 439.979492188 485.24609375 439.979492188 355.590820312 c 0
 439.979492188 225.424804688 350.520507812 153.532226562 232.629882812 153.532226562 c 0
 114.739257812 153.532226562 25.2802734375 225.424804688 25.2802734375 355.590820312 c 0
EndSplineSet
EndChar

StartChar: dieresis
Encoding: 102 168 106
Width: 490
Flags: W
HStem: 539.008 200<63.9476 196.052 293.948 426.052>
VStem: 30 200<572.955 705.06> 260 200<572.955 705.06>
LayerCount: 2
Fore
SplineSet
260 639.0078125 m 0
 260 700.119318182 298.888494318 739.0078125 360 739.0078125 c 0
 421.111505682 739.0078125 460 700.119318182 460 639.0078125 c 0
 460 577.896306818 421.111505682 539.0078125 360 539.0078125 c 0
 298.888494318 539.0078125 260 577.896306818 260 639.0078125 c 0
30 639.0078125 m 0
 30 700.119318182 68.8884943182 739.0078125 130 739.0078125 c 0
 191.111505682 739.0078125 230 700.119318182 230 639.0078125 c 0
 230 577.896306818 191.111505682 539.0078125 130 539.0078125 c 0
 68.8884943182 539.0078125 30 577.896306818 30 639.0078125 c 0
EndSplineSet
EndChar

StartChar: guillemotleft
Encoding: 105 171 107
Width: 632
Flags: W
HStem: 491 20G<222.34 269.359>
LayerCount: 2
Fore
SplineSet
520.720703125 269.5 m 1
 631.69921875 164 l 1
 521.69921875 50 l 1
 311 260 l 1
 521.69921875 479 l 1
 631.69921875 385 l 1
 520.720703125 269.5 l 1
220.720703125 261.5 m 1
 371.69921875 116 l 1
 241.69921875 2 l 1
 -9 252 l 1
 241.69921875 511 l 1
 371.69921875 417 l 1
 220.720703125 261.5 l 1
EndSplineSet
EndChar

StartChar: guillemotright
Encoding: 121 187 108
Width: 632
Flags: W
HStem: 491 20G<367.193 410.056>
LayerCount: 2
Fore
SplineSet
110.978515625 243.5 m 1
 0 349 l 1
 110 463 l 1
 320.69921875 253 l 1
 110 34 l 1
 0 128 l 1
 110.978515625 243.5 l 1
410.978515625 251.5 m 1
 260 397 l 1
 390 511 l 1
 640.69921875 261 l 1
 390 2 l 1
 260 96 l 1
 410.978515625 251.5 l 1
EndSplineSet
EndChar

StartChar: logicalnot
Encoding: 106 172 109
Width: 497
Flags: W
HStem: 243.966 178.034<14 306> 251 167<14 304.562>
VStem: 302 181<128.824 243.966>
LayerCount: 2
Fore
SplineSet
14 418 m 1x60
 480 422 l 1
 483 125 l 1
 302 128.82421875 l 1
 306 243.965820312 l 1xa0
 10 251 l 1
 14 418 l 1x60
EndSplineSet
EndChar

StartChar: macron
Encoding: 109 175 111
Width: 330
Flags: W
HStem: 599.008 132<121.273 316> 610.008 117<14 204.727>
VStem: 10 310
LayerCount: 2
Fore
SplineSet
14 727.0078125 m 1x60
 320 731.0078125 l 1
 316 599.0078125 l 1xa0
 10 610.0078125 l 1
 14 727.0078125 l 1x60
EndSplineSet
EndChar

StartChar: mu
Encoding: 115 181 112
Width: 653
Flags: W
HStem: -9.93164 149<243.388 335.484> 0 160.927<557.849 639.38> 492.002 5G<42.8408 247.17 357.81 555.329>
VStem: 25 202<-114.316 498.01> 358 197.17<213.068 497.002>
LayerCount: 2
Fore
SplineSet
227 235.068359375 m 0x38
 227 4.92836574607 256 -167 256 -167 c 1
 52 -187 l 1
 52 -187 25 -6.66644428042 25 208.068359375 c 0
 25 357.54296875 42.8408203125 512.001953125 42.8408203125 512.001953125 c 1
 247.169921875 497.001953125 l 1
 247.169921875 497.001953125 227 353.235351562 227 235.068359375 c 0x38
266 -9.931640625 m 0xb8
 170.45323989 -9.931640625 128.894957983 122 117 213.068359375 c 1
 215 280.068359375 l 1
 211.696106363 185.042233911 242.688658997 139.068359375 286 139.068359375 c 0
 334.191492102 139.068359375 358.923076923 166.366737222 365 280.068359375 c 1
 415 213.068359375 l 1
 392.509433962 90 373.800563754 -9.931640625 266 -9.931640625 c 0xb8
353.270507812 0 m 1x78
 358 497.001953125 l 1
 555.169921875 497.001953125 l 1
 557.848632812 160.926757812 l 1
 643 162.930664062 l 1
 639.379882812 0 l 1
 353.270507812 0 l 1x78
EndSplineSet
EndChar

StartChar: acute
Encoding: 114 180 113
Width: 240
Flags: W
HStem: 510.22 230.284
VStem: 1 238.518
LayerCount: 2
Fore
SplineSet
137.840820312 740.50390625 m 25
 239.517578125 631.18359375 l 25
 70.4375 510.219726562 l 25
 1 585.965820312 l 25
 137.840820312 740.50390625 l 25
EndSplineSet
EndChar

StartChar: plusminus
Encoding: 111 177 114
Width: 450
Flags: W
HStem: 84 161<223 430> 96 146<21 258.333> 198.5 39.5<130 309> 323 169<21 256.667>
VStem: 18 412<96 238 328 488> 147 155<336.971 587.25>
LayerCount: 2
Fore
SplineSet
21 492 m 1x18
 223 488 l 1
 432 495 l 1
 430 311 l 1
 222 328 l 1
 18 323 l 1
 21 492 l 1x18
310 609.5 m 1
 302 431.5 l 1
 309 198.5 l 1
 130 200.5 l 1
 147 432.5 l 1x34
 139 612.5 l 1
 310 609.5 l 1
21 242 m 1x58
 223 238 l 1x38
 432 245 l 1
 430 84 l 1x98
 18 96 l 1
 21 242 l 1x58
EndSplineSet
EndChar

StartChar: copyright
Encoding: 103 169 116
Width: 795
Flags: W
HStem: -10.0664 105.877<284.096 517.046> 139.745 131.4<366.055 521.769> 458.381 130.8<370.906 508.585> 635.64 103.294<284.096 512.387>
VStem: 20 113<249.021 481.886> 188.229 151.2<300.93 425.805> 669.117 105.883<249.021 481.886>
LayerCount: 2
Fore
SplineSet
188.229492188 362.9453125 m 0
 188.229492188 501.200345084 276.196139306 589.180664062 414.4296875 589.180664062 c 0
 519.234375589 589.180664062 563.779296875 543.489257812 563.779296875 543.489257812 c 1
 527.017578125 423.2421875 l 1
 527.017578125 423.2421875 491.874756663 458.380859375 437.229492188 458.380859375 c 0
 377.462578949 458.380859375 339.4296875 421.267569375 339.4296875 362.9453125 c 0
 339.4296875 306.845232639 371.097250652 271.145507812 433.029296875 271.145507812 c 0
 505.175978721 271.145507812 541.71875 306.204101562 541.71875 306.204101562 c 1
 572.916992188 177.174804688 l 1
 572.916992188 177.174804688 532.822264902 139.745117188 408.4296875 139.745117188 c 0
 273.862808506 139.745117188 188.229492188 226.544541099 188.229492188 362.9453125 c 0
20 361.93359375 m 0
 20 592.322641811 166.610951939 738.93359375 397 738.93359375 c 0
 628.000476926 738.93359375 775 592.322641811 775 361.93359375 c 0
 775 134.599173678 628.000476926 -10.06640625 397 -10.06640625 c 0
 166.610951939 -10.06640625 20 134.599173678 20 361.93359375 c 0
133 361.93359375 m 0
 133 199.302493054 236.054635416 95.810546875 398 95.810546875 c 0
 563.683162834 95.810546875 669.1171875 199.302493054 669.1171875 361.93359375 c 0
 669.1171875 529.199728745 563.683162834 635.639648438 398 635.639648438 c 0
 236.054635416 635.639648438 133 529.199728745 133 361.93359375 c 0
EndSplineSet
EndChar

StartChar: registered
Encoding: 108 174 117
Width: 795
Flags: W
HStem: -10.0664 105.877<284.096 517.046> 460.193 123.601<394.052 463.434> 460.193 39.7549<324.078 391.356> 635.64 103.294<284.096 512.387>
VStem: 20 113<249.021 481.886> 257.616 135.739<140.398 296.059 378.525 499.948> 470.904 134.4<373.13 450.159> 669.117 105.883<249.021 481.886>
LayerCount: 2
Fore
SplineSet
393.35546875 140.3984375 m 1xbf
 257.616210938 140.3984375 l 1
 261.318359375 499.948242188 l 1
 391.356445312 499.948242188 l 1
 393.35546875 140.3984375 l 1xbf
357.471679688 378.524902344 m 1
 357.471679688 378.524902344 372.376366891 365.958496094 419.104492188 365.958496094 c 0
 452.047600301 365.958496094 470.904296875 386.071411132 470.904296875 412.458496094 c 0
 470.904296875 441.957527739 451.266155244 460.193359375 408.75390625 460.193359375 c 0
 324.077707971 460.193359375 216.515625 416.254882812 216.515625 416.254882812 c 1
 191.75390625 541.302734375 l 1
 191.75390625 541.302734375 258.966777777 583.793945312 417.104492188 583.793945312 c 0xdf
 532.115919012 583.793945312 605.3046875 522.763391336 605.3046875 426.858398438 c 0
 605.3046875 355.871527721 565.065047357 322.761804973 539.434570312 308.3984375 c 0
 528.135873602 302.048520602 519.797851562 300.022460938 519.797851562 300.022460938 c 1
 608.016601562 243.3984375 l 1
 529.416015625 128.198242188 l 1
 328.108398438 296.05859375 l 1
 357.471679688 378.524902344 l 1
20 361.93359375 m 0
 20 592.322641811 166.610951939 738.93359375 397 738.93359375 c 0
 628.000476926 738.93359375 775 592.322641811 775 361.93359375 c 0
 775 134.599173678 628.000476926 -10.06640625 397 -10.06640625 c 0
 166.610951939 -10.06640625 20 134.599173678 20 361.93359375 c 0
133 361.93359375 m 0
 133 199.302493054 236.054635416 95.810546875 398 95.810546875 c 0
 563.683162834 95.810546875 669.1171875 199.302493054 669.1171875 361.93359375 c 0
 669.1171875 529.199728745 563.683162834 635.639648438 398 635.639648438 c 0
 236.054635416 635.639648438 133 529.199728745 133 361.93359375 c 0
EndSplineSet
EndChar

StartChar: degree
Encoding: 110 176 118
Width: 429
Flags: W
HStem: 358.113 135.303<176.091 253.178> 603.593 135.399<175.772 253.502>
VStem: 20 146.384<501.768 596.134> 263.184 146.416<502.1 595.813>
LayerCount: 2
Fore
SplineSet
166.383789062 549.416015625 m 0
 166.383789062 515.194335938 185.086914062 493.416015625 214.479492188 493.416015625 c 0
 244.243164062 493.416015625 263.18359375 515.194335938 263.18359375 549.416015625 c 0
 263.18359375 582.524414062 244.243164062 603.592773438 214.479492188 603.592773438 c 0
 185.086914062 603.592773438 166.383789062 582.524414062 166.383789062 549.416015625 c 0
20 549.512695312 m 0
 20 665.305664062 95.630859375 738.9921875 214.479492188 738.9921875 c 0
 333.719726562 738.9921875 409.599609375 665.305664062 409.599609375 549.512695312 c 0
 409.599609375 432.545898438 333.719726562 358.11328125 214.479492188 358.11328125 c 0
 95.630859375 358.11328125 20 432.545898438 20 549.512695312 c 0
EndSplineSet
EndChar

StartChar: AE
Encoding: 132 198 119
Width: 960
Flags: W
HStem: 0 186.293<684.064 946.539> 139 157<262 444.545> 278 172<667.455 894> 289 11<538 578> 538.08 192.928<169 457.985 681.104 938.729>
VStem: 542 139.104<300 446>
LayerCount: 2
Fore
SplineSet
262 296 m 1x4c
 578 300 l 1x1c
 574 128 l 1
 218 139 l 1
 262 296 l 1x4c
938.729492188 731.010742188 m 1
 944.61328125 539 l 1
 681.103515625 543 l 1
 684.017578125 186.48046875 l 1
 684.064453125 186.29296875 l 1
 950.159179688 187.930664062 l 1
 946.5390625 0 l 1
 453.4296875 0 l 1x8c
 458.151367188 545.083984375 l 1
 160 538.080078125 l 1
 169 731.0078125 l 1
 938.729492188 731.010742188 l 1
542 446 m 1
 898 450 l 1
 894 278 l 1x2c
 538 289 l 1x1c
 542 446 l 1
547 592.5 m 1
 187.819335938 -17.5 l 1
 -9.7265625 109 l 1
 403 663 l 1
 547 592.5 l 1
EndSplineSet
EndChar

StartChar: ae
Encoding: 164 230 120
Width: 880
Flags: W
HStem: -23.9004 155.801<640.653 771.819> -10.0664 126<213.673 308.173> 193 103<510 692> 216.934 115<212.325 310.202> 359.934 147<582.773 675.962> 501 20G<159.029 163>
VStem: 20 184<125.832 206.544> 370 502.619<196.02 377.117>
LayerCount: 2
Fore
SplineSet
319 168.93359375 m 0x53
 319 196.707473467 296.833241022 216.93359375 262 216.93359375 c 0
 226.555463006 216.93359375 204 196.707473467 204 168.93359375 c 0
 204 137.001700566 226.555463006 115.93359375 262 115.93359375 c 0
 296.833241022 115.93359375 319 137.001700566 319 168.93359375 c 0x53
462 133.93359375 m 0
 462 86.7197265625 400.506009616 -10.06640625 238 -10.06640625 c 0
 104.777550331 -10.06640625 20 59.9332627118 20 169.93359375 c 0
 20 268.934317556 96.9992000499 331.93359375 218 331.93359375 c 0
 387.111528051 331.93359375 462 214.943551801 462 133.93359375 c 0
473.848632812 150.926757812 m 1
 322.270507812 151 l 1
 322.270507812 151 327 238.462158203 327 301 c 0
 327 371.09414557 136 385 136 385 c 1
 163 521 l 1x07
 163 521 471.169921875 513.875646888 471.169921875 297.001953125 c 0
 471.169921875 241.854141501 473.848632812 150.926757812 473.848632812 150.926757812 c 1
EndSplineSet
Refer: 9 101 N 1 0 0 1 350 0 2
EndChar

StartChar: cedilla
Encoding: 118 184 121
Width: 227
Flags: W
HStem: -248 86<12 92.1506> -104 124<37 96.0417>
VStem: 6 201
LayerCount: 2
Fore
SplineSet
37 20 m 1
 135 17 l 1
 115 -49 l 1
 115 -49 207 -55.1298701299 207 -136 c 0
 207 -216.730463477 140.680203046 -242 12 -248 c 1
 6 -162 l 1
 70.5272727272 -161.590909091 97 -153.464063517 97 -132 c 0
 97 -113.140495868 77.3502191622 -105.114621162 19 -104 c 1
 13 -57 l 1
 37 20 l 1
EndSplineSet
EndChar

StartChar: paragraph
Encoding: 116 182 124
Width: 823
Flags: W
HStem: 555.992 183<437.6 502.776>
VStem: 20 417.6<370.374 549.064> 235 202.6<-173.994 -12.6106> 253 184.6<79.6086 243.185> 510 201<-173.994 258.644> 510 189.261<118.918 551.557>
LayerCount: 2
Fore
SplineSet
803 714.984375 m 1xc0
 792 542.984375 l 1
 792 542.984375 733.73046875 550.9921875 699.260742188 551.556640625 c 1xc4
 711 -173.994140625 l 1
 510 -173.994140625 l 1x88
 510 555.9921875 l 1
 437.599609375 555.9921875 l 1x94
 437.599609375 -173.994140625 l 1
 235 -173.994140625 l 1xa0
 253 240.9921875 l 1x90
 116.511760033 253.871308694 20 324.077035731 20 485.9921875 c 0
 20 667.805875713 146.896484375 738.9921875 388 738.9921875 c 0
 650.344926883 738.9921875 803 714.984375 803 714.984375 c 1xc0
EndSplineSet
EndChar

StartChar: Eth
Encoding: 142 208 125
Width: 783
Flags: W
HStem: -10.0664 212<347.02 468.676> 270 162<176.727 451> 281 147<24 294.273> 524.992 74.2578<170.25 340.67> 524.992 214<347.665 462.397>
VStem: 123.94 216.729<203.847 599.25> 533.917 230<269.722 454.032>
LayerCount: 2
Fore
SplineSet
24 428 m 1xa6
 455 432 l 1
 451 270 l 1xc6
 20 281 l 1
 24 428 l 1xa6
EndSplineSet
Refer: 57 68 N 1 0 0 1 0 0 2
EndChar

StartChar: eth
Encoding: 174 240 126
Width: 585
Flags: W
HStem: -10.0664 174.925<235.449 336.296> 332.009 174.925<235.463 332.897> 510.966 21G<174.902 221.201>
VStem: 20 194.375<186.483 308.574> 360.625 204.375<186.471 475.98>
LayerCount: 2
Fore
SplineSet
135.401367188 614.420898438 m 1
 308.440429688 688.025390625 l 1
 462.33984375 778.794921875 l 1
 517.955078125 661.89453125 l 1
 348.1171875 599.879882812 l 1
 184.368164062 510.965820312 l 1
 135.401367188 614.420898438 l 1
214.375 249.858398438 m 0
 214.375 197.913856908 242.62773893 164.858398438 287.025390625 164.858398438 c 0
 332.003120742 164.858398438 360.625 197.913856908 360.625 249.858398438 c 0
 360.625 300.061705126 332.003120742 332.008789062 287.025390625 332.008789062 c 0
 242.62773893 332.008789062 214.375 300.061705126 214.375 249.858398438 c 0
20 249.93359375 m 0
 20 406.989257812 106.333239604 506.93359375 242 506.93359375 c 0
 313.16785012 506.93359375 333.90234375 484.057617188 333.90234375 484.057617188 c 1
 292 625 132.021484375 683.267578125 132.021484375 683.267578125 c 1
 322.770507812 782.510742188 l 1
 322.770507812 782.510742188 565 639.959487241 565 312 c 0
 565 76.5609773511 456.889239644 -10.06640625 287 -10.06640625 c 0
 123.833220605 -10.06640625 20 91.0439453125 20 249.93359375 c 0
EndSplineSet
EndChar

StartChar: multiply
Encoding: 149 215 127
Width: 450
Flags: W
LayerCount: 2
Fore
SplineSet
308.034179688 568.0859375 m 1
 429 451.36328125 l 1
 292.42578125 335.126953125 l 1
 149.036132812 158.670898438 l 1
 23.12109375 281.7578125 l 1
 181.318359375 427.094726562 l 1
 308.034179688 568.0859375 l 1
144.086914062 568.0859375 m 1
 270.802734375 427.094726562 l 1
 429 281.7578125 l 1
 303.084960938 158.670898438 l 1
 159.6953125 335.126953125 l 1
 23.12109375 451.36328125 l 1
 144.086914062 568.0859375 l 1
EndSplineSet
EndChar

StartChar: divide
Encoding: 181 247 128
Width: 450
Flags: W
HStem: 108 165<157.297 292.703> 304 134<30 421> 466 165<157.297 292.703>
VStem: 130 190<134.537 246.463 492.537 604.463>
LayerCount: 2
Fore
SplineSet
130 548.5 m 0
 130 598.917306082 166.944444444 631 225 631 c 0
 283.055555556 631 320 598.917306082 320 548.5 c 0
 320 498.082693918 283.055555556 466 225 466 c 0
 166.944444444 466 130 498.082693918 130 548.5 c 0
29 438 m 1
 425 442 l 1
 421 300 l 1
 30 304 l 1
 29 438 l 1
130 190.5 m 0
 130 240.917306082 166.944444444 273 225 273 c 0
 283.055555556 273 320 240.917306082 320 190.5 c 0
 320 140.082693918 283.055555556 108 225 108 c 0
 166.944444444 108 130 140.082693918 130 190.5 c 0
EndSplineSet
EndChar

StartChar: Oslash
Encoding: 150 216 129
Width: 785
Flags: W
HStem: -10.0664 221.351<314.841 463.189> 517.583 221.351<316.189 461.722>
VStem: 20 234.487<277.075 453.558> 530.513 234.487<278.574 447.153>
LayerCount: 2
Fore
SplineSet
713.44921875 722.93359375 m 1
 434.830078125 345.799804688 l 1
 187.87890625 -85 l 1
 71.55078125 -13 l 1
 354.029296875 382.200195312 l 1
 603.720703125 797.93359375 l 1
 713.44921875 722.93359375 l 1
EndSplineSet
Refer: 43 79 N 1 0 0 1 0 0 2
EndChar

StartChar: oslash
Encoding: 182 248 130
Width: 565
Flags: W
HStem: -10.0664 174.925<230.93 333.53> 332.009 174.925<230.93 333.53>
VStem: 20 189.375<186.483 308.574> 355.625 189.375<186.483 308.574>
LayerCount: 2
Fore
SplineSet
505.5390625 509.638671875 m 1
 312.794921875 245.815429688 l 1
 139.685546875 -41.2802734375 l 1
 69.4609375 2.099609375 l 1
 264.59765625 267.124023438 l 1
 439.40625 554.87890625 l 1
 505.5390625 509.638671875 l 1
EndSplineSet
Refer: 3 111 N 1 0 0 1 0 0 2
EndChar

StartChar: Thorn
Encoding: 156 222 131
Width: 714
Flags: W
HStem: 0 21G<113.958 345.287> 114.934 174<345.01 461.544> 434.992 185<343.918 460.546> 545.084 185.927<18.748 118.279>
VStem: 113.958 231.329<0 159.434 319.877 403.428> 483.917 218<309.11 414.308>
LayerCount: 2
Fore
SplineSet
284.196289062 319.876953125 m 1xec
 284.196289062 319.876953125 314.500533876 288.93359375 392.916992188 288.93359375 c 0
 452.561127285 288.93359375 483.916992188 316.08303898 483.916992188 359.93359375 c 0
 483.916992188 410.191897958 453.375246125 434.9921875 385.916992188 434.9921875 c 0
 324.568311683 434.9921875 279.26953125 403.427734375 279.26953125 403.427734375 c 1
 248 575.840820312 l 1
 248 575.840820312 316.89574128 619.9921875 426.916992188 619.9921875 c 0
 596.572792658 619.9921875 701.916992188 523.502051577 701.916992188 354.93359375 c 0
 701.916992188 209.376953125 600.627894175 114.93359375 436.916992188 114.93359375 c 0
 323.528692805 114.93359375 255.2578125 159.43359375 255.2578125 159.43359375 c 1
 284.196289062 319.876953125 l 1xec
339.857421875 731.010742188 m 1xdc
 345.287109375 0 l 1
 113.958007812 0 l 1
 118.279296875 545.083984375 l 1
 15.1279296875 543.080078125 l 1
 18.748046875 731.010742188 l 1
 339.857421875 731.010742188 l 1xdc
EndSplineSet
EndChar

StartChar: thorn
Encoding: 188 254 132
Width: 682
Flags: W
HStem: -10.0664 170<335.228 440.88> 336.934 170<333.215 440.88> 594.084 160.927<13.6201 98.1514>
VStem: 93.8301 206.329<237.934 594.084> 212 88.1592<65.9659 408.68> 465 197<185.379 313.028>
LayerCount: 2
Fore
SplineSet
310 249.93359375 m 0xe4
 310 194.933398437 339.94415634 159.93359375 387 159.93359375 c 0
 434.667147549 159.93359375 465 194.933398437 465 249.93359375 c 0
 465 303.100747019 434.667147549 336.93359375 387 336.93359375 c 0
 339.94415634 336.93359375 310 303.100747019 310 249.93359375 c 0xe4
212 237.93359375 m 0xec
 212 408.680277055 288.965755782 506.93359375 434 506.93359375 c 0
 573.333984375 506.93359375 662 406.989257812 662 249.93359375 c 0
 662 91.0439453125 573.333984375 -10.06640625 434 -10.06640625 c 0
 298.332908866 -10.06640625 212 65.9659122038 212 237.93359375 c 0xec
294.729492188 755.010742188 m 1
 300.159179688 -174 l 1xec
 93.830078125 -174 l 1xf4
 98.1513671877 594.083984375 l 1
 10 592.080078125 l 1
 13.6201171875 755.010742188 l 1
 294.729492188 755.010742188 l 1
EndSplineSet
EndChar

StartChar: kgreenlandic
Encoding: 246 312 133
Width: 618
Flags: W
HStem: 0 21G<103.83 300.159> 346.084 150.927<13.6201 108.151> 494 20G<432.86 473.689>
VStem: 103.83 196.329<0 346.084>
LayerCount: 2
Fore
SplineSet
451 514 m 1xb0
 586 395 l 1
 436 255 l 1
 608 107 l 1
 461 -17 l 1
 217 256 l 1
 451 514 l 1xb0
294.729492188 497.010742188 m 1xd0
 300.159179688 0 l 1
 103.830078125 0 l 1
 108.151367188 346.083984375 l 1
 10 344.080078125 l 1
 13.6201171875 497.010742188 l 1
 294.729492188 497.010742188 l 1xd0
EndSplineSet
EndChar

StartChar: Eng
Encoding: 264 330 134
Width: 830
Flags: W
HStem: 0 21G<123.83 340.159> 553.992 185<413.66 607.264> 558.08 172.931<13.6201 128.151>
VStem: 123.83 216.329<0 445.992> 566.872 219<65.869 507.346>
LayerCount: 2
Back
SplineSet
242.872070312 445.9921875 m 1xb8
 269.833984375 629.037109375 354.872070312 738.9921875 530.872070312 738.9921875 c 0
 688.88671875 738.9921875 785.872070312 652.708007812 785.872070312 430.9921875 c 0
 785.872070312 211.653320312 768.03125 -15 768.03125 -15 c 1
 546.702148438 0 l 1
 546.702148438 0 566.872070312 216.249023438 566.872070312 393.9921875 c 0
 566.872070312 495.55078125 538.45703125 553.9921875 457.872070312 553.9921875 c 0
 375.891601562 553.9921875 326.822265625 510.404296875 300.872070312 398.9921875 c 1
 242.872070312 445.9921875 l 1xb8
334.729492188 731.010742188 m 1
 340.159179688 0 l 1
 123.830078125 0 l 1
 128.151367188 560.083984375 l 1
 10 558.080078125 l 1
 13.6201171875 731.010742188 l 1
 334.729492188 731.010742188 l 1
EndSplineSet
Fore
SplineSet
242.872070312 445.9921875 m 1xd8
 269.833984375 629.037109375 354.872070312 738.9921875 530.872070312 738.9921875 c 0
 688.88671875 738.9921875 785.872070312 652.708007812 785.872070312 430.9921875 c 0
 785.872070312 274.59375 771.301757812 29.9814453125 771.301757812 29.9814453125 c 1
 626.142578125 -197.018554688 l 1
 428.142578125 -100.018554688 l 1
 551.97265625 69.9814453125 l 1
 551.97265625 69.9814453125 566.872070312 267.627929688 566.872070312 393.9921875 c 0
 566.872070312 495.55078125 538.45703125 553.9921875 457.872070312 553.9921875 c 0
 375.891601562 553.9921875 326.822265625 510.404296875 300.872070312 398.9921875 c 1
 242.872070312 445.9921875 l 1xd8
334.729492188 731.010742188 m 1xb8
 340.159179688 0 l 1
 123.830078125 0 l 1
 128.151367188 560.083984375 l 1
 10 558.080078125 l 1
 13.6201171875 731.010742188 l 1
 334.729492188 731.010742188 l 1xb8
EndSplineSet
EndChar

StartChar: eng
Encoding: 265 331 135
Width: 653
Flags: W
HStem: 0 21G<103.83 300.159> 346.075 150.927<13.6201 108.151> 347.934 159<318.746 487.736>
VStem: 103.83 196.329<0 253.934> 436 192<16.0035 327.76>
LayerCount: 2
Back
SplineSet
188 253.93359375 m 5xb8
 210.000338808 411.989257812 279.388472577 506.93359375 423 506.93359375 c 4
 558.0703125 506.93359375 628 429.158131451 628 278.93359375 c 4
 628 134.376986611 610.159179688 -15 610.159179688 -15 c 5
 415.830078125 0 l 5
 415.830078125 0 436 138.277935542 436 251.93359375 c 4
 436 312.868913517 418.012695312 347.93359375 367 347.93359375 c 4
 307.390237894 347.93359375 282.693825662 311.094726562 266 216.93359375 c 5
 188 253.93359375 l 5xb8
EndSplineSet
Fore
SplineSet
436 251.93359375 m 0xb8
 436 312.868913517 418.012695312 347.93359375 367 347.93359375 c 0
 307.390237894 347.93359375 282.693825662 311.094726562 266 216.93359375 c 1
 188 253.93359375 l 1
 210.000338808 411.989257812 279.388472577 506.93359375 423 506.93359375 c 0
 558.0703125 506.93359375 628 429.158131451 628 278.93359375 c 0
 628 170.142989767 612.159179688 0 612.159179688 0 c 1
 495 -204 l 1
 313 -118 l 1
 417.830078125 18 l 1
 417.830078125 18 436 160.698425479 436 251.93359375 c 0xb8
294.729492188 497.001953125 m 1xd8
 300.159179688 0 l 1
 103.830078125 0 l 1
 108.151367188 346.075195312 l 1
 10 344.071289062 l 1
 13.6201171875 497.001953125 l 1
 294.729492188 497.001953125 l 1xd8
EndSplineSet
EndChar

StartChar: OE
Encoding: 272 338 136
Width: 1110
Flags: W
HStem: -10.0664 221.351<314.841 463.189> 0 186.293<834.064 1096.54> 278 172<817.455 1044> 289 157<692 914.545> 517.583 221.351<316.189 461.722> 543 188.011<831.104 1088.73>
VStem: 20 234.487<277.075 453.558> 530.513 234.487<278.574 447.153> 688 146.018<289 446>
LayerCount: 2
Fore
SplineSet
692 446 m 1x1280
 1048 450 l 1
 1044 278 l 1x2280
 688 289 l 1
 692 446 l 1x1280
1088.72949219 731.010742188 m 1x4680
 1094.61328125 539 l 1
 831.103515625 543 l 1
 834.017578125 186.48046875 l 1
 834.064453125 186.29296875 l 1
 1100.15917969 187.930664062 l 1
 1096.5390625 0 l 1
 603.4296875 0 l 1
 608.151367188 731.010742188 l 1
 1088.72949219 731.010742188 l 1x4680
EndSplineSet
Refer: 43 79 N 1 0 0 1 0 0 2
EndChar

StartChar: longs
Encoding: 317 383 138
Width: 401
Flags: W
HStem: 0 21G<93.335 298.637> 336 161<12 187>
VStem: 74.8691 203.533<496.497 604.991> 93.335 205.302<0 341 399.965 476.558> 95.9941 91.0059<341 493>
LayerCount: 2
Fore
SplineSet
95.984375 412.096679688 m 2xd0
 95.9908695046 413.106851635 95.9940772295 414.107757517 95.9940772295 415.099589509 c 0xc8
 95.9940772295 495.588724833 74.869140625 516.320441961 74.869140625 580 c 0
 74.869140625 711.412976765 178.933523082 767.86158329 362.01953125 797.84375 c 1
 387.7265625 638.374023438 l 1
 308.182785602 624.482212017 278.40234375 600.703544363 278.40234375 556 c 0xe0
 278.40234375 514.735543854 293.871883933 476.557950382 294.637695312 399.96484375 c 2
 298.63671875 0 l 1
 93.3349609375 0 l 1
 95.984375 412.096679688 l 2xd0
187 341 m 1
 7 336 l 1
 12 497 l 1
 190 493 l 1
 187 341 l 1
EndSplineSet
EndChar

StartChar: uni018F
Encoding: 318 399 139
Width: 761
Flags: W
HStem: -9.99805 205<305.797 438.428> 283.566 162.587<265.162 612.81> 535.63 219.048<189.663 347.075>
VStem: 20 720.81<200.958 398.734>
LayerCount: 2
Back
SplineSet
20 361.93359375 m 0
 20 592.358449127 162.722067273 738.9921875 387 738.9921875 c 0
 692.703602516 738.9921875 740.809570312 528.036293548 740.809570312 395.250976562 c 0
 740.809570312 330.260178936 729.916992188 282.840820312 729.916992188 282.840820312 c 5
 148 284 l 5
 137 441 l 1
 505.647460938 445.427734375 l 1
 505.647460938 445.427734375 494.816386769 543.9921875 381 543.9921875 c 0
 300.33283944 543.9921875 249 476.30370791 249 369.93359375 c 0
 249 231.45533579 353.417075805 194.391339376 594.1484375 183.364257812 c 1
 571.146484375 -25.68359375 l 1
 248.292348682 -22.428262906 20 98.1280331654 20 361.93359375 c 0
EndSplineSet
Fore
SplineSet
740.809570312 362.060546875 m 0
 740.809570312 134.691249164 598.08750304 -9.998046875 373.809570312 -9.998046875 c 0
 68.1059677965 -9.998046875 20 200.957847077 20 333.743164062 c 0
 20 398.73396169 30.892578125 446.153320312 30.892578125 446.153320312 c 1
 612.809570312 444.994140625 l 1
 623.809570312 287.994140625 l 1
 265.162109375 283.56640625 l 1
 265.162109375 283.56640625 265.636556916 279.065598938 267.541882714 272.000000227 c 0
 273.747362309 248.955022613 296.817437408 195.001953125 376.809570312 195.001953125 c 0
 450.143352639 195.001953125 496.809570312 256.857183279 496.809570312 354.060546875 c 0
 496.809570312 488.827630722 396.930414913 524.898323595 166.661132812 535.629882812 c 1
 189.663085938 754.677734375 l 1
 512.51722163 751.380411961 740.809570312 629.269021071 740.809570312 362.060546875 c 0
EndSplineSet
EndChar

StartChar: ordfeminine
Encoding: 104 170 140
Width: 488
Flags: W
HStem: 257 109<50 451> 402 125<172.488 256.538> 410 113<423 479> 623 125<172.789 254.731>
VStem: 13 152<535.066 613.953> 276 145<599 741> 276 66<493 690>
LayerCount: 2
Fore
SplineSet
49 366 m 1x98
 455 370 l 1
 451 253 l 1
 50 257 l 1
 49 366 l 1x98
263 574 m 0
 263 603.944444445 244.793103449 623 215 623 c 0
 185 623 165 603.944444445 165 574 c 0
 165 545.076923077 185 527 215 527 c 0xd8
 244.793103449 527 263 545.076923077 263 574 c 0
342 599 m 0xda
 342 493 285 402 178 402 c 0
 77 402 13 469 13 574 c 0
 13 680 77 748 178 748 c 0
 278 748 342 690 342 599 c 0xda
273 410 m 1xbc
 276 741 l 1
 421 741 l 1
 423 523 l 1
 481 525 l 1
 479 410 l 1
 273 410 l 1xbc
EndSplineSet
EndChar

StartChar: ordmasculine
Encoding: 120 186 141
Width: 399
Flags: W
HStem: 257 109<20 375> 403 129<161.092 239.966> 619 129<161.092 239.966>
VStem: 13 141<538.173 611.903> 245 141<538.173 611.903>
LayerCount: 2
Fore
SplineSet
19 366 m 1
 379 370 l 1
 375 253 l 1
 20 257 l 1
 19 366 l 1
154 576 m 0
 154 549.06122449 172.071428572 532 200 532 c 0
 227.818181818 532 245 549.06122449 245 576 c 0
 245 601.979166667 227.818181818 619 200 619 c 0
 172.071428572 619 154 601.979166667 154 576 c 0
13 577 m 0
 13 682 85 748 199 748 c 0
 313 748 386 682 386 577 c 0
 386 471 313 403 199 403 c 0
 85 403 13 471 13 577 c 0
EndSplineSet
EndChar

StartChar: germandbls
Encoding: 157 223 142
Width: 693
Flags: W
HStem: 0 21G<93.335 298.637> 346 151<12 187> 610.374 164.47<300.63 414.692>
VStem: 83.8691 199.533<495.071 593> 93.335 205.302<0 351 399.965 471.157> 96.0016 90.9984<351 493> 438.509 203.491<472.136 587.73>
LayerCount: 2
Fore
SplineSet
190 493 m 1xe6
 187 351 l 1
 7 346 l 1
 12 497 l 1
 190 493 l 1xe6
95.984375 412.096679688 m 2
 95.9959086754 413.890657241 96.0015537459 415.65609147 96.0015537459 417.394009255 c 0xe6
 96.0015537459 493.127137489 83.869140625 513.271391285 83.869140625 574 c 0
 83.869140625 695.157825515 186.433379705 774.84375 367.01953125 774.84375 c 0
 532.334691649 774.84375 642 698.279980665 642 526.93359375 c 0
 642 443.441123355 616.232421875 379.700195312 616.232421875 379.700195312 c 1
 616.232421875 379.700195312 543.431640625 375.533591378 543.431640625 339.5 c 0
 543.431640625 327.994963171 549.828755357 320.148659972 585.732421875 300.799804688 c 0
 648.427999763 266.738578922 673.2890625 232.329015775 673.2890625 172 c 0
 673.2890625 -19.900390625 363.0390625 -23.900390625 363.0390625 -23.900390625 c 1
 341.569335938 116.900390625 l 1
 341.569335938 116.900390625 455.9375 121.600640303 455.9375 164 c 0
 455.9375 180.963197079 445.751881367 189.731079936 420.536132812 203.700195312 c 0
 350.609167038 242.619202251 325 275.688663817 325 335 c 0
 325 412.617264859 378.26638716 453.75826778 433.392578125 475.552734375 c 1
 433.392578125 475.552734375 438.508789062 494.44740268 438.508789062 525.416015625 c 0
 438.508789062 573.409382013 415.31195085 610.374023438 359 610.374023438 c 0
 303.582444937 610.374023438 283.40234375 580.468691496 283.40234375 545 c 0xf2
 283.40234375 506.644561465 293.925886059 471.156893728 294.637695312 399.96484375 c 2
 298.63671875 0 l 1
 93.3349609375 0 l 1xea
 95.984375 412.096679688 l 2
EndSplineSet
EndChar

StartChar: florin
Encoding: 319 402 144
Width: 433
Flags: W
HStem: 336 161<12 224> 480 20G<190 412.545>
VStem: 74.8691 203.533<496.087 604.991> 95.9941 198.644<30 476.488>
LayerCount: 2
Fore
SplineSet
12 497 m 1x80
 190 493 l 1
 413 500 l 1x40
 409 324 l 1
 187 341 l 1
 7 336 l 1
 12 497 l 1x80
298.63671875 10 m 1
 186.477539062 -204 l 1
 -0.5224609375 -118 l 1
 92.3076171875 30 l 1
 95.984375 412.096679688 l 2
 95.9940268621 413.125973228 95.994140625 414.120894614 95.994140625 415.099609375 c 0x10
 95.994140625 494.065459228 74.869140625 515.800022262 74.869140625 580 c 0
 74.869140625 711.412976765 178.933523082 767.86158329 362.01953125 797.84375 c 1
 387.7265625 638.374023438 l 1
 308.182785602 624.482212017 278.40234375 600.703544362 278.40234375 556 c 0x20
 278.40234375 514.735543853 293.87258163 476.48816976 294.637695312 399.96484375 c 2x10
 298.63671875 10 l 1
EndSplineSet
EndChar

StartChar: circumflex
Encoding: 427 710 145
Width: 332
Flags: W
HStem: 516 232
LayerCount: 2
Fore
SplineSet
164 748 m 25
 337 612 l 25
 239 516 l 25
 165 600 l 25
 89 522 l 25
 -5 606 l 25
 164 748 l 25
EndSplineSet
EndChar

StartChar: caron
Encoding: 428 711 146
Width: 332
Flags: W
HStem: 516 232
LayerCount: 2
Fore
SplineSet
168 516 m 25
 -5 652 l 25
 93 748 l 25
 167 664 l 25
 243 742 l 25
 337 658 l 25
 168 516 l 25
EndSplineSet
EndChar

StartChar: tilde
Encoding: 434 732 147
Width: 389
Flags: W
HStem: 513.187 234.475 713.706 20G<282.718 320.156>
LayerCount: 2
Fore
SplineSet
245.321289062 670.379882812 m 1x80
 299.98046875 733.706054688 l 1x40
 388.66015625 645.795898438 l 1
 251.280273438 513.186523438 l 1
 150.33984375 590.467773438 l 1
 89.6806640625 527.140625 l 1
 1 615.051757812 l 1
 143.380859375 747.661132812 l 1
 245.321289062 670.379882812 l 1x80
EndSplineSet
EndChar

StartChar: zero.superior
Encoding: 660 8304 148
Width: 449
Flags: W
HStem: 342 142<183.705 266.054> 701 142<183.705 266.054>
VStem: 13 147<509.052 677.811> 289.5 147<509.052 677.811>
LayerCount: 2
Fore
SplineSet
160 591 m 0
 160 526 185 484 224.5 484 c 0
 264.5 484 289.5 526 289.5 591 c 0
 289.5 658.5 264.5 701 224.5 701 c 0
 185 701 160 658.5 160 591 c 0
13 591 m 0
 13 745 96 843 225 843 c 0
 354.5 843 436.5 745 436.5 591 c 0
 436.5 439 354.5 342 225 342 c 0
 96 342 13 439 13 591 c 0
EndSplineSet
EndChar

StartChar: one.superior
Encoding: 119 185 149
Width: 249
Flags: W
HStem: 710.5 126.5<9.5 79.5>
VStem: 9.5 217.5<711.5 837> 79.5 147.5<350 711.5>
LayerCount: 2
Fore
SplineSet
227 837 m 1xc0
 230.5 350 l 1
 76.5 350 l 1
 79.5 711.5 l 1xa0
 7 710.5 l 1
 9.5 837 l 1
 227 837 l 1xc0
EndSplineSet
EndChar

StartChar: two.superior
Encoding: 112 178 150
Width: 396
Flags: W
HStem: 350 134<235 377> 708 135<79.8733 198.651>
VStem: 210 160<595.412 696.875>
LayerCount: 2
Fore
SplineSet
235 484 m 1
 383 488 l 1
 377 350 l 1
 20 350 l 1
 13 460 l 1
 13 460 210 546.5 210 646.5 c 0
 210 688 188 708 150 708 c 0
 92.5 708 58 668 58 668 c 1
 11 792.5 l 1
 11 792.5 74 843 181 843 c 0
 303 843 370 781 370 683 c 0
 370 546.5 235 484 235 484 c 1
EndSplineSet
EndChar

StartChar: three.superior
Encoding: 113 179 151
Width: 387
Flags: W
HStem: 343 126<34.6072 207.373> 476 20G<29.3226 34> 697.5 139.5<20 176.5>
VStem: 214 159<475.794 540.867>
LayerCount: 2
Fore
SplineSet
268 630 m 1
 268 630 276 628.5 288.5 624.5 c 0
 322.5 613.5 373 580.5 373 494 c 0
 373 395 297 343 178 343 c 0
 57 343 5 372 5 372 c 1
 34 496 l 1
 34 496 83.5 469 153 469 c 0
 196.5 469 214 484 214 509.5 c 0
 214 532.5 195 548 157.5 548 c 0
 122.5 548 104 542 104 542 c 1
 87 617 l 1
 176.5 701.5 l 1
 13 697.5 l 1
 20 837 l 1
 353 837 l 1
 359 724.5 l 1
 268 630 l 1
EndSplineSet
EndChar

StartChar: four.superior
Encoding: 661 8308 152
Width: 472
Flags: W
HStem: 455.5 124<178 453> 717 20G<245.293 386.707>
LayerCount: 2
Fore
SplineSet
386.5 737 m 1
 390.5 350 l 1
 241.5 350 l 1
 245.5 737 l 1
 386.5 737 l 1
199 853 m 1
 317 785 l 1
 178 579.5 l 1
 457 582.5 l 1
 453 450.5 l 1
 34 455.5 l 1
 9 549.5 l 1
 199 853 l 1
EndSplineSet
EndChar

StartChar: five.superior
Encoding: 662 8309 153
Width: 387
Flags: W
HStem: 343 126<48.7181 207.479> 478 20G<28.2941 33> 561.5 107.5<135 273.5> 709.5 127.5<166 346>
VStem: 217 156<477.481 552.397>
LayerCount: 2
Fore
SplineSet
346 708.5 m 1
 166 709.5 l 1
 156 657 l 1
 156 657 172 669 217 669 c 0
 330 669 373 607 373 514 c 0
 373 395 297 343 178 343 c 0
 57 343 5 379 5 379 c 1
 33 498 l 1
 33 498 85 469 156 469 c 0
 197 469 217 487.5 217 516.5 c 0
 217 544.5 196.5 561.5 155 561.5 c 0
 115 561.5 91.5 542 91.5 542 c 1
 13 604.5 l 1
 53 837 l 1
 346 837 l 1
 346 708.5 l 1
EndSplineSet
EndChar

StartChar: six.superior
Encoding: 663 8310 154
Width: 411
Flags: W
HStem: 342 122.5<172.126 248.139> 559.5 107.5<174.32 298> 720 129<239.815 332.368>
VStem: 13 152<472.469 611.116> 255.5 143<471.897 554.036>
LayerCount: 2
Fore
SplineSet
331.5 849 m 1
 347.5 720 l 1
 186.5 705 174 652.5 174 652.5 c 1
 174 652.5 195 667 252.5 667 c 0
 343.5 667 398.5 606 398.5 513 c 0
 398.5 416 346.5 342 210.5 342 c 0
 92.5 342 13 404.5 13 556.5 c 0
 13 697 89.5 835.5 331.5 849 c 1
165 512.5 m 0
 165 483 183 464.5 210.5 464.5 c 0
 238.5 464.5 255.5 483 255.5 512.5 c 0
 255.5 541.5 238.5 559.5 210.5 559.5 c 0
 183 559.5 165 541.5 165 512.5 c 0
EndSplineSet
EndChar

StartChar: seven.superior
Encoding: 664 8311 155
Width: 381
Flags: W
HStem: 699.5 137.5<143 219>
LayerCount: 2
Fore
SplineSet
5 632.5 m 1
 25 837 l 1
 354.5 837 l 1
 388.5 738.5 l 1
 236 335.5 l 1
 83.5 378.5 l 1
 219 700.5 l 1
 143 699.5 l 1
 132.5 620.5 l 1
 5 632.5 l 1
EndSplineSet
EndChar

StartChar: eight.superior
Encoding: 665 8312 156
Width: 407
Flags: W
HStem: 342 122<158.052 238.96> 723 120<171.708 240.653>
VStem: 13 140.5<469.239 546.709> 30.5 139<664.886 719.898> 243.5 151<467.671 531.997> 244.5 131<647.791 720.406>
LayerCount: 2
Fore
SplineSet
200.5 464 m 0xe8
 227 464 243.5 477.5 243.5 499 c 0xe8
 243.5 522.5 227.5 534 178 552.5 c 0
 79.5 589 30.5 633 30.5 707.5 c 0
 30.5 790.5 99 843 206.5 843 c 0
 310 843 375.5 796.5 375.5 712.5 c 0
 375.5 621 274.5 587.5 274.5 587.5 c 1
 190 627.5 l 1
 190 627.5 244.5 653 244.5 687.5 c 0
 244.5 709.5 230.5 723 206.5 723 c 0
 184 723 169.5 711 169.5 692 c 0xd4
 169.5 673.5 182.5 664.5 222.5 653.5 c 0
 349 618 394.5 572.5 394.5 493 c 0
 394.5 399 323.5 342 205 342 c 0
 90 342 13 397.5 13 481 c 0
 13 575.5 108.5 606 108.5 606 c 1
 196 561.5 l 1
 196 561.5 153.5 543 153.5 502 c 0
 153.5 479 172 464 200.5 464 c 0xe8
EndSplineSet
EndChar

StartChar: nine.superior
Encoding: 666 8313 157
Width: 411
Flags: W
HStem: 336 128.5<79.6556 172.685> 518 107.5<114 238.198> 720.5 122.5<163.741 239.752>
VStem: 13 143<631.561 713.888> 246.5 152<572.99 713.967>
LayerCount: 2
Fore
SplineSet
80.5 336 m 1
 65 464.5 l 1
 226 479.5 238.5 533 238.5 533 c 1
 238.5 533 217 518 159.5 518 c 0
 68.5 518 13 577.5 13 668.5 c 0
 13 767.5 65.5 843 201.5 843 c 0
 319.5 843 398.5 782 398.5 632 c 0
 398.5 490 322.5 350 80.5 336 c 1
246.5 672.5 m 0
 246.5 702 229.5 720.5 202 720.5 c 0
 174 720.5 156 702 156 672.5 c 0
 156 643.5 174 625.5 202 625.5 c 0
 229.5 625.5 246.5 643.5 246.5 672.5 c 0
EndSplineSet
EndChar

StartChar: zero.inferior
Encoding: 667 8320 158
Width: 449
Flags: W
HStem: -358 142<183.705 266.054> 1 142<183.705 266.054>
VStem: 13 147<-190.948 -22.1894> 289.5 147<-190.948 -22.1894>
LayerCount: 2
Fore
SplineSet
160 -109 m 0
 160 -174 185 -216 224.5 -216 c 0
 264.5 -216 289.5 -174 289.5 -109 c 0
 289.5 -41.5 264.5 1 224.5 1 c 0
 185 1 160 -41.5 160 -109 c 0
13 -109 m 0
 13 45 96 143 225 143 c 0
 354.5 143 436.5 45 436.5 -109 c 0
 436.5 -261 354.5 -358 225 -358 c 0
 96 -358 13 -261 13 -109 c 0
EndSplineSet
EndChar

StartChar: one.inferior
Encoding: 668 8321 159
Width: 249
Flags: W
HStem: 10.5 126.5<9.5 79.5>
VStem: 9.5 217.5<11.5 137> 79.5 147.5<-350 11.5>
LayerCount: 2
Fore
SplineSet
227 137 m 1xc0
 230.5 -350 l 1
 76.5 -350 l 1
 79.5 11.5 l 1xa0
 7 10.5 l 1
 9.5 137 l 1
 227 137 l 1xc0
EndSplineSet
EndChar

StartChar: two.inferior
Encoding: 669 8322 160
Width: 396
Flags: W
HStem: -350 134<235 377> 8 135<79.8733 198.651>
VStem: 210 160<-104.588 -3.12504>
LayerCount: 2
Fore
SplineSet
235 -216 m 1
 383 -212 l 1
 377 -350 l 1
 20 -350 l 1
 13 -240 l 1
 13 -240 210 -153.5 210 -53.5 c 0
 210 -12 188 8 150 8 c 0
 92.5 8 58 -31 58 -31 c 1
 11 92 l 1
 11 92 74 143 181 143 c 0
 303 143 370 81 370 -17 c 0
 370 -153.5 235 -216 235 -216 c 1
EndSplineSet
EndChar

StartChar: three.inferior
Encoding: 670 8323 161
Width: 387
Flags: W
HStem: -357 126<34.6072 207.373> -2.5 139.5<20 176.5>
VStem: 214 159<-224.206 -159.036>
LayerCount: 2
Fore
SplineSet
268 -70 m 1
 268 -70 276 -71 288.5 -75 c 0
 322.5 -86 373 -119.5 373 -206 c 0
 373 -305 297 -357 178 -357 c 0
 57 -357 5 -328 5 -328 c 1
 34 -204 l 1
 34 -204 83.5 -231 153 -231 c 0
 196.5 -231 214 -216 214 -190.5 c 0
 214 -167 195 -152 157.5 -152 c 0
 122.5 -152 104 -158 104 -158 c 1
 87 -82.5 l 1
 176.5 1.5 l 1
 13 -2.5 l 1
 20 137 l 1
 353 137 l 1
 359 24.5 l 1
 268 -70 l 1
EndSplineSet
EndChar

StartChar: four.inferior
Encoding: 671 8324 162
Width: 472
Flags: W
HStem: -244.5 124<178 453>
LayerCount: 2
Fore
SplineSet
386.5 38.5 m 1
 390.5 -350 l 1
 241.5 -350 l 1
 245.5 38.5 l 1
 386.5 38.5 l 1
199 155.5 m 1
 317 86.5 l 1
 178 -120.5 l 1
 457 -117.5 l 1
 453 -249.5 l 1
 34 -244.5 l 1
 9 -150.5 l 1
 199 155.5 l 1
EndSplineSet
EndChar

StartChar: five.inferior
Encoding: 672 8325 163
Width: 387
Flags: W
HStem: -357 126<48.7181 207.479> -138 107<135 273.5> 9.5 127.5<166 346>
VStem: 217 156<-222.519 -147.443>
LayerCount: 2
Fore
SplineSet
346 8.5 m 1
 166 9.5 l 1
 156 -43 l 1
 156 -43 172 -31 217 -31 c 0
 330 -31 373 -93 373 -186 c 0
 373 -305 297 -357 178 -357 c 0
 57 -357 5 -321 5 -321 c 1
 33 -202 l 1
 33 -202 85 -231 156 -231 c 0
 197 -231 217 -212.5 217 -183.5 c 0
 217 -155.5 196.5 -138 155 -138 c 0
 115 -138 91.5 -158 91.5 -158 c 1
 13 -95.5 l 1
 53 137 l 1
 346 137 l 1
 346 8.5 l 1
EndSplineSet
EndChar

StartChar: six.inferior
Encoding: 673 8326 164
Width: 411
Flags: W
HStem: -358 122.5<172.126 248.139> -140.5 107.5<174.32 298> 20.5 128.5<239.815 332.372>
VStem: 13 152<-227.531 -88.8838> 255.5 143<-228.103 -145.964>
LayerCount: 2
Fore
SplineSet
331.5 149 m 1
 347.5 20.5 l 1
 186.5 5.5 174 -48 174 -48 c 1
 174 -48 195 -33 252.5 -33 c 0
 343.5 -33 398.5 -94 398.5 -187 c 0
 398.5 -284 346.5 -358 210.5 -358 c 0
 92.5 -358 13 -295.5 13 -143.5 c 0
 13 -3 89.5 135.5 331.5 149 c 1
165 -187.5 m 0
 165 -217 183 -235.5 210.5 -235.5 c 0
 238.5 -235.5 255.5 -217 255.5 -187.5 c 0
 255.5 -158.5 238.5 -140.5 210.5 -140.5 c 0
 183 -140.5 165 -158.5 165 -187.5 c 0
EndSplineSet
EndChar

StartChar: seven.inferior
Encoding: 674 8327 165
Width: 381
Flags: W
HStem: 0.5 136.5<143 219>
LayerCount: 2
Fore
SplineSet
5 -66 m 1
 25 137 l 1
 354.5 137 l 1
 388.5 39.5 l 1
 236 -361 l 1
 83.5 -318.5 l 1
 219 1.5 l 1
 143 0.5 l 1
 132.5 -78 l 1
 5 -66 l 1
EndSplineSet
EndChar

StartChar: eight.inferior
Encoding: 675 8328 166
Width: 407
Flags: W
HStem: -358 122<158.052 238.96> 23 120<171.708 240.653>
VStem: 13 140.5<-230.729 -153.166> 30.5 139<-35.1138 19.8983> 243.5 151<-232.329 -168.003> 244.5 131<-52.6074 20.1566>
LayerCount: 2
Fore
SplineSet
200.5 -236 m 0xe8
 227 -236 243.5 -222.5 243.5 -201 c 0xe8
 243.5 -177.5 227.5 -166 178 -147.5 c 0
 79.5 -111 30.5 -67 30.5 7.5 c 0
 30.5 90.5 99 143 206.5 143 c 0
 310 143 375.5 96 375.5 12 c 0
 375.5 -79.5 274.5 -112.5 274.5 -112.5 c 1
 190 -73 l 1
 190 -73 244.5 -47.5 244.5 -12.5 c 0
 244.5 9.5 230.5 23 206.5 23 c 0
 184 23 169.5 11 169.5 -8 c 0xd4
 169.5 -26.5 182.5 -35.5 222.5 -46.5 c 0
 349 -82 394.5 -127.5 394.5 -207 c 0
 394.5 -301 323.5 -358 205 -358 c 0
 90 -358 13 -302 13 -219 c 0
 13 -124.5 108.5 -94 108.5 -94 c 1
 196 -138 l 1
 196 -138 153.5 -157 153.5 -198 c 0
 153.5 -221 172 -236 200.5 -236 c 0xe8
EndSplineSet
EndChar

StartChar: nine.inferior
Encoding: 676 8329 167
Width: 411
Flags: W
HStem: -364.5 129<79.6589 172.685> -182 107.5<114 238.198> 20.5 122.5<163.741 239.752>
VStem: 13 143<-68.4387 13.8881> 246.5 152<-127.26 13.7435>
LayerCount: 2
Fore
SplineSet
80.5 -364.5 m 1
 65 -235.5 l 1
 226 -220.5 238.5 -167 238.5 -167 c 1
 238.5 -167 217 -182 159.5 -182 c 0
 68.5 -182 13 -122.5 13 -31.5 c 0
 13 67.5 65.5 143 201.5 143 c 0
 319.5 143 398.5 81.5 398.5 -68.5 c 0
 398.5 -210.5 322.5 -350.5 80.5 -364.5 c 1
246.5 -27.5 m 0
 246.5 2 229.5 20.5 202 20.5 c 0
 174 20.5 156 2 156 -27.5 c 0
 156 -56.5 174 -74.5 202 -74.5 c 0
 229.5 -74.5 246.5 -56.5 246.5 -27.5 c 0
EndSplineSet
EndChar

StartChar: fraction
Encoding: 655 8260 168
Width: 238
Flags: W
LayerCount: 2
Fore
SplineSet
427.329101562 669.43359375 m 1
 188.708984375 342.299804688 l 1
 -18.2412109375 -28.5 l 1
 -149.5703125 54.5 l 1
 92.908203125 385.700195312 l 1
 302.599609375 751.43359375 l 1
 427.329101562 669.43359375 l 1
EndSplineSet
EndChar

StartChar: perthousand
Encoding: 646 8240 169
Width: 1164
Flags: W
HStem: -10 138.558<636.62 709.464 918.865 991.692> 232.225 138.654<636.62 711.718 916.62 991.692> 358.113 138.558<176.219 252.102> 600.338 138.654<176.219 252.102>
VStem: 19.5205 149.304<502.88 592.568> 259.784 149.336<505.343 592.568> 484.521 143.304<134.767 224.455> 784.521 59.5996<64.4329 297.192> 1000.78 143.336<137.23 224.455>
LayerCount: 2
Fore
SplineSet
168.82421875 549.370117188 m 0xbf80
 168.82421875 517.165114302 186.398320786 496.670898438 214.015625 496.670898438 c 0
 241.985334438 496.670898438 259.784179688 517.165114302 259.784179688 549.370117188 c 0
 259.784179688 580.517239879 241.985334438 600.337890625 214.015625 600.337890625 c 0
 186.398320786 600.337890625 168.82421875 580.517239879 168.82421875 549.370117188 c 0xbf80
19.5205078125 549.512695312 m 0
 19.5205078125 665.306018314 95.1511135263 738.9921875 214 738.9921875 c 0
 333.240276768 738.9921875 409.120117188 665.306018314 409.120117188 549.512695312 c 0
 409.120117188 432.546187025 333.240276768 358.11328125 214 358.11328125 c 0
 95.1511135263 358.11328125 19.5205078125 432.546187025 19.5205078125 549.512695312 c 0
909.82421875 181.256835938 m 0
 909.82421875 149.05226837 927.397940831 128.557617188 955.015625 128.557617188 c 0
 982.985348292 128.557617188 1000.78417969 149.05226837 1000.78417969 181.256835938 c 0
 1000.78417969 212.404165873 982.985348292 232.224609375 955.015625 232.224609375 c 0xdf80
 927.397940831 232.224609375 909.82421875 212.404165873 909.82421875 181.256835938 c 0
784.520507812 181.399414062 m 0
 784.520507812 297.192382812 852.373594989 370.87890625 959 370.87890625 c 0
 1072.12911492 370.87890625 1144.12011719 297.192382812 1144.12011719 181.399414062 c 0
 1144.12011719 64.4326171876 1072.12911492 -10 959 -10 c 0
 852.373594989 -10 784.520507812 64.4326171876 784.520507812 181.399414062 c 0
627.82421875 181.256835938 m 0
 627.82421875 149.051833052 645.398320786 128.557617188 673.015625 128.557617188 c 0
 700.985334438 128.557617188 718.784179688 149.051833052 718.784179688 181.256835938 c 0
 718.784179688 212.403958628 700.985334438 232.224609375 673.015625 232.224609375 c 0
 645.398320786 232.224609375 627.82421875 212.403958628 627.82421875 181.256835938 c 0
484.520507812 181.399414062 m 0
 484.520507812 297.192737064 556.26224047 370.87890625 669 370.87890625 c 0
 776.018033517 370.87890625 844.120117188 297.192737064 844.120117188 181.399414062 c 0
 844.120117188 64.4329057752 776.018033517 -10 669 -10 c 0
 556.26224047 -10 484.520507812 64.432905775 484.520507812 181.399414062 c 0
EndSplineSet
Refer: 168 8260 N 1 0 0 1 304 0 2
EndChar

StartChar: uni2031
Encoding: 647 8241 170
Width: 1444
Flags: W
HStem: -10 138.558<637.12 712.218 912.661 985.66 1186.72 1261.2> 232.225 138.654<637.12 712.218 912.661 985.66 1186.72 1261.2> 358.113 138.558<176.219 252.102> 600.338 138.654<176.219 252.102>
VStem: 19.5205 149.304<502.88 592.568> 259.784 149.336<505.343 592.568> 484.521 144.304<134.767 224.455> 769.521 74.5996<64.4329 297.192> 1064.52 64.5996<64.4326 297.192> 1269.78 154.336<137.23 224.455>
LayerCount: 2
Fore
SplineSet
168.82421875 549.370117188 m 0xbfc0
 168.82421875 517.165114302 186.398320786 496.670898438 214.015625 496.670898438 c 0
 241.985334438 496.670898438 259.784179688 517.165114302 259.784179688 549.370117188 c 0
 259.784179688 580.517239879 241.985334438 600.337890625 214.015625 600.337890625 c 0
 186.398320786 600.337890625 168.82421875 580.517239879 168.82421875 549.370117188 c 0xbfc0
19.5205078125 549.512695312 m 0
 19.5205078125 665.306018314 95.1511135263 738.9921875 214 738.9921875 c 0
 333.240276768 738.9921875 409.120117188 665.306018314 409.120117188 549.512695312 c 0
 409.120117188 432.546187025 333.240276768 358.11328125 214 358.11328125 c 0
 95.1511135263 358.11328125 19.5205078125 432.546187025 19.5205078125 549.512695312 c 0
1178.82421875 181.256835938 m 0
 1178.82421875 149.05226837 1196.39794084 128.557617188 1224.015625 128.557617188 c 0
 1251.9853483 128.557617188 1269.78417969 149.05226837 1269.78417969 181.256835938 c 0
 1269.78417969 212.404165873 1251.9853483 232.224609375 1224.015625 232.224609375 c 0xdfc0
 1196.39794084 232.224609375 1178.82421875 212.404165873 1178.82421875 181.256835938 c 0
1064.52050781 181.399414062 m 0
 1064.52050781 297.192382812 1132.37359499 370.87890625 1239 370.87890625 c 0
 1352.12911492 370.87890625 1424.12011719 297.192382812 1424.12011719 181.399414062 c 0
 1424.12011719 64.4326171876 1352.12911492 -10 1239 -10 c 0
 1132.37359499 -10 1064.52050781 64.4326171876 1064.52050781 181.399414062 c 0
903.82421875 181.256835938 m 0
 903.82421875 149.05226837 921.397940831 128.557617188 949.015625 128.557617188 c 0
 976.985348293 128.557617188 994.784179688 149.05226837 994.784179688 181.256835938 c 0
 994.784179688 212.404165873 976.985348293 232.224609375 949.015625 232.224609375 c 0
 921.397940831 232.224609375 903.82421875 212.404165873 903.82421875 181.256835938 c 0
769.520507812 181.399414062 m 0
 769.520507812 297.192382812 839.318038039 370.87890625 949 370.87890625 c 0
 1059.07355519 370.87890625 1129.12011719 297.192382812 1129.12011719 181.399414062 c 0
 1129.12011719 64.4326171876 1059.07355519 -10 949 -10 c 0
 839.318038039 -10 769.520507812 64.4326171876 769.520507812 181.399414062 c 0
628.82421875 181.256835938 m 0
 628.82421875 149.051833052 646.398320786 128.557617188 674.015625 128.557617188 c 0
 701.985334438 128.557617188 719.784179688 149.051833052 719.784179688 181.256835938 c 0
 719.784179688 212.403958628 701.985334438 232.224609375 674.015625 232.224609375 c 0
 646.398320786 232.224609375 628.82421875 212.403958628 628.82421875 181.256835938 c 0
484.520507812 181.399414062 m 0
 484.520507812 297.192737064 556.26224047 370.87890625 669 370.87890625 c 0
 776.018033517 370.87890625 844.120117188 297.192737064 844.120117188 181.399414062 c 0
 844.120117188 64.4329057752 776.018033517 -10 669 -10 c 0
 556.26224047 -10 484.520507812 64.432905775 484.520507812 181.399414062 c 0
EndSplineSet
Refer: 168 8260 N 1 0 0 1 304 0 2
EndChar

StartChar: Lslash
Encoding: 255 321 171
Width: 620
Flags: W
HStem: 0 186.293<349.065 606.539> 495 20G<405.247 448.714> 545.084 185.927<13.6201 123.151>
VStem: 118.43 230.635<186.293 545.084>
LayerCount: 2
Fore
SplineSet
443 515 m 9
 477 396 l 17
 259 320.293945312 l 1
 49 207 l 9
 11 329 l 17
 233 403.75 l 1
 443 515 l 9
EndSplineSet
Refer: 44 76 N 1 0 0 1 0 0 2
EndChar

StartChar: lslash
Encoding: 256 322 172
Width: 407
Flags: W
HStem: 0 161.397<304.129 393.539> 594.075 160.927<13.6201 103.151>
VStem: 98.8301 205.299<161.397 594.075>
LayerCount: 2
Fore
SplineSet
363 555 m 9
 397 436 l 17
 219 360.293945312 l 1
 49 257 l 9
 11 379 l 17
 193 443.75 l 1
 363 555 l 9
EndSplineSet
Refer: 8 108 N 1 0 0 1 0 0 2
EndChar

StartChar: quoteright
Encoding: 635 8217 173
Width: 244
Flags: W
VStem: 1 242
LayerCount: 2
Fore
SplineSet
1 723 m 9
 204 765 l 1
 243 616 l 1
 145 425 l 1
 12 467 l 17
 64 581 l 1
 1 723 l 9
EndSplineSet
EndChar

StartChar: uni2120
Encoding: 702 8480 179
Width: 540
Flags: W
VStem: 80.0488 106.886<546.827 594.751>
LayerCount: 2
Fore
SplineSet
150.276367188 765.357421875 m 1
 150.276367188 765.357421875 8.0009765625 762.795898438 8.0009765625 671.666015625 c 0
 8.0009765625 637.20586893 20.5555838492 617.067608545 59.361328125 594.5625 c 0
 75.4681459915 584.910773871 80.048828125 578.694952443 80.048828125 569.400390625 c 0
 80.048828125 540.849609375 18.888671875 537.673828125 18.888671875 537.673828125 c 1
 29.77734375 462.049804688 l 1
 29.77734375 462.049804688 186.934570312 464.396484375 186.934570312 570.418945312 c 0
 186.934570312 601.216055264 176.409246572 620.119954473 150.114257812 636.260742188 c 0
 121.824128845 655.09179141 114.908203125 659.01474008 114.908203125 667.774414062 c 0
 114.908203125 688.403320312 162.6171875 692.837890625 162.6171875 692.837890625 c 1
 150.276367188 765.357421875 l 1
237.327148438 678.084960938 m 1
 191 675.631835938 l 1
 189.248046875 762.404296875 l 1
 344.091796875 766.404296875 l 1
 375 679.799804688 l 1
 416.599609375 766 l 1
 512.200195312 762.400390625 l 1
 535.799804688 472 l 1
 437 466.400390625 l 1
 425.400390625 616.400390625 l 1
 372.200195312 523 l 1
 323.799804688 612.799804688 l 1
 310.200195312 467.599609375 l 1
 219.799804688 473.599609375 l 1
 237.327148438 678.084960938 l 1
EndSplineSet
EndChar

StartChar: trademark
Encoding: 703 8482 180
Width: 608
Flags: W
HStem: 683.2 22.833<69.4609 162.642> 683.232 79.1719<5.44824 69.4609 162.642 227.492>
VStem: 67.7324 96.5312<470 705.2>
LayerCount: 2
Fore
SplineSet
162.641601562 705.200195312 m 1xa0
 164.263671875 470 l 1
 67.732421875 470 l 1
 69.4609375 706.033203125 l 1
 162.641601562 705.200195312 l 1xa0
116.841796875 683.200195312 m 1
 4 683.232421875 l 1
 5.4482421875 762.404296875 l 1
 227.4921875 762.404296875 l 1x60
 229.845703125 681.599609375 l 1
 116.841796875 683.200195312 l 1
304.52734375 678.084960938 m 1
 258.200195312 675.631835938 l 1
 256.448242188 762.404296875 l 1
 411.291992188 766.404296875 l 1
 442.200195312 679.799804688 l 1
 483.799804688 766 l 1
 579.400390625 762.400390625 l 1
 603 472 l 1
 504.200195312 466.400390625 l 1
 492.599609375 616.400390625 l 1
 439.400390625 523 l 1
 391 612.799804688 l 1
 377.400390625 467.599609375 l 1
 287 473.599609375 l 1
 304.52734375 678.084960938 l 1
EndSplineSet
EndChar

StartChar: uni2117
Encoding: 701 8471 181
Width: 795
Flags: W
HStem: -10.0664 105.877<284.096 517.046> 245.358 111<401.8 478.499> 457.193 126.6<399.984 478.284> 457.193 42.7549<314.29 398.957> 635.64 103.294<284.096 512.387>
VStem: 20 113<249.021 481.886> 268.919 130.038<140.398 272.059 374.924 499.948> 487.305 134.4<365.024 445.977> 669.117 105.883<249.021 481.886>
LayerCount: 2
Fore
SplineSet
400.956054688 140.3984375 m 1xdf80
 265.216796875 140.3984375 l 1
 268.918945312 499.948242188 l 1
 398.95703125 499.948242188 l 1
 400.956054688 140.3984375 l 1xdf80
365.072265625 374.923828125 m 1
 365.072265625 374.923828125 383.087680506 356.358398438 429.705078125 356.358398438 c 0
 467.457593324 356.358398438 487.3046875 375.630456631 487.3046875 406.7578125 c 0
 487.3046875 440.528829663 466.174846501 457.193359375 419.504882812 457.193359375 c 0
 314.290077395 457.193359375 220.616210938 414.254882812 220.616210938 414.254882812 c 1
 195.854492188 539.302734375 l 1
 195.854492188 539.302734375 265.602566389 583.79296875 429.705078125 583.79296875 c 0xef80
 548.155673363 583.79296875 621.705078125 518.254189374 621.705078125 403.7578125 c 0
 621.705078125 307.69078505 557.491612215 245.358398438 453.705078125 245.358398438 c 0
 387.544277266 245.358398438 347.708984375 272.05859375 347.708984375 272.05859375 c 1
 365.072265625 374.923828125 l 1
20 361.93359375 m 0
 20 592.322641811 166.610951939 738.93359375 397 738.93359375 c 0
 628.000476926 738.93359375 775 592.322641811 775 361.93359375 c 0
 775 134.599173678 628.000476926 -10.06640625 397 -10.06640625 c 0
 166.610951939 -10.06640625 20 134.599173678 20 361.93359375 c 0
133 361.93359375 m 0
 133 199.302493054 236.054635416 95.810546875 398 95.810546875 c 0
 563.683162834 95.810546875 669.1171875 199.302493054 669.1171875 361.93359375 c 0
 669.1171875 529.199728745 563.683162834 635.639648438 398 635.639648438 c 0
 236.054635416 635.639648438 133 529.199728745 133 361.93359375 c 0
EndSplineSet
EndChar

StartChar: lira
Encoding: 679 8356 182
Width: 576
Flags: W
HStem: 0 186.293<274.064 556.539> 228 104<254.044 428> 236 95<14 351.33> 358 104<269.935 438> 366 95<24 374.22>
LayerCount: 2
Back
SplineSet
14 326 m 1
 430 327 l 1
 428 218 l 1
 12 226 l 1
 14 326 l 1
24 466 m 1
 440 467 l 1
 438 358 l 1
 22 366 l 1
 24 466 l 1
EndSplineSet
Fore
SplineSet
14 331 m 1xa0
 208 325.466796875 l 1
 430 332 l 1
 428 228 l 1xc0
 190 237.577148438 l 1
 12 236 l 1
 14 331 l 1xa0
24 461 m 1x88
 225 456 l 1
 440 462 l 1
 438 358 l 1x90
 215 367.288085938 l 1
 22 366 l 1
 24 461 l 1x88
274.064453125 186.29296875 m 1
 560.159179688 187.930664062 l 1
 556.5390625 0 l 1
 23.4296875 0 l 1
 44.4187518606 452.125433501 135.496678414 623.005046291 421.930664062 747.6640625 c 1
 518.798828125 581.354492188 l 1
 363.88267649 515.230810546 291.402258098 398.229573963 274.064453125 186.29296875 c 1
EndSplineSet
EndChar

StartChar: Euro
Encoding: 684 8364 183
Width: 541
Flags: W
HStem: 256 90<12 252.368> 378 99<368.613 462.978>
LayerCount: 2
Fore
SplineSet
12 346 m 1
 238 339.5078125 l 1
 456.83984375 347 l 1
 439.2734375 248 l 1
 232 262.213867188 l 1
 10 256 l 1
 12 346 l 1
15 476 m 1
 248 462.45703125 l 1
 480.543945312 477 l 1
 462.977539062 378 l 1
 240 387.963867188 l 1
 13 386 l 1
 15 476 l 1
488 -33.06640625 m 1
 220.944259941 -11.8298471102 51 120.543550932 51 361.93359375 c 0
 51 598.46956446 224.833144608 728.46176596 498 748.9921875 c 1
 522 538.9921875 l 1
 381.443583873 518.410990143 292 470.137058022 292 361.93359375 c 0
 292 249.48875 367.447607422 200.102268449 515 177.93359375 c 1
 488 -33.06640625 l 1
EndSplineSet
EndChar

StartChar: uni20B5
Encoding: 691 8373 184
Width: 461
Flags: W
HStem: 0 21G<220.82 367.82> 91.9014 123.099<237.82 348.82> 524 95.457<235.82 346.82> 719 20G<216.82 363.82>
VStem: 20 213.22<296.378 421.949>
LayerCount: 2
Fore
SplineSet
367.8203125 0 m 1
 220.8203125 0 l 1
 237.8203125 215 l 1
 348.8203125 215 l 1
 367.8203125 0 l 1
216.8203125 739 m 1
 363.8203125 739 l 1
 346.8203125 524 l 1
 235.8203125 524 l 1
 216.8203125 739 l 1
20 357.576171875 m 0
 20 517.614257812 126.452148438 619.45703125 293.735351562 619.45703125 c 0
 406.329101562 619.45703125 454.184570312 569.0703125 454.184570312 569.0703125 c 1
 405.112304688 419.358398438 l 1
 405.112304688 419.358398438 371.970703125 448.0390625 320.436523438 448.0390625 c 0
 267.136591027 448.0390625 233.219726562 415.243409834 233.219726562 363.708007812 c 0
 233.219726562 303.256594018 264.392082948 264.787109375 325.35546875 264.787109375 c 0
 400.325195312 264.787109375 438.297851562 296.900390625 438.297851562 296.900390625 c 1
 471.774414062 132.869140625 l 1
 471.774414062 132.869140625 428.375976562 91.9013671875 293.735351562 91.9013671875 c 0
 126.452148438 91.9013671875 20 195.21875 20 357.576171875 c 0
EndSplineSet
EndChar

StartChar: uni20B2
Encoding: 688 8370 185
Width: 552
Flags: W
HStem: 0 21G<225.82 372.82> 91.9014 123.099<242.82 353.82> 238.989 132.445<479.916 540.564> 524 95.457<240.82 351.82> 719 20G<221.82 368.82>
VStem: 20 213.22<289.828 421.949> 353.82 126.096<135.789 215>
LayerCount: 2
Fore
SplineSet
221.8203125 739 m 1
 368.8203125 739 l 1
 351.8203125 524 l 1
 240.8203125 524 l 1
 221.8203125 739 l 1
372.8203125 0 m 1
 225.8203125 0 l 1
 242.8203125 215 l 1
 353.8203125 215 l 1
 372.8203125 0 l 1
20 357.576171875 m 0
 20 517.614257812 126.452148438 619.45703125 293.735351562 619.45703125 c 0
 413.346508744 619.45703125 464.184570312 569.0703125 464.184570312 569.0703125 c 1
 415.112304688 419.358398438 l 1
 415.112304688 419.358398438 378.056762081 448.0390625 320.436523438 448.0390625 c 0
 267.136591027 448.0390625 233.219726562 415.243409834 233.219726562 363.708007812 c 0
 233.219726562 303.256594018 257.625479706 264.787109375 305.35546875 264.787109375 c 0
 321 264.787109375 328.556640625 266.848632812 328.556640625 266.848632812 c 1
 329.6875 371.434570312 l 1
 540.564453125 371.434570312 l 1
 542.12109375 238.02734375 l 1
 479.916015625 238.989257812 l 1
 481.774414062 132.869140625 l 1
 481.774414062 132.869140625 435.938397028 91.9013671875 293.735351562 91.9013671875 c 0
 126.452148438 91.9013671875 20 195.21875 20 357.576171875 c 0
EndSplineSet
EndChar

StartChar: uni20AD
Encoding: 685 8365 186
Width: 707
Flags: W
HStem: 0 21G<108.83 340.159> 297 134<24 233.67> 307.186 114.282<118.33 460.103> 545.084 185.927<13.6201 113.151>
VStem: 108.83 231.329<0 307.186 421.468 545.084>
LayerCount: 2
Fore
SplineSet
24 431 m 1xd8
 326 421.467632849 l 1
 670 432 l 1
 668 289 l 1
 330 307.185652694 l 1xb8
 22 297 l 1
 24 431 l 1xd8
334.729492188 731.010742188 m 1
 340.159179688 0 l 1
 108.830078125 0 l 1
 113.151367188 545.083984375 l 1
 10 543.080078125 l 1
 13.6201171875 731.010742188 l 1
 334.729492188 731.010742188 l 1
473 745.0078125 m 1
 682 641.0078125 l 1
 476 364 l 1
 697 88 l 1
 478 -27 l 1
 259 364 l 1
 473 745.0078125 l 1
EndSplineSet
EndChar

StartChar: uni20AE
Encoding: 686 8366 187
Width: 550
Flags: W
HStem: 0 21G<154.33 385.659> 479.5 20G<411.724 470.808> 543 30<158.651 381.604> 543.08 187.931<13.6201 158.651 381.604 528.729>
VStem: 154.33 231.329<0 254.835 326.912 573>
LayerCount: 2
Fore
SplineSet
54.8798828125 194.71484375 m 1xc8
 270.221679688 254.834960938 l 1
 479.26953125 333.35546875 l 1
 515.74609375 208.365234375 l 1
 295.53515625 160.768554688 l 1
 86.9306640625 84.056640625 l 1
 54.8798828125 194.71484375 l 1xc8
40.58203125 360.859375 m 1
 255.923828125 420.98046875 l 1
 464.971679688 499.5 l 1
 501.448242188 374.509765625 l 1
 281.237304688 326.912109375 l 1
 72.6328125 250.200195312 l 1
 40.58203125 360.859375 l 1
381.603515625 573 m 1xe8
 385.659179688 0 l 1
 154.330078125 0 l 1
 158.651367188 575.083984375 l 1
 381.603515625 573 l 1xe8
272.103515625 543 m 1
 10 543.080078125 l 1
 13.6201171875 731.010742188 l 1
 528.729492188 731.010742188 l 1xd8
 534.61328125 539 l 1
 272.103515625 543 l 1
EndSplineSet
EndChar

StartChar: uni20B1
Encoding: 687 8369 188
Width: 722
Flags: W
HStem: 0 21G<87.7705 314.003> 169.934 190<315.279 397.263> 301 79.4668<12 214.906> 311 79.4668<464 653.712> 380.467 36.8213<178 243> 390.467 36.8213<575 676.743> 426 85<474 671.389> 496 31.9922<107.075 266> 516.428 21G<8.18807 9.26953> 527.992 71.2578<118.508 310.67> 718.992 20G<194.031 413.132>
VStem: 87.7705 226.232<0 194.434 302.577 380.467 380.877 417.288 496 599.25> 472 167.917<426 511>
LayerCount: 2
Fore
SplineSet
464 396 m 1x9038
 568 390.466796875 l 1
 705 397 l 1
 703 303 l 1
 550 312.577148438 l 1
 462 311 l 1
 464 396 l 1x9038
474 511 m 1x8238
 585 506 l 1
 712 512 l 1
 710 418 l 1
 575 427.288085938 l 1x8438
 472 426 l 1
 474 511 l 1x8238
12 386 m 1
 178 380.466796875 l 1
 243 387 l 1
 241 293 l 1
 160 302.577148438 l 1
 10 301 l 1xa038
 12 386 l 1
14 501 m 1
 195 496 l 1
 266 502 l 1
 264 408 l 1
 185 417.288085938 l 1x8938
 12 416 l 1
 14 501 l 1
314.002929688 0 m 1
 87.7705078125 0 l 1
 93.9404296875 599.25 l 1
 310.669921875 599.25 l 1x8078
 314.002929688 0 l 1
214.196289062 380.876953125 m 1
 214.196289062 380.876953125 249.885742188 359.93359375 330.916992188 359.93359375 c 0
 390.467494419 359.93359375 420.916992188 391.044613487 420.916992188 439.93359375 c 0
 420.916992188 493.747364248 382.508189808 527.9921875 303.916992188 527.9921875 c 0xc078
 118.5078125 527.9921875 9.26953125 516.427734375 9.26953125 516.427734375 c 1
 -2 724.840820312 l 1
 -2 724.840820312 86.1025390625 738.9921875 301.958496094 738.9921875 c 0
 524.305550437 738.9921875 639.916992188 619.581054688 639.916992188 431.93359375 c 0
 639.916992188 271.821289062 529.861215715 169.93359375 356.916992188 169.93359375 c 0xc0b8
 249.770507812 169.93359375 185.2578125 194.43359375 185.2578125 194.43359375 c 1
 214.196289062 380.876953125 l 1
EndSplineSet
EndChar

StartChar: uni20B3
Encoding: 689 8371 189
Width: 768
Flags: W
HStem: 105.712 114<103.25 756> 113.712 105<12 662.75> 250.712 114<133.25 716> 258.712 105<52 632.75> 514.069 206.931<63.8193 200.508> 711 20G<59.4395 493.11>
LayerCount: 2
Fore
SplineSet
200.5078125 519.112304688 m 1x04
 63.8193359375 514.069335938 l 1
 59.439453125 721 l 1x08
 486.548828125 731 l 1
 721.450195312 14.9111328125 l 1
 495.176757812 -15 l 1
 374.818359375 471.8671875 l 1
 247.819335938 -15 l 1
 23.2734375 19 l 1
 200.5078125 519.112304688 l 1x04
52 363.711914062 m 1x10
 718 364.711914062 l 1
 716 250.711914062 l 1x20
 50 258.711914062 l 1
 52 363.711914062 l 1x10
12 218.711914062 m 1x40
 758 219.711914062 l 1
 756 105.711914062 l 1x80
 10 113.711914062 l 1
 12 218.711914062 l 1x40
EndSplineSet
EndChar

StartChar: uni20B4
Encoding: 690 8372 190
Width: 598
Flags: W
HStem: 223 114<330.881 556> 231 105<12 456.78> 368 114<350.106 586> 376 105<22 170.052 273 496.479> 718.393 20G<151.095 154.646>
VStem: 68 255.715<212.777 301.913>
LayerCount: 2
Fore
SplineSet
154.645507812 738.392578125 m 1x0c
 154.645507812 738.392578125 515.3359375 731.742204503 515.3359375 495.162109375 c 0
 515.3359375 411.359567408 492.17152797 365.326409057 380.434570312 307.655273438 c 0
 335.700086854 284.265871265 323.71484375 268.772545018 323.71484375 246 c 0
 323.71484375 179.122498987 488.115234375 171.682617188 488.115234375 171.682617188 c 1
 460.893554688 -19.8779296875 l 1
 460.893554688 -19.8779296875 68 -14.009765625 68 251.044921875 c 0
 68 335.053870154 95.1265252908 389.570422984 170.051757812 430.650390625 c 0
 241.826171875 470.67912557 258.067382812 485.729300364 258.067382812 506.93359375 c 0
 258.067382812 554.39055928 123.794921875 564.592773438 123.794921875 564.592773438 c 1
 154.645507812 738.392578125 l 1x0c
12 336 m 1x4c
 266 330.466796875 l 1
 558 337 l 1
 556 223 l 1x8c
 248 232.577148438 l 1
 10 231 l 1
 12 336 l 1x4c
22 481 m 1x1c
 283 476 l 1
 588 482 l 1
 586 368 l 1x2c
 273 377.288085938 l 1
 20 376 l 1
 22 481 l 1x1c
EndSplineSet
EndChar

StartChar: uni20B8
Encoding: 692 8376 191
Width: 590
Flags: W
HStem: 0 21G<174.33 405.659> 348 60<178.651 401.604> 348.08 157.931<13.6201 178.651 401.604 568.729> 563.08 167.931<23.6201 558.729>
VStem: 174.33 231.329<0 408>
LayerCount: 2
Fore
SplineSet
292.103515625 348 m 1xd8
 10 348.080078125 l 1
 13.6201171875 506.010742188 l 1
 568.729492188 506.010742188 l 1xb8
 574.61328125 344 l 1
 292.103515625 348 l 1xd8
401.603515625 408 m 1xd8
 405.659179688 0 l 1
 174.330078125 0 l 1
 178.651367188 410.083984375 l 1
 401.603515625 408 l 1xd8
20 563.080078125 m 1
 23.6201171875 731.010742188 l 1
 558.729492188 731.010742188 l 1
 564.61328125 559 l 1
 20 563.080078125 l 1
EndSplineSet
EndChar

StartChar: uni20B9
Encoding: 693 8377 192
Width: 646
Flags: W
HStem: 409.434 99<469.704 634> 417.434 90<110 571.65> 547.992 191<31.5317 290.255>
VStem: 324.917 224<382.702 513.18>
LayerCount: 2
Fore
SplineSet
110 507.43359375 m 1x70
 421 502.43359375 l 1
 636 508.43359375 l 1
 634 409.43359375 l 1xb0
 416 418.721679688 l 1
 108 417.43359375 l 1
 110 507.43359375 l 1x70
124.196289062 386.876953125 m 1
 124.196289062 386.876953125 155.299282189 374.93359375 218.458496094 374.93359375 c 0
 291.421471832 374.93359375 324.916992188 408.766390715 324.916992188 461.93359375 c 0
 324.916992188 514.525423222 283.553337545 547.9921875 198.916992188 547.9921875 c 0
 83.6619141699 547.9921875 19.26953125 522.427734375 19.26953125 522.427734375 c 1
 -2 710.840820312 l 1
 -2 710.840820312 52.2421875 738.9921875 226.916992188 738.9921875 c 0
 423.6953125 738.9921875 548.916992188 650.858398438 548.916992188 480.93359375 c 0
 548.916992188 356.636933794 465.773528209 294.343129584 415.402295354 267.999999729 c 0
 399.904079183 259.875994189 389.740234375 256.040039062 389.740234375 256.040039062 c 1
 559.770507812 148 l 1
 425.770507812 -37 l 1
 83.2578125 228.43359375 l 1
 124.196289062 386.876953125 l 1
EndSplineSet
EndChar

StartChar: uni20BA
Encoding: 694 8378 193
Width: 668
Flags: W
HStem: -9.99805 201.877<246.404 416.64> 711.01 20G<105.621 326.809>
VStem: 100.348 230.635<288.769 382.835 454.912 731.01>
LayerCount: 2
Fore
SplineSet
15.2978515625 322.71484375 m 1
 230.639648438 382.834960938 l 1
 439.6875 461.35546875 l 1
 476.6640625 336.365234375 l 1
 256.453125 288.768554688 l 1
 47.8486328125 212.056640625 l 1
 15.2978515625 322.71484375 l 1
1 488.859375 m 1
 216.341796875 548.98046875 l 1
 425.389648438 627.5 l 1
 462.366210938 502.509765625 l 1
 242.155273438 454.912109375 l 1
 33.55078125 378.200195312 l 1
 1 488.859375 l 1
330.982421875 195.29296875 m 1
 330.982421875 195.29296875 340.787035336 191.87890625 359.380859375 191.87890625 c 0
 406.446837699 191.87890625 439.304092756 213.575228184 454.41796875 301.5 c 1
 656.91796875 259.5 l 1
 631.356971832 107.067214083 559.514066029 -9.998046875 309.91796875 -9.998046875 c 0
 182.890422277 -9.998046875 100.34765625 0 100.34765625 0 c 1
 105.76953125 731.009765625 l 1
 326.647460938 731.009765625 l 1
 330.982421875 195.29296875 l 1
EndSplineSet
EndChar

StartChar: breve
Encoding: 430 728 194
Width: 332
Flags: W
HStem: 556 140<107.218 232.599>
LayerCount: 2
Fore
SplineSet
168 556 m 0
 61.9767473296 556 -5 636 -5 636 c 25
 73 748 l 25
 73 748 112.121010262 696 167 696 c 0
 220.581395349 696 263 742 263 742 c 25
 337 642 l 25
 337 642 286 556 168 556 c 0
EndSplineSet
EndChar

StartChar: dotaccent
Encoding: 431 729 195
Width: 240
Flags: W
HStem: 559.008 180<57.3847 182.615>
VStem: 30 180<586.392 711.623>
LayerCount: 2
Fore
SplineSet
30 649.0078125 m 0
 30 704.008167614 64.9996448864 739.0078125 120 739.0078125 c 0
 175.000355114 739.0078125 210 704.008167614 210 649.0078125 c 0
 210 594.007457386 175.000355114 559.0078125 120 559.0078125 c 0
 64.9996448864 559.0078125 30 594.007457386 30 649.0078125 c 0
EndSplineSet
EndChar

StartChar: ogonek
Encoding: 433 731 196
Width: 207
Flags: W
HStem: -248 86<135.967 195.488>
VStem: 20 109<-154.431 -53.6397>
LayerCount: 2
Fore
SplineSet
190 18 m 1
 190 18 129 -62.7536656903 129 -119 c 0
 129 -152.041407437 149.945454546 -161.413636364 201 -162 c 1
 195 -248 l 1
 79.5177664972 -242 20 -216.730463477 20 -136 c 0
 20 -47.52 97 22 97 22 c 1
 190 18 l 1
EndSplineSet
EndChar

StartChar: ring
Encoding: 432 730 197
Width: 307
Flags: W
HStem: 478.113 94.3027<127.093 183.755> 644.593 94.3994<126.963 183.888>
VStem: 20 103.384<573.877 642.269> 186.184 101.416<574.416 642.771>
LayerCount: 2
Fore
SplineSet
123.383789062 609.416015625 m 0
 123.383789062 586.805262975 135.476071423 572.416015625 154.479492188 572.416015625 c 0
 173.854256236 572.416015625 186.18359375 586.805262975 186.18359375 609.416015625 c 0
 186.18359375 630.913169763 173.854256236 644.592773438 154.479492188 644.592773438 c 0
 135.476071423 644.592773438 123.383789062 630.913169763 123.383789062 609.416015625 c 0
20 609.512695312 m 0
 20 688.639014575 72.2975427796 738.9921875 154.479492188 738.9921875 c 0
 235.830785956 738.9921875 287.599609375 685.717408692 287.599609375 602 c 0
 287.599609375 526.291133604 235.830785956 478.11328125 154.479492188 478.11328125 c 0
 72.2975427796 478.11328125 20 529.212718171 20 609.512695312 c 0
EndSplineSet
EndChar

StartChar: hungarumlaut
Encoding: 435 733 198
Width: 420
Flags: W
HStem: 509.248 235.246
LayerCount: 2
Fore
SplineSet
295.5078125 744.494140625 m 1
 412.631835938 662.544921875 l 1
 278.493164062 509.248046875 l 1
 201.208984375 560.534179688 l 1
 295.5078125 744.494140625 l 1
105.5078125 744.494140625 m 1
 222.631835938 662.544921875 l 1
 88.4931640625 509.248046875 l 1
 11.208984375 560.534179688 l 1
 105.5078125 744.494140625 l 1
EndSplineSet
EndChar

StartChar: partialdiff
Encoding: 714 8706 199
Width: 615
Flags: W
HStem: -10.0664 179.925<242.609 348.422> 327.009 164.925<248.755 354.48>
VStem: 20 204.375<189.824 304.045> 370.625 224.375<195.642 451.398>
LayerCount: 2
Fore
SplineSet
224.375 244.858398438 m 0
 224.375 199.02497944 251.747739612 169.858398438 292.025390625 169.858398438 c 0
 341.142566004 169.858398438 370.625 202.913856908 370.625 254.858398438 c 0
 370.625 298.95055869 344.725324793 327.008789062 304.025390625 327.008789062 c 0
 255.349942772 327.008789062 224.375 295.061705126 224.375 244.858398438 c 0
20 239.93359375 m 0
 20 399.925922184 112.166879197 491.93359375 257 491.93359375 c 0
 351.479317563 491.93359375 393.90234375 442.057617188 393.90234375 442.057617188 c 1
 374.650637043 511.935698586 321.47116473 553.044414734 172.021484375 579.267578125 c 1
 212.770507812 753.510742188 l 1
 476.724663068 732.027172961 595 570.795761438 595 332 c 0
 595 103.182430662 473.373723448 -10.06640625 279 -10.06640625 c 0
 121.944335938 -10.06640625 20 87.155085637 20 239.93359375 c 0
EndSplineSet
EndChar

StartChar: emptyset
Encoding: 715 8709 200
Width: 795
Flags: W
HStem: -10.0664 110.877<292.862 511.295> 630.64 108.294<285.188 515.954>
VStem: 20 118<250.113 480.794> 664.117 110.883<250.113 476.147>
LayerCount: 2
Fore
SplineSet
715.94921875 725.43359375 m 1
 447.330078125 338.299804688 l 1
 190.37890625 -82.5 l 1
 79.05078125 -15.5 l 1
 361.529296875 379.700195312 l 1
 611.220703125 795.43359375 l 1
 715.94921875 725.43359375 l 1
20 361.93359375 m 0
 20 592.322641811 166.610951939 738.93359375 397 738.93359375 c 0
 628.000476926 738.93359375 775 592.322641811 775 361.93359375 c 0
 775 134.599173678 628.000476926 -10.06640625 397 -10.06640625 c 0
 166.610951939 -10.06640625 20 134.599173678 20 361.93359375 c 0
138 361.93359375 m 0
 138 202.358055182 239.110208333 100.810546875 398 100.810546875 c 0
 560.627599217 100.810546875 664.1171875 202.358055182 664.1171875 361.93359375 c 0
 664.1171875 526.144149006 560.627599217 630.639648438 398 630.639648438 c 0
 239.110208333 630.639648438 138 526.144149006 138 361.93359375 c 0
EndSplineSet
EndChar

StartChar: Delta
Encoding: 716 8710 201
Width: 690
Flags: W
HStem: 0 188.317<249.086 437.606> 514.069 206.931<35.8193 172.508> 711 20G<31.4395 466.12>
LayerCount: 2
Fore
SplineSet
172.5078125 519.112304688 m 1xa0
 35.8193359375 514.069335938 l 1
 31.439453125 721 l 1xc0
 458.548828125 731 l 1
 680 146 l 1
 663 0 l 1
 27 0 l 1
 10 142 l 1
 172.5078125 519.112304688 l 1xa0
437.606445312 189.631835938 m 1
 346.818359375 466.8671875 l 1
 249.0859375 188.317382812 l 1
 437.606445312 189.631835938 l 1
EndSplineSet
EndChar

StartChar: notequal
Encoding: 726 8800 202
Width: 450
Flags: W
HStem: 162 143.5<223 413> 173 146.5<29 223> 346.5 155.5<169 421> 357.5 140.5<29 277>
LayerCount: 2
Fore
SplineSet
254.026367188 597.734375 m 1x00
 370.624023438 559.322265625 l 1
 265.5859375 314.234375 l 1
 194.977539062 77.1787109375 l 1
 79.2880859375 116.673828125 l 1
 180.828125 344.390625 l 1
 254.026367188 597.734375 l 1x00
EndSplineSet
Refer: 19 61 N 1 0 0 1 0 0 2
EndChar

StartChar: approxequal
Encoding: 725 8776 203
Width: 450
Flags: W
LayerCount: 2
Fore
SplineSet
279.991210938 281.168945312 m 1
 374.650390625 339.280273438 l 1
 446.330078125 224 l 1
 284.950195312 106.959960938 l 1
 170.009765625 197.791015625 l 1
 85.3505859375 139.6796875 l 1
 3.669921875 254.959960938 l 1
 165.05078125 372 l 1
 279.991210938 281.168945312 l 1
279.991210938 511.168945312 m 1
 374.650390625 569.280273438 l 1
 446.330078125 454 l 1
 284.950195312 336.959960938 l 1
 170.009765625 427.791015625 l 1
 85.3505859375 369.6796875 l 1
 3.669921875 484.959960938 l 1
 165.05078125 602 l 1
 279.991210938 511.168945312 l 1
EndSplineSet
EndChar

StartChar: product
Encoding: 717 8719 204
Width: 853
Flags: W
HStem: 535.084 195.927<13.6201 113.151 335.838 517.979 741.073 840.369>
VStem: 108.83 231.329<-173.994 535.084> 513.83 231.329<-173.994 533.628>
LayerCount: 2
Fore
SplineSet
108.830078125 -173.994140625 m 1
 113.151367188 535.083984375 l 1
 10 533.080078125 l 1
 13.6201171875 731.010742188 l 1
 840.369140625 731.010742188 l 1
 843.989257812 533.080078125 l 1
 741.073242188 535.080078125 l 1
 745.159179688 -173.994140625 l 1
 513.830078125 -173.994140625 l 1
 517.979492188 533.627929688 l 1
 335.837890625 535.083984375 l 1
 340.159179688 -173.994140625 l 1
 108.830078125 -173.994140625 l 1
EndSplineSet
EndChar

StartChar: summation
Encoding: 718 8721 205
Width: 670
Flags: W
HStem: -173.994 186.293<301.064 656.539> 543.08 187.931<13.6201 138.151 373.104 648.729>
LayerCount: 2
Fore
SplineSet
648.729492188 731.010742188 m 1
 654.61328125 539 l 1
 373.103515625 543 l 1
 519 301 l 1
 301.017578125 12.486328125 l 1
 301.064453125 12.298828125 l 1
 660.159179688 13.9365234375 l 1
 656.5390625 -173.994140625 l 1
 63.4296875 -173.994140625 l 1
 54.87109375 12.005859375 l 1
 276 302 l 1
 138.151367188 545.083984375 l 1
 10 543.080078125 l 1
 13.6201171875 731.010742188 l 1
 648.729492188 731.010742188 l 1
EndSplineSet
EndChar

StartChar: integral
Encoding: 724 8747 206
Width: 533
Flags: W
LayerCount: 2
Fore
SplineSet
357.01953125 797.84375 m 1
 517.7265625 673.374023438 l 1
 364.637695312 519.96484375 l 1
 318.63671875 10 l 1
 176.477539062 -204 l 1
 -10.5224609375 -108 l 1
 112.307617188 40 l 1
 165.984375 592.096679688 l 1
 357.01953125 797.84375 l 1
EndSplineSet
EndChar

StartChar: angleleft
Encoding: 729 9001 268
Width: 397
Flags: W
LayerCount: 2
Fore
SplineSet
227.13671875 300.836914062 m 1
 396 -143.994140625 l 1
 201 -198.994140625 l 1
 1 301.005859375 l 1
 201 791.001953125 l 1
 396 736.001953125 l 1
 227.13671875 300.836914062 l 1
EndSplineSet
EndChar

StartChar: angleright
Encoding: 730 9002 269
Width: 397
Flags: W
LayerCount: 2
Fore
SplineSet
169.86328125 291.170898438 m 1
 1 731.001953125 l 1
 196 791.001953125 l 1
 396 291.001953125 l 1
 196 -198.994140625 l 1
 1 -138.994140625 l 1
 169.86328125 291.170898438 l 1
EndSplineSet
EndChar

StartChar: dcroat
Encoding: 207 273 271
Width: 682
Flags: W
HStem: -10.0664 170<241.12 339.344> 0 160.927<586.849 668.38> 336.934 170<241.12 346.772> 539 120<292 606.52> 735.002 20G<386.875 584.26>
VStem: 20 197<183.839 311.488> 382.271 87.7295<123.97 418.267> 387 197.17<278.934 755.002>
LayerCount: 2
Fore
SplineSet
292 659 m 1x3c
 493 654 l 1
 658 660 l 1
 656 531 l 1
 483 540.288085938 l 1
 290 539 l 1
 292 659 l 1x3c
EndSplineSet
Refer: 5 100 N 1 0 0 1 0 0 2
EndChar

StartChar: Hbar
Encoding: 228 294 272
Width: 830
Flags: W
HStem: 0 21G<118.83 350.159 518.83 750.159> 165 182<377.455 604> 176 167<252 474.545> 392.934 104<133.308 818> 401 95<31 713.692> 545.084 185.927<13.6201 123.151 418.62 523.151>
VStem: 118.83 231.329<0 176 343 545.084> 248 102.159<176 343> 518.83 231.329<0 165 347 545.084>
LayerCount: 2
Fore
SplineSet
344.729492188 731.010742188 m 1x8680
 350.159179688 0 l 1
 118.830078125 0 l 1
 123.151367188 545.083984375 l 1
 10 543.080078125 l 1
 13.6201171875 731.010742188 l 1
 344.729492188 731.010742188 l 1x8680
744.729492188 731.010742188 m 1
 750.159179688 0 l 1
 518.830078125 0 l 1
 523.151367188 545.083984375 l 1
 415 543.080078125 l 1
 418.620117188 731.010742188 l 1
 744.729492188 731.010742188 l 1
252 343 m 1xa580
 608 347 l 1
 604 165 l 1xc580
 248 176 l 1
 252 343 l 1xa580
31 496 m 1x8c80
 820 496.93359375 l 1
 818 392.93359375 l 1x9480
 29 401 l 1
 31 496 l 1x8c80
EndSplineSet
EndChar

StartChar: hbar
Encoding: 229 295 273
Width: 653
Flags: W
HStem: 0 21G<93.8301 300.159> 337.934 169<319.485 490.535> 544 114<245.472 406> 552 105<12 345.08> 735.002 20G<98.0369 294.873>
VStem: 93.8301 206.329<0 253.934 553.288 755.002> 426 202<-1.22201 321.657>
LayerCount: 2
Fore
SplineSet
188 253.93359375 m 1xce
 210.000338808 411.989257812 279.388472577 506.93359375 423 506.93359375 c 0
 558.0703125 506.93359375 628 429.158131451 628 278.93359375 c 0
 628 134.376986611 610.159179688 -15 610.159179688 -15 c 1
 405.830078125 0 l 1
 405.830078125 0 426 138.277935542 426 251.93359375 c 0
 426 306.521484375 409.316123188 337.93359375 362 337.93359375 c 0
 308.292194538 337.93359375 286.040971636 303.906853829 271 216.93359375 c 1
 188 253.93359375 l 1xce
12 657 m 1xde
 203 652 l 1
 408 658 l 1
 406 544 l 1xee
 193 553.288085938 l 1
 10 552 l 1
 12 657 l 1xde
294.729492188 755.001953125 m 1
 300.159179688 0 l 1
 93.830078125 0 l 1
 98.1513671877 755.001953125 l 1
 294.729492188 755.001953125 l 1
EndSplineSet
EndChar

StartChar: Tbar
Encoding: 292 358 275
Width: 590
Flags: W
HStem: 0 21G<174.33 405.659> 234 159<373.092 512> 244 147<80 415.947> 543 25<178.651 401.604> 543.08 187.931<13.6201 178.651 401.604 568.729>
VStem: 174.33 231.329<0 568>
LayerCount: 2
Fore
SplineSet
80 391 m 1xa4
 295 387 l 1
 516 393 l 1
 512 234 l 1xc4
 288 245.288085938 l 1
 76 244 l 1
 80 391 l 1xa4
EndSplineSet
Refer: 61 84 N 1 0 0 1 0 0 2
EndChar

StartChar: tbar
Encoding: 293 359 276
Width: 443
Flags: W
HStem: 205.712 94<251.008 404> 213.712 85<20 345.94> 336 161<12 225.667> 480 20G<190 422.545>
VStem: 98.8301 189.299<202.235 486.573>
LayerCount: 2
Fore
SplineSet
20 298.711914062 m 1x48
 211 293.711914062 l 1
 406 299.711914062 l 1
 404 205.711914062 l 1x88
 201 215 l 1
 18 213.711914062 l 1
 20 298.711914062 l 1x48
EndSplineSet
Refer: 7 116 N 1 0 0 1 0 0 2
EndChar

StartChar: .notdef
Encoding: 738 -1 362
Width: 795
Flags: W
HStem: -10.0664 105.877<284.096 517.046> 141.077 138<322.503 427.497> 305.857 113.903<326.413 405.03> 494.477 99.8301<316.412 393.988> 635.64 103.294<284.096 512.387>
VStem: 20 113<249.021 481.886> 306 138<157.581 262.574> 406.2 131.399<423.617 476.453> 669.117 105.883<249.021 481.886>
LayerCount: 2
Fore
SplineSet
299.400390625 494.4765625 m 1xfd80
 317.694335938 594.306640625 l 1
 468.500184115 574.524979031 537.599609375 530.359347308 537.599609375 445.283203125 c 0
 537.599609375 384.451537395 493.241733341 357.197689004 458.663085938 346.008789062 c 0
 444.661711502 341.478457171 429.49609375 339.077148438 429.49609375 339.077148438 c 1
 423 298.876953125 l 1
 423 298.876953125 408.895949272 305.857421875 376.200195312 305.857421875 c 0
 343.638784556 305.857421875 326.400390625 297.676757812 326.400390625 297.676757812 c 1
 319.443359375 422.4765625 l 1
 319.443359375 422.4765625 332.198566246 419.760742188 357.599609375 419.760742188 c 0
 385.90544514 419.760742188 406.200195312 428.038457913 406.200195312 450.077148438 c 0
 406.200195312 475.487987756 381.945001651 484.971693515 299.400390625 494.4765625 c 1xfd80
306 210.077148438 m 0xfe80
 306 252.244087358 332.833061079 279.077148438 375 279.077148438 c 0
 417.166938921 279.077148438 444 252.244087358 444 210.077148438 c 0
 444 167.910209517 417.166938921 141.077148438 375 141.077148438 c 0
 332.833061079 141.077148438 306 167.910209517 306 210.077148438 c 0xfe80
20 361.93359375 m 0
 20 592.322641811 166.610951939 738.93359375 397 738.93359375 c 0
 628.000476926 738.93359375 775 592.322641811 775 361.93359375 c 0
 775 134.599173678 628.000476926 -10.06640625 397 -10.06640625 c 0
 166.610951939 -10.06640625 20 134.599173678 20 361.93359375 c 0
133 361.93359375 m 0
 133 199.302493054 236.054635416 95.810546875 398 95.810546875 c 0
 563.683162834 95.810546875 669.1171875 199.302493054 669.1171875 361.93359375 c 0
 669.1171875 529.199728745 563.683162834 635.639648438 398 635.639648438 c 0
 236.054635416 635.639648438 133 529.199728745 133 361.93359375 c 0
EndSplineSet
EndChar

StartChar: uni0326
Encoding: 452 806 363
Width: 0
Flags: W
HStem: -211.337 216.029
VStem: 0 195.796
LayerCount: 2
Fore
SplineSet
57.78125 4.6923828125 m 25
 195.795898438 -65.037109375 l 25
 87.78125 -211.336914062 l 25
 0 -168 l 25
 57.78125 4.6923828125 l 25
EndSplineSet
EndChar

StartChar: dcaron
Encoding: 205 271 403
Width: 682
Flags: W
HStem: -10.0664 170<241.12 339.344> 0 160.927<586.849 668.38> 336.934 170<241.12 346.772> 735.002 20G<386.875 584.26>
VStem: 20 197<183.839 311.488> 382.271 87.7295<123.97 418.267> 387 197.17<278.934 755.002>
LayerCount: 2
Fore
SplineSet
817 728.9921875 m 1x38
 744 476 l 25
 635 484 l 1
 625 751 l 25
 817 728.9921875 l 1x38
EndSplineSet
Refer: 5 100 N 1 0 0 1 0 0 2
EndChar

StartChar: Lcaron
Encoding: 251 317 404
Width: 620
Flags: W
HStem: 0 186.293<349.065 606.539> 545.084 185.927<13.6201 123.151>
VStem: 118.43 230.635<186.293 545.084>
LayerCount: 2
Fore
SplineSet
642 728.9921875 m 1
 569 476 l 25
 460 484 l 1
 450 751 l 25
 642 728.9921875 l 1
EndSplineSet
Refer: 44 76 N 1 0 0 1 0 0 2
EndChar

StartChar: lcaron
Encoding: 252 318 405
Width: 407
Flags: W
HStem: 0 161.397<304.129 393.539> 594.075 160.927<13.6201 103.151>
VStem: 98.8301 205.299<161.397 594.075>
LayerCount: 2
Fore
SplineSet
541 728.9921875 m 1
 468 476 l 25
 359 484 l 1
 349 751 l 25
 541 728.9921875 l 1
EndSplineSet
Refer: 8 108 N 1 0 0 1 0 0 2
EndChar

StartChar: tcaron
Encoding: 291 357 409
Width: 443
Flags: W
HStem: 336 161<12 225.667> 480 20G<190 422.545>
VStem: 98.8301 189.299<202.235 486.573>
LayerCount: 2
Fore
SplineSet
512 728.9921875 m 1x20
 444 551 l 25
 340 549 l 1
 343 751 l 25
 512 728.9921875 l 1x20
EndSplineSet
Refer: 7 116 N 1 0 0 1 0 0 2
EndChar

StartChar: uni030F
Encoding: 448 783 435
Width: 0
Flags: W
HStem: 509.248 235.246
LayerCount: 2
Fore
SplineSet
117.124023438 744.494140625 m 1
 211.422851562 560.534179688 l 1
 134.138671875 509.248046875 l 1
 0 662.544921875 l 1
 117.124023438 744.494140625 l 1
307.124023438 744.494140625 m 1
 401.422851562 560.534179688 l 1
 324.138671875 509.248046875 l 1
 190 662.544921875 l 1
 307.124023438 744.494140625 l 1
EndSplineSet
EndChar

StartChar: uni031B
Encoding: 450 795 463
Width: 0
Flags: W
VStem: 56 159<521.293 672.773>
LayerCount: 2
Fore
SplineSet
9 712 m 1
 170 750 l 1
 170 750 215 696.444114829 215 611 c 0
 215 463.181818182 79 404 79 404 c 1
 0 483 l 1
 0 483 56 521 56 597.989257812 c 0
 56 658.352728795 9 712 9 712 c 1
EndSplineSet
EndChar

StartChar: Uhorn
Encoding: 322 431 464
Width: 847
Flags: W
HStem: -10 202<368.435 487.955> 545.084 185.927<13.6201 130.151 407.62 509.151>
VStem: 118.517 223.643<217.565 637.873> 515.83 221.812<219.863 543.338>
LayerCount: 2
Fore
SplineSet
627 790 m 1
 764 860.93359375 l 1
 764 860.93359375 827 822 827 754 c 0
 827 671 766 645 686 642 c 1
 609 731.0078125 l 1
 652 731.0078125 672 735 672 753 c 0
 672 776 627 790 627 790 c 1
EndSplineSet
Refer: 53 85 N 1 0 0 1 0 0 2
EndChar

StartChar: uhorn
Encoding: 323 432 465
Width: 687
Flags: W
HStem: -9.93164 169<169.073 314.603> 0 160.927<557.849 639.38> 477.002 20G<42.8408 247.17 357.81 555.329>
VStem: 25 202<175.748 498.225> 358 197.17<213.068 497.002> 512 155<502.672 571.519>
LayerCount: 2
Fore
SplineSet
467 584.002929688 m 1x34
 604 654.936523438 l 1
 604 654.936523438 667 605.80837261 667 527 c 0
 667 440.398359395 601.673758865 410.707408558 516 408.002929688 c 1
 449 497.010742188 l 1
 492 497.010742188 512 503.362787592 512 532.002929688 c 0
 512 571 467 584.002929688 467 584.002929688 c 1x34
EndSplineSet
Refer: 27 117 N 1 0 0 1 0 0 2
EndChar

StartChar: uni01B7
Encoding: 324 439 466
Width: 644
Flags: W
HStem: -183.994 199<104.192 326.379> 517.008 214<30 308.848>
VStem: 361.917 261<46.8075 160.946>
LayerCount: 2
Fore
SplineSet
416 346 m 1
 416 346 436.062010238 342.725938737 463.999999373 332.122213761 c 0
 525.125979416 308.916905875 622.916992188 248.042125152 622.916992188 96.056640625 c 0
 622.916992188 -87.4202954676 488.361564767 -183.994140625 276.916992188 -183.994140625 c 0
 88.2072104288 -183.994140625 8 -129.842773438 8 -129.842773438 c 1
 60 58.072265625 l 1
 60 58.072265625 121.038085938 15.005859375 233.916992188 15.005859375 c 0
 324.105803377 15.005859375 361.916992188 49.6365236454 361.916992188 104.056640625 c 0
 361.916992188 158.132543177 325.100198184 192.9921875 240.916992188 192.9921875 c 0
 174.966796875 192.9921875 145.2578125 183.43359375 145.2578125 183.43359375 c 1
 129 322 l 1
 308.84765625 523.0078125 l 1
 20 517.0078125 l 1
 30 731.0078125 l 1
 569.016601562 731.0078125 l 1
 599.016601562 558.0078125 l 1
 416 346 l 1
EndSplineSet
EndChar

StartChar: uni0292
Encoding: 426 658 467
Width: 498
Flags: W
HStem: -183.994 166.5<65.2485 256.358> 328 169.011<30 218.848>
VStem: 270.917 206<-1.5007 80.2432>
LayerCount: 2
Back
SplineSet
20 338 m 5
 30 497 l 5
 399.016601562 497 l 5
 431.016601562 369 l 5
 257.168945312 164 l 5
 441.016601562 170 l 5
 431.016601562 0 l 5
 41 0 l 5
 12 128 l 5
 193.84765625 344 l 5
 20 338 l 5
EndSplineSet
Fore
SplineSet
323 216 m 1
 323 216 339.480745615 213.706543973 361.744137042 205 c 0
 407.7461459 187.015180585 476.916992188 139.734477771 476.916992188 33.5830078125 c 0
 476.916992188 -115.614591061 373.472646251 -183.994140625 210.916992188 -183.994140625 c 0
 71.3290030521 -183.994140625 12 -149.842773438 12 -149.842773438 c 1
 44 15.572265625 l 1
 44 15.572265625 87.6838942308 -17.494140625 194 -17.494140625 c 0
 243.419465102 -17.494140625 270.916992188 4.48658779724 270.916992188 39.056640625 c 0
 270.916992188 75.1955897243 240.805615234 98.4921875 181.916992188 98.4921875 c 0
 134.067708965 98.4921875 105.2578125 91.93359375 105.2578125 91.93359375 c 1
 85 207 l 1
 218.84765625 334 l 1
 20 328 l 1
 30 497.010742188 l 1
 426.016601562 497 l 1
 459.016601562 359 l 1
 323 216 l 1
EndSplineSet
EndChar

StartChar: infinity
Encoding: 723 8734 470
Width: 579
Flags: W
HStem: 221 115.59<361.975 428.886> 221 106.588<149.978 245.111> 399.634 115.051<151.75 221.643> 407.315 107.369<333.542 427.616>
VStem: 20 127.069<331.48 395.93> 431.665 128.119<340.75 403.387>
LayerCount: 2
Fore
SplineSet
431.665039062 370.404296875 m 0xac
 431.665039062 392.756358545 415.838465623 407.315429688 391.541992188 407.315429688 c 0
 349.486928734 407.315429688 329.979492188 379.119140625 329.979492188 379.119140625 c 1
 276.788085938 443.2109375 l 1
 276.788085938 443.2109375 318.250976562 514.684570312 414.331054688 514.684570312 c 0
 501.685546875 514.684570312 559.784179688 455.794921875 559.784179688 367.248046875 c 0
 559.784179688 276.083984375 500.095703125 221 401.311523438 221 c 0x9c
 314.149414062 221 267.490234375 257.99609375 232.903320312 354.533203125 c 0
 221.320832753 386.861673027 209.38655577 399.633789062 187.170898438 399.633789062 c 0
 162.440849035 399.633789062 147.069335938 385.703608725 147.069335938 363.291015625 c 0
 147.069335938 341.089633817 162.177568386 327.587890625 187.021484375 327.587890625 c 0
 233.171134781 327.587890625 261.307617188 372.428710938 261.307617188 372.428710938 c 1
 309.377929688 301.271484375 l 1
 309.377929688 301.271484375 269.056640625 221 162.53515625 221 c 0x6c
 75.1875 221 20 280.737304688 20 367.000976562 c 0
 20 457.278320312 80.34375 514.684570312 175.237304688 514.684570312 c 0
 263.467773438 514.684570312 314.42578125 463.3125 345.504882812 388.341796875 c 0
 361.853007027 348.906399042 373.682612577 336.58984375 395.116210938 336.58984375 c 0
 417.781191929 336.58984375 431.665039062 349.434673752 431.665039062 370.404296875 c 0xac
EndSplineSet
EndChar

StartChar: radical
Encoding: 722 8730 471
Width: 659
Flags: W
HStem: 0 21G<225.624 445.466> 491 20G<10 273.557>
LayerCount: 2
Fore
SplineSet
439.607421875 0 m 1
 232.174804688 0 l 1
 120.151367188 342 l 1
 17.0458984375 334 l 1
 10 497 l 1
 268.546875 511 l 1
 337.905273438 234.1328125 l 1
 463 783 l 1
 659 749 l 1
 439.607421875 0 l 1
EndSplineSet
EndChar

StartChar: lessequal
Encoding: 727 8804 472
Width: 450
Flags: W
HStem: 64 156<189.667 430> 76 141<21 258.333>
LayerCount: 2
Fore
SplineSet
299.37109375 441.5 m 1x00
 435.349609375 391 l 1
 375.349609375 242 l 1
 14.650390625 432 l 1
 375.349609375 651 l 1
 435.349609375 502 l 1
 299.37109375 441.5 l 1x00
21 217 m 1x40
 432 220 l 1
 430 64 l 1x80
 18 76 l 1
 21 217 l 1x40
EndSplineSet
EndChar

StartChar: greaterequal
Encoding: 728 8805 473
Width: 450
Flags: W
HStem: 64 156<189.667 430> 76 141<21 258.333>
LayerCount: 2
Fore
SplineSet
150.62890625 451.5 m 1x00
 14.650390625 502 l 1
 74.650390625 651 l 1
 435.349609375 461 l 1
 74.650390625 242 l 1
 14.650390625 391 l 1
 150.62890625 451.5 l 1x00
21 217 m 1x40
 432 220 l 1
 430 64 l 1x80
 18 76 l 1
 21 217 l 1x40
EndSplineSet
EndChar

StartChar: three.ss01.superior
Encoding: 739 -1 507
Width: 391
Flags: W
HStem: 342 127<34.4027 215.027> 544.5 107.5<100.01 203.846> 716 127<54.9976 203.323>
VStem: 206 159<657.236 752.25> 222 156<476.405 538.328>
LayerCount: 2
Fore
SplineSet
34 495.5 m 1xe8
 34 495.5 87 469 160 469 c 0
 202 469 222 484.5 222 509.5 c 0xe8
 222 531 204 544.5 162 544.5 c 0
 113 544.5 100 540.5 100 540.5 c 1
 100 655 l 1
 100 655 112 652 152 652 c 0
 190 652 206 664.5 206 682.5 c 0
 206 703.5 189 716 151 716 c 0
 85.5 716 43 687.5 43 687.5 c 1
 14 813.5 l 1
 14 813.5 63 843 176 843 c 0
 294 843 365 792.5 365 712 c 0xf0
 365 629 289 606.5 289 606.5 c 1
 289 606.5 378 585.5 378 480.5 c 0
 378 395.5 301 342 180 342 c 0
 57 342 5 372 5 372 c 1
 34 495.5 l 1xe8
EndSplineSet
EndChar

StartChar: five.ss02.superior
Encoding: 740 -1 508
Width: 387
Flags: W
HStem: 343 126<48.7181 207.479> 478 20G<28.2941 33> 562 107<135 273.5> 708.5 174.5<251 346> 709.5 127.5<166 246>
VStem: 217 156<477.481 552.557> 251 95<837 881.5>
LayerCount: 2
Fore
SplineSet
346 708.5 m 1xf2
 166 709.5 l 25
 156 657 l 17
 156 657 172 669 217 669 c 0
 330 669 373 607 373 514 c 0
 373 395 297 343 178 343 c 0
 57 343 5 379 5 379 c 1
 33 498 l 1
 33 498 85 469 156 469 c 0
 197 469 217 487.5 217 516.5 c 0
 217 544.5 196.5 562 155 562 c 0
 115 562 91.5 542 91.5 542 c 1
 13 604.5 l 1
 53 837 l 1
 246 837 l 1xec
 251 881.5 l 1
 346 883 l 1
 346 708.5 l 1xf2
EndSplineSet
EndChar

StartChar: three.ss01.inferior
Encoding: 741 -1 509
Width: 391
Flags: W
HStem: -358 127<34.3591 214.978> -155.5 107.5<99.5096 204.584> 16 127<55.3476 203.323>
VStem: 206 159<-42.7643 52.25> 222 156<-223.595 -161.672>
LayerCount: 2
Fore
SplineSet
34 -204.5 m 1xe8
 34 -204.5 86.5 -231 159.5 -231 c 0
 201.5 -231 222 -215.5 222 -190.5 c 0xe8
 222 -169 203.5 -155.5 161.5 -155.5 c 0
 112.5 -155.5 99.5 -159.5 99.5 -159.5 c 1
 99.5 -45 l 1
 99.5 -45 111.5 -48 152 -48 c 0
 190.5 -48 206 -35.5 206 -17.5 c 0
 206 3.5 189 16 151 16 c 0
 85 16 42.5 -13 42.5 -13 c 1
 14 113 l 1
 14 113 63 143 176 143 c 0
 294 143 365 92.5 365 12 c 0xf0
 365 -71 289 -93.5 289 -93.5 c 1
 289 -93.5 378 -114.5 378 -219.5 c 0
 378 -304.5 301 -358 180 -358 c 0
 57 -358 5 -328.5 5 -328.5 c 1
 34 -204.5 l 1xe8
EndSplineSet
EndChar

StartChar: five.ss02.inferior
Encoding: 742 -1 510
Width: 387
Flags: W
HStem: -357 126<48.0167 207.479> -138 107<135 273.5> 9.5 172.5<251 346> 9.5 127.5<166 246>
VStem: 217 156<-222.519 -147.443> 251 95<137 182>
LayerCount: 2
Fore
SplineSet
346 8.5 m 1xe4
 166 9.5 l 25
 156 -43 l 17
 156 -43 172 -31 217 -31 c 0
 330 -31 373 -93 373 -186 c 0
 373 -305 297 -357 178 -357 c 0
 57 -357 5 -321 5 -321 c 1
 33 -202.5 l 1
 33 -202.5 85 -231 156 -231 c 0
 197 -231 217 -212.5 217 -183.5 c 0
 217 -155.5 196.5 -138 155 -138 c 0
 115 -138 91.5 -158 91.5 -158 c 1
 13 -95.5 l 1
 53 137 l 1
 246 137 l 1xd8
 251 182 l 1
 346 183 l 1
 346 8.5 l 1xe4
EndSplineSet
EndChar

StartChar: guilsinglleft
Encoding: 651 8249 511
Width: 372
Flags: W
HStem: 491 20G<222.34 269.359>
LayerCount: 2
Fore
SplineSet
220.720703125 261.5 m 1
 371.69921875 116 l 1
 241.69921875 2 l 1
 -9 252 l 1
 241.69921875 511 l 1
 371.69921875 417 l 1
 220.720703125 261.5 l 1
EndSplineSet
EndChar

StartChar: guilsinglright
Encoding: 652 8250 512
Width: 373
Flags: W
HStem: 491 20G<108.193 151.056>
LayerCount: 2
Fore
SplineSet
151.978515625 251.5 m 1
 1 397 l 1
 131 511 l 1
 381.69921875 261 l 1
 131 2 l 1
 1 96 l 1
 151.978515625 251.5 l 1
EndSplineSet
EndChar

StartChar: dagger
Encoding: 640 8224 513
Width: 520
Flags: W
HStem: 390.934 180<14 222.322> 395.345 167.524<45.6784 369.008>
VStem: 149 218.329<-170 23.2571> 172.616 171.554<288.743 600.787>
LayerCount: 2
Fore
SplineSet
14 570.93359375 m 1x80
 254 562.869140625 l 1
 510 574.93359375 l 1
 506 379.93359375 l 1
 255 395.344726562 l 1x40
 10 390.93359375 l 1
 14 570.93359375 l 1x80
361.899414062 788.9921875 m 1
 344.169921875 478 l 1x10
 367.329101562 -170 l 1
 149 -170 l 1x20
 172.616210938 482 l 1x10
 155.169921875 788.9921875 l 1
 361.899414062 788.9921875 l 1
EndSplineSet
EndChar

StartChar: daggerdbl
Encoding: 641 8225 514
Width: 520
Flags: W
HStem: 104.934 180<14 222.322> 109.345 167.524<45.6784 369.008> 276.869 123.476<45.6784 369.008> 395.934 180<14 222.322> 400.345 167.524<45.6784 369.008>
VStem: 14 159<155.008 249 395.934 575.934> 343.898 166.102<154.732 249 488 576.144>
LayerCount: 2
Fore
SplineSet
14 284.93359375 m 1x86
 254 276.869140625 l 1
 510 288.93359375 l 1
 506 93.93359375 l 1
 255 109.344726562 l 1x46
 10 104.93359375 l 1
 14 284.93359375 l 1x86
14 575.93359375 m 1x16
 254 567.869140625 l 1x0e
 510 579.93359375 l 1
 506 384.93359375 l 1
 255 400.344726562 l 1x26
 10 395.93359375 l 1
 14 575.93359375 l 1x16
361.899414062 788.9921875 m 1
 342.169921875 488 l 1
 343.8984375 249 l 1
 367.329101562 -170 l 1
 149 -170 l 1
 173 249 l 1
 174.616210938 492 l 1
 155.169921875 788.9921875 l 1
 361.899414062 788.9921875 l 1
EndSplineSet
EndChar

StartChar: uni20A6
Encoding: 680 8358 515
Width: 831
Flags: W
HStem: -10 21G<490.497 711.539> 0 21G<125.21 346.539> 228.5 95<22 224.906> 238.5 89.4668<573 762.712> 317.967 41.8213<188 253> 327.967 41.8213<684 785.743> 358.5 95<24 251.405> 368.5 95<583 780.389>
VStem: 125.21 221.329<0 230.077> 500.21 211.329<458.5 731.011>
LayerCount: 2
Fore
SplineSet
573 333.5 m 1x10c0
 677 327.966796875 l 1
 814 334.5 l 1
 812 230.5 l 1
 659 240.077148438 l 1
 571 238.5 l 1
 573 333.5 l 1x10c0
583 463.5 m 1x01c0
 694 458.5 l 1
 821 464.5 l 1
 819 360.5 l 1
 684 369.788085938 l 1x04c0
 581 368.5 l 1
 583 463.5 l 1x01c0
22 323.5 m 1x20c0
 188 317.966796875 l 1x08c0
 253 324.5 l 1
 251 220.5 l 1
 170 230.077148438 l 1
 20 228.5 l 1
 22 323.5 l 1x20c0
24 453.5 m 1x02c0
 205 448.5 l 1
 276 454.5 l 1
 274 350.5 l 1
 195 359.788085938 l 1x08c0
 22 358.5 l 1
 24 453.5 l 1x02c0
706.109375 731.010742188 m 1
 711.5390625 0 l 1x40c0
 500.209960938 -10 l 1x80c0
 343.92578125 311.79296875 l 1
 346.5390625 0 l 1
 125.209960938 0 l 1x40c0
 129.53125 549.083984375 l 1
 14.3798828125 543.080078125 l 1
 10 731.010742188 l 1
 361.109375 741.010742188 l 1
 494.151367188 409.888671875 l 1
 498 731.010742188 l 1
 706.109375 731.010742188 l 1
EndSplineSet
EndChar

StartChar: peseta
Encoding: 681 8359 516
Width: 732
Flags: W
HStem: 0 21G<97.7705 324.003> 169.934 190<325.279 449.392> 356 95<24 251.405> 366 95<484 681.389> 527.992 211<125.891 400.779> 527.992 71.2578<155.68 320.67>
VStem: 97.7705 226.232<0 194.434 446 599.25> 484 165.917<366 461>
LayerCount: 2
Fore
SplineSet
484 461 m 1x93
 595 456 l 1
 722 462 l 1
 720 358 l 1
 585 367.288085938 l 1
 482 366 l 1
 484 461 l 1x93
24 451 m 1xa3
 205 446 l 1
 276 452 l 1
 274 348 l 1
 195 357.288085938 l 1
 22 356 l 1
 24 451 l 1xa3
324.002929688 0 m 1
 97.7705078125 0 l 1
 103.940429688 599.25 l 1
 320.669921875 599.25 l 1x87
 324.002929688 0 l 1
224.196289062 380.876953125 m 1
 224.196289062 380.876953125 259.885810621 359.93359375 340.916992188 359.93359375 c 0
 400.467494419 359.93359375 430.916992188 391.044613487 430.916992188 439.93359375 c 0
 430.916992188 493.747364248 401.857446915 527.9921875 328.916992188 527.9921875 c 0
 155.6796875 527.9921875 29.26953125 476.427734375 29.26953125 476.427734375 c 1
 -2 684.840820312 l 1
 -2 684.840820312 96.10249859 738.9921875 326.916992188 738.9921875 c 0
 524.305550437 738.9921875 649.916992188 619.581054688 649.916992188 431.93359375 c 0
 649.916992188 271.821289062 539.861215715 169.93359375 366.916992188 169.93359375 c 0xcb
 259.770507812 169.93359375 195.2578125 194.43359375 195.2578125 194.43359375 c 1
 224.196289062 380.876953125 l 1
EndSplineSet
EndChar

StartChar: uni20A9
Encoding: 682 8361 517
Width: 1082
Flags: W
HStem: 0 21G<289.598 510.838 618.578 840.127> 236 94.4668<794 983.712> 245 93.7119<164.139 342> 330.467 36.8213<898 1035> 340 30<173.5 241> 375.533 92.8896<151.436 321> 716 20G<841.08 973.284>
LayerCount: 2
Fore
SplineSet
321 370 m 1x8e
 237 375.533203125 l 1
 80 369 l 1
 82 478 l 1
 215 468.422851562 l 1
 323 470 l 1
 321 370 l 1x8e
342 240 m 1
 251 245 l 1
 104 239 l 1
 106 348 l 1
 241 338.711914062 l 1xae
 344 340 l 1
 342 240 l 1
794 336 m 1
 898 330.466796875 l 1
 1035 337 l 1
 1033 228 l 1
 880 237.577148438 l 1
 792 236 l 1xc6
 794 336 l 1
834 466 m 1
 945 461 l 1
 1072 467 l 1
 1070 358 l 1
 935 367.288085938 l 1x96
 832 366 l 1
 834 466 l 1
504.607421875 0 m 1
 295.174804688 0 l 1
 140.151367188 556 l 1
 17.0458984375 548 l 1
 10 732 l 1
 298.546875 746 l 1
 409.905273438 284.1328125 l 1
 513.904296875 759 l 1
 730.450195312 725 l 1
 504.607421875 0 l 1
833.607421875 0 m 1
 624.174804688 0 l 1
 503 433 l 1
 646.395507812 623 l 1
 736.905273438 284.1328125 l 1
 845.904296875 736 l 1
 1062.45019531 702 l 1
 833.607421875 0 l 1
EndSplineSet
EndChar

StartChar: dong
Encoding: 683 8363 518
Width: 682
Flags: W
HStem: -56 112<173.444 637> -47 107<42 504.556> 94.9336 155<239.815 347.954> 105 160.927<586.849 668.38> 406.934 155<239.815 349.152> 579 100<292 606.52> 735.002 20G<386.854 584.279>
VStem: 20 197<270.537 384.79> 382.271 92.7295<210.418 477.156> 387 197.17<580.288 755.002>
LayerCount: 2
Fore
SplineSet
42 60 m 1x4f
 638 56 l 1
 637 -56 l 1x8f
 41 -47 l 1
 42 60 l 1x4f
372 326.93359375 m 0
 372 375.822656251 342.05584366 406.93359375 295 406.93359375 c 0
 247.33285245 406.93359375 217 375.822656251 217 326.93359375 c 0
 217 279.877607523 247.33285245 249.93359375 295 249.93359375 c 0x2f
 342.05584366 249.93359375 372 279.877607523 372 326.93359375 c 0
475 343.93359375 m 0x2f80
 475 210.418327487 396.30078125 94.93359375 248 94.93359375 c 0
 108.666015625 94.93359375 20 185.15571802 20 326.93359375 c 0
 20 470.545391376 108.666015625 561.93359375 248 561.93359375 c 0
 386.72265625 561.93359375 475 477.156346342 475 343.93359375 c 0x2f80
382.270507812 105 m 1x1f80
 387 755.001953125 l 1
 584.169921875 755.001953125 l 1x1f40
 586.848632812 265.926757812 l 1
 672 267.930664062 l 1
 668.379882812 105 l 1
 382.270507812 105 l 1x1f80
292 679 m 1
 493 674 l 1
 658 680 l 1
 656 571 l 1
 483 580.288085938 l 1
 290 579 l 1
 292 679 l 1
EndSplineSet
EndChar

StartChar: uni20BD
Encoding: 696 8381 519
Width: 699
Flags: W
HStem: 0 21G<131.771 358.003> 88 124<300.253 506> 96 115<12 427.919> 244.934 145<78.2893 442.283> 537.992 201<241.609 439.367> 537.992 61.2578<178.68 354.67>
VStem: 131.771 226.232<0 599.25> 464.917 214<410.396 511.659>
LayerCount: 2
Fore
SplineSet
12 211 m 1xb3
 243 206 l 1
 508 212 l 1
 506 88 l 1xd3
 233 97.2880859377 l 1
 10 96 l 1
 12 211 l 1xb3
358.002929688 0 m 1
 131.770507812 0 l 1
 137.940429688 599.25 l 1
 354.669921875 599.25 l 1x97
 358.002929688 0 l 1
23.1962890625 410.876953125 m 1
 23.1962890625 410.876953125 130.741210938 389.93359375 374.916992188 389.93359375 c 0
 434.467494419 389.93359375 464.916992188 417.15590533 464.916992188 459.93359375 c 0
 464.916992188 507.636067709 430.903233532 537.9921875 369 537.9921875 c 0
 178.6796875 537.9921875 63.26953125 466.427734375 63.26953125 466.427734375 c 1
 22 674.840820312 l 1
 22 674.840820312 123.084960938 738.9921875 360.916992188 738.9921875 c 0x9b
 555.25 738.9921875 678.916992188 635.13671875 678.916992188 471.93359375 c 0
 678.916992188 333.210040118 570.805664062 244.93359375 400.916992188 244.93359375 c 0
 161.283203125 244.93359375 17 266 17 266 c 1
 23.1962890625 410.876953125 l 1
EndSplineSet
EndChar

StartChar: uni20BF
Encoding: 698 8383 520
Width: 556
Flags: W
HStem: 0 21G<138 275 318 455> 94.6738 120.326<155 256 335 436> 327.278 93.2227<268.356 332.914> 524 125.107<322 416.688> 524 14.2734<142 243> 719 20G<123 260 303 440>
VStem: 142 101<524 603.211> 336.391 171.042<426.041 537.538> 359.876 177.708<250.037 321.678>
LayerCount: 2
Back
SplineSet
221.6953125 448.876953125 m 5xda
 221.6953125 448.876953125 244.848632812 437.93359375 297.416015625 437.93359375 c 4
 350.349609375 437.93359375 377.416015625 459.322265625 377.416015625 492.93359375 c 4
 377.416015625 531.469726562 348.85546875 555.9921875 290.416015625 555.9921875 c 4
 98.9208984375 555.9921875 -24.2314453125 471.427734375 -24.2314453125 471.427734375 c 5
 -65.5009765625 664.840820312 l 5
 -65.5009765625 664.840820312 38.56640625 738.9921875 283.416015625 738.9921875 c 4
 462.471679688 738.9921875 576.416015625 654.581054688 576.416015625 521.93359375 c 4xec
 576.416015625 413.459960938 482.774414062 384.96875 482.774414062 384.96875 c 5
 482.774414062 384.96875 616.416015625 356.1171875 616.416015625 206.9921875 c 4
 616.416015625 72.3447265625 502.471679688 -10.06640625 323.416015625 -10.06640625 c 4
 134.706054688 -10.06640625 54.4990234375 24.0849609375 54.4990234375 24.0849609375 c 5
 60.439453125 589.25 l 5
 262.168945312 589.25 l 5
 264.212890625 167.24609375 l 5
 264.212890625 167.24609375 281.637695312 163.93359375 330.416015625 163.93359375 c 4
 388.85546875 163.93359375 417.416015625 191.567382812 417.416015625 234.9921875 c 4
 417.416015625 273.4921875 390.349609375 297.9921875 337.416015625 297.9921875 c 4
 265.223632812 297.9921875 221.756835938 288.43359375 221.756835938 288.43359375 c 5
 221.6953125 448.876953125 l 5xda
EndSplineSet
Fore
SplineSet
455 0 m 1xe6
 318 0 l 1
 335 215 l 1
 436 215 l 1
 455 0 l 1xe6
303 739 m 1
 440 739 l 1
 423 524 l 1xee
 322 524 l 1xf6
 303 739 l 1
275 0 m 1
 138 0 l 1
 155 215 l 1
 256 215 l 1
 275 0 l 1
123 739 m 1
 260 739 l 1
 243 524 l 1
 142 524 l 1
 123 739 l 1
228.994140625 427.791015625 m 1
 228.994140625 427.791015625 245.482421875 420.500976562 282.919921875 420.500976562 c 0
 318.29941964 420.500976562 336.390625 433.77684934 336.390625 454.640625 c 0
 336.390625 478.783706913 317.200715949 494.146484375 277.93359375 494.146484375 c 0
 141.560546875 494.146484375 30.6552734375 446.063476562 30.6552734375 446.063476562 c 1
 -2 594.22265625 l 1
 -2 594.22265625 80.3466796875 649.107421875 274.08984375 649.107421875 c 0
 416.688150691 649.107421875 507.432617188 586.62890625 507.432617188 488.447265625 c 0xf7
 507.432617188 406.969256963 434.836914062 385.568359375 434.836914062 385.568359375 c 1
 434.836914062 385.568359375 537.583984375 364.456057533 537.583984375 255.334960938 c 0
 537.583984375 155.672851562 447.421875 94.673828125 305.739257812 94.673828125 c 0
 152.910250678 94.673828125 87.953125 119.951171875 87.953125 119.951171875 c 1
 92.6533203125 538.2734375 l 1
 263.27734375 538.2734375 l 1
 269.272460938 245.180664062 l 1
 269.272460938 245.180664062 279.049647419 242.974609375 306.419921875 242.974609375 c 0
 342.327480259 242.974609375 359.875976562 260.409656697 359.875976562 287.809570312 c 0xee80
 359.875976562 311.929259936 342.292279174 327.278320312 307.905273438 327.278320312 c 0
 258.677800788 327.278320312 229.038085938 320.91015625 229.038085938 320.91015625 c 1
 228.994140625 427.791015625 l 1
EndSplineSet
EndChar

StartChar: colonmonetary
Encoding: 677 8353 521
Width: 501
Flags: W
HStem: 91.9014 162.886<239.191 451.295> 458.039 161.418<285.041 418.248> 717.812 20G<187.171 293.542 365.26 427.723>
VStem: 49.0977 203.22<291.265 424.607>
LayerCount: 2
Fore
SplineSet
310.375976562 -6.4453125 m 1
 181 18.6181640625 l 1
 247.774414062 236.0625 l 1
 343.154296875 202.840820312 l 1
 310.375976562 -6.4453125 l 1
370.303710938 737.811523438 m 1
 499.6796875 692.748046875 l 1
 412.905273438 495.303710938 l 1
 317.525390625 528.525390625 l 1
 370.303710938 737.811523438 l 1
130.375976562 -6.4453125 m 1
 1 38.6181640625 l 1
 87.7744140625 236.0625 l 1
 183.154296875 202.840820312 l 1
 130.375976562 -6.4453125 l 1
190.303710938 737.811523438 m 1
 319.6796875 712.748046875 l 1
 252.905273438 495.303710938 l 1
 157.525390625 528.525390625 l 1
 190.303710938 737.811523438 l 1
49.09765625 357.576171875 m 0
 49.09765625 517.614257812 155.549804688 619.45703125 322.833007812 619.45703125 c 0
 435.426757812 619.45703125 483.282226562 569.0703125 483.282226562 569.0703125 c 1
 434.209960938 429.358398438 l 1
 434.209960938 429.358398438 401.068359375 458.0390625 349.534179688 458.0390625 c 0
 290.123046875 458.0390625 252.317382812 421.354492188 252.317382812 363.708007812 c 0
 252.317382812 297.145507812 286.873046875 254.787109375 354.453125 254.787109375 c 0
 429.422851562 254.787109375 467.395507812 286.900390625 467.395507812 286.900390625 c 1
 500.872070312 132.869140625 l 1
 500.872070312 132.869140625 457.473632812 91.9013671875 322.833007812 91.9013671875 c 0
 155.549804688 91.9013671875 49.09765625 195.21875 49.09765625 357.576171875 c 0
EndSplineSet
EndChar

